<svg width="48" height="48" viewBox="0 0 48 48" fill="none" xmlns="http://www.w3.org/2000/svg">
<g clip-path="url(#clip0)">
<path d="M24.0489 46.5317L33.0821 43.9261C38.8583 39.3919 42.5698 32.3471 42.5698 24.4341C42.5698 12.273 33.8052 2.16023 22.2485 0.0644531C9.81141 0.961734 0 11.3349 0 24.0005C0 30.6796 2.67834 36.6722 7.0815 41.023L8.07178 41.951L24.0489 46.5317Z" fill="#CBE2FF"/>
<path d="M23.9996 0C22.9661 0 21.9478 0.0654375 20.9487 0.192187C32.763 1.69106 41.8978 11.7787 41.8978 24C41.8978 32.9634 36.9839 40.7788 29.7032 44.9002L39.9274 41.951C44.8786 37.5546 47.9996 31.1422 47.9996 24C47.9996 10.7452 37.2545 0 23.9996 0V0Z" fill="#BED8FB"/>
<path d="M31.3951 28.7807C32.9926 27.8439 33.9736 26.1299 33.973 24.2782C33.9712 18.9464 33.9704 16.0293 33.9704 16.0293C33.9704 10.5226 29.5064 6.05859 23.9997 6.05859C18.493 6.05859 14.029 10.5226 14.029 16.0293C14.029 16.0293 14.0281 18.9465 14.0264 24.2782C14.0257 26.1299 15.0068 27.8439 16.6042 28.7807L17.7289 29.4403C19.6306 30.5556 21.7952 31.1435 23.9998 31.1435C26.2043 31.1435 28.369 30.5556 30.2706 29.4403L31.3951 28.7807Z" fill="#EFC984"/>
<path d="M33.9708 16.029C33.9708 11.8953 31.4553 8.34933 27.8716 6.83789V30.5213C28.7038 30.2476 29.5087 29.887 30.2708 29.44L31.3956 28.7804C32.993 27.8436 33.974 26.1296 33.9734 24.2778C33.9717 18.9461 33.9708 16.029 33.9708 16.029Z" fill="#EABC6B"/>
<path d="M23.9996 39.199L30.3258 34.7472L27.7722 31.6542V24.6035H20.227V31.6542L17.6733 34.7472L23.9996 39.199Z" fill="#FFDDCE"/>
<path d="M36.3349 33.3016L29.3485 31.957C28.2454 33.7535 26.2626 34.9517 23.9999 34.9517C21.7373 34.9517 19.7545 33.7535 18.6514 31.957L11.665 33.3016C9.00436 33.8137 7.08154 36.1418 7.08154 38.8512V41.0238C10.8231 44.7426 15.7841 47.235 21.3117 47.851C21.7262 47.8972 22.1458 47.8718 22.5531 47.782L24.3301 47.3902C24.7518 47.2972 25.1895 47.3055 25.6074 47.4145C26.1871 47.5657 26.8006 47.5222 27.3534 47.291C32.7948 45.0142 37.251 40.8531 39.9042 35.6211C39.0851 34.4461 37.8259 33.5886 36.3349 33.3016Z" fill="#4A80AA"/>
<path d="M40.9181 38.851C40.9181 37.3212 40.3049 35.9132 39.2922 34.8848C35.7639 41.8067 28.9765 46.7896 20.9512 47.8086C21.9238 47.9319 22.9145 47.9977 23.9199 48.0009H23.9223C23.9535 48.001 24.0328 48.0011 24.077 48.0009H24.0794C30.6488 47.9796 36.5965 45.3188 40.918 41.0236V38.851H40.9181Z" fill="#407093"/>
<path d="M24.4855 47.3553C25.3795 44.7671 27.2353 38.9131 27.6768 33.7598C26.6437 34.5087 25.3736 34.951 24 34.951C22.6264 34.951 21.3564 34.5087 20.3232 33.7598C20.7763 39.0492 22.7199 45.0777 23.5836 47.5541L24.4855 47.3553Z" fill="#E28086"/>
<path d="M23.5093 47.3401C23.5956 47.5901 23.6732 47.8107 23.7397 47.997C24.2318 48.0021 24.0607 47.999 24.2598 47.997C24.3506 47.7428 24.4619 47.4253 24.5882 47.0547C24.2318 47.158 23.8722 47.2532 23.5093 47.3401Z" fill="#DD636E"/>
<path d="M30.6868 15.361C28.0226 12.4916 27.528 9.88477 27.528 9.88477C26.2046 13.3573 22.8436 15.8243 18.9063 15.8243C18.7859 15.8243 18.666 15.822 18.5466 15.8175C17.6406 15.7827 16.8882 16.5089 16.8882 17.4155V20.3283C16.9468 24.2071 20.1074 27.3338 24.0002 27.3338C27.8928 27.3338 31.0534 24.2071 31.1121 20.3283V16.4466C31.1121 16.0442 30.9605 15.6558 30.6868 15.361Z" fill="#FFDDCE"/>
<path d="M30.6864 15.3623C29.0859 13.6385 28.2689 12.0104 27.8712 10.9844V20.0085C27.8173 23.5713 25.1455 26.4977 21.6938 26.9509C22.4171 27.1988 23.1923 27.3351 23.9997 27.3351C27.8924 27.3351 31.053 24.2084 31.1117 20.3297V16.4479C31.1117 16.0456 30.9601 15.6572 30.6864 15.3623Z" fill="#FFCBBE"/>
<path d="M16.1139 32.1988C15.8102 32.3849 15.7498 32.8009 15.9881 33.0656L17.4674 34.7087C17.6789 34.9437 17.6587 35.3058 17.4224 35.5157L16.447 36.3824C16.2422 36.5643 16.1409 36.8392 16.1892 37.1088C16.7342 40.1535 21.6053 45.9685 23.3675 47.9923C23.4917 47.9953 23.6161 47.9974 23.7408 47.9987C22.8883 45.6108 20.2275 37.6754 20.2275 31.6525V29.6777L16.1139 32.1988Z" fill="#365E7D"/>
<path d="M31.8866 32.1987L27.773 29.6777V31.6525C27.773 37.6754 25.1122 45.6108 24.2598 47.9987C24.3845 47.9975 24.5089 47.9954 24.6331 47.9923C26.3953 45.9685 31.2664 40.1535 31.8113 37.1088C31.8596 36.8391 31.7583 36.5643 31.5535 36.3824L30.5781 35.5157C30.3418 35.3058 30.3216 34.9437 30.5331 34.7087L32.0124 33.0656C32.2506 32.8008 32.1903 32.3848 31.8866 32.1987Z" fill="#365E7D"/>
<path d="M32.1901 16.459H31.1118V20.0215H32.1901C33.1741 20.0215 33.9717 19.2237 33.9714 18.2397C33.9711 17.2562 33.1737 16.459 32.1901 16.459Z" fill="#FFDDCE"/>
</g>
<defs>
<clipPath id="clip0">
<rect width="48" height="48" fill="white"/>
</clipPath>
</defs>
</svg>
