<svg width="110" height="110" viewBox="0 0 110 110" fill="none" xmlns="http://www.w3.org/2000/svg">
<g clip-path="url(#clip0)">
<path d="M25.4111 96.0227C25.4111 98.3284 22.75 99.6172 20.9406 98.1881C8.18598 88.1158 0 72.514 0 55.0004C0 24.965 24.076 0.552537 53.9821 0.00984173C84.7314 -0.548322 109.834 23.9447 109.999 54.6987C110.058 65.6152 106.936 75.7986 101.506 84.3764C100.392 86.1362 98.4487 87.1969 96.366 87.1969H34.2369C29.3625 87.1969 25.4111 91.1485 25.4111 96.0227Z" fill="#9DC6FB"/>
<path d="M99.2029 55.0009C99.2029 79.4136 79.4126 99.2039 54.9999 99.2039C30.5872 99.2039 10.7969 79.4136 10.7969 55.0009C10.7969 30.5882 30.5872 10.7979 54.9999 10.7979C79.4126 10.7979 99.2029 30.5882 99.2029 55.0009Z" fill="#044472" fill-opacity="0.96"/>
<path d="M44.1515 96.8795C36.957 95.4403 30.2691 92.5972 24.3861 88.6484C22.046 87.0775 20.625 84.4592 20.625 81.6406C20.625 73.3348 27.3582 66.6016 35.6641 66.6016H44.1515V96.8795Z" fill="#E09380"/>
<path d="M53.5326 20.1953V57.1484C53.5326 57.623 53.1478 58.0078 52.6732 58.0078H28.7891C28.3145 58.0078 27.9297 57.623 27.9297 57.1484V20.1953C27.9297 19.7207 28.3145 19.3359 28.7891 19.3359H52.6732C53.1478 19.3359 53.5326 19.7207 53.5326 20.1953Z" fill="#954C35"/>
<path d="M82.0703 20.1953V57.1484C82.0703 57.623 81.6855 58.0078 81.2109 58.0078H56.3965C55.9219 58.0078 55.5371 57.623 55.5371 57.1484V20.1953C55.5371 19.7207 55.9219 19.3359 56.3965 19.3359H81.2109C81.6855 19.3359 82.0703 19.7207 82.0703 20.1953Z" fill="#AE583E"/>
<path d="M31.3672 47.2656C28.4008 47.2656 25.9961 44.8609 25.9961 41.8945V39.7461C25.9961 36.7797 28.4008 34.375 31.3672 34.375C34.3335 34.375 36.7383 36.7797 36.7383 39.7461V41.8945C36.7383 44.8609 34.3335 47.2656 31.3672 47.2656Z" fill="#FFCDBE"/>
<path d="M25.9961 41.8945V39.7461C25.9961 36.78 28.4006 34.3752 31.3668 34.375C30.0624 35.3549 29.2188 36.9149 29.2188 38.6719V42.9688C29.2188 44.7257 30.0624 46.2857 31.3668 47.2656C28.4006 47.2654 25.9961 44.8609 25.9961 41.8945ZM78.6328 34.375V30.0781C78.6328 17.0262 68.052 6.44531 55 6.44531C41.948 6.44531 31.3672 17.0259 31.3672 30.0781V38.6719C31.3672 49.4895 38.6354 58.6094 48.5547 61.415V66.6016H42.1094C33.8035 66.6016 27.0703 73.3348 27.0703 81.6406V95.1264C35.2565 99.9612 44.8042 102.735 55 102.735C63.9553 102.735 77.5966 96.7981 77.5966 96.7981V68.7206C77.5966 67.6431 76.7669 66.7582 75.6938 66.6622C75.2464 66.6222 74.7936 66.6018 74.3359 66.6018H61.4453V61.4152C68.6611 59.3744 74.4737 53.9922 77.1063 47.0458C77.5902 47.1889 78.1026 47.2658 78.6328 47.2658C81.5992 47.2658 84.0039 44.8611 84.0039 41.8947V39.7463C84.0039 36.7797 81.5992 34.375 78.6328 34.375Z" fill="#FFBEAA"/>
<path d="M78.6328 30.0793V38.673C78.6328 49.5854 71.2368 58.7702 61.1841 61.4884C59.2455 62.0126 57.1998 62.0126 55.2613 61.4884C45.2085 58.7704 37.8125 49.5854 37.8125 38.673V30.0793C37.8125 18.1205 46.6952 8.23635 58.2227 6.66455C69.7501 8.23635 78.6328 18.1205 78.6328 30.0793Z" fill="#FFCDBE"/>
<path d="M51.8847 40.1193C51.2554 39.4898 51.2554 38.4697 51.8847 37.8404C52.514 37.2114 53.5343 37.2114 54.1633 37.8404C54.3872 38.0643 54.6841 38.1876 54.9997 38.1876C55.3153 38.1876 55.6122 38.0643 55.8361 37.8404C56.4654 37.2114 57.4857 37.2114 58.1147 37.8404C58.744 38.4699 58.744 39.49 58.1147 40.1193C57.2822 40.9518 56.176 41.4103 54.9995 41.4103C53.823 41.4103 52.7172 40.9518 51.8847 40.1193ZM61.5103 46.049C60.8811 45.4199 59.8608 45.4199 59.2317 46.049C56.8983 48.3824 53.1018 48.3824 50.7682 46.049C50.1389 45.4199 49.1186 45.4199 48.4895 46.049C47.8603 46.6785 47.8603 47.6986 48.4895 48.3278C50.2843 50.1226 52.6422 51.02 54.9999 51.02C57.3576 51.02 59.7155 50.1226 61.5103 48.3278C62.1396 47.6986 62.1396 46.6785 61.5103 46.049Z" fill="#E09380"/>
<path d="M52.5681 33.7305C52.5058 34.2882 52.216 34.78 51.7732 35.0801C49.5199 36.607 46.8842 37.4142 44.151 37.4142C41.4177 37.4142 38.7818 36.607 36.5287 35.0801C36.0859 34.7802 35.7961 34.2882 35.7338 33.7305C35.6539 33.0144 35.6133 32.2839 35.6133 31.5601C35.6133 30.8361 35.6539 30.1056 35.7338 29.3896C35.7961 28.8322 36.0859 28.3403 36.5287 28.0401H36.5289C38.7818 26.5132 41.4175 25.7061 44.1512 25.7061C46.8848 25.7061 49.5203 26.5132 51.7734 28.0401C52.2162 28.34 52.506 28.832 52.5683 29.3896C52.6482 30.1056 52.6888 30.8361 52.6888 31.5601C52.6886 32.2839 52.6482 33.0144 52.5681 33.7305ZM74.2652 33.7305C74.2029 34.2882 73.913 34.78 73.4702 35.0801C71.217 36.607 68.5813 37.4142 65.848 37.4142C63.1148 37.4142 60.4789 36.607 58.2258 35.0801C57.783 34.7802 57.4932 34.2882 57.4309 33.7305C57.3509 33.0144 57.3103 32.2839 57.3103 31.5601C57.3103 30.8361 57.3509 30.1056 57.4309 29.3896C57.4932 28.8322 57.783 28.3403 58.2258 28.0401H58.226C60.4789 26.5132 63.1146 25.7061 65.8482 25.7061C68.5819 25.7061 71.2174 26.5132 73.4705 28.0401C73.9132 28.34 74.2031 28.832 74.2654 29.3896C74.3453 30.1056 74.3859 30.8361 74.3859 31.5601C74.3857 32.2839 74.3451 33.0144 74.2652 33.7305Z" fill="#A6AEE5"/>
<path d="M48.0176 31.6895C48.0176 33.4692 46.5747 34.9121 44.7949 34.9121C43.0152 34.9121 41.5723 33.4692 41.5723 31.6895C41.5723 29.9097 43.0152 28.4668 44.7949 28.4668C46.5747 28.4668 48.0176 29.9097 48.0176 31.6895ZM65.2051 28.4668C63.4253 28.4668 61.9824 29.9097 61.9824 31.6895C61.9824 33.4692 63.4253 34.9121 65.2051 34.9121C66.9848 34.9121 68.4277 33.4692 68.4277 31.6895C68.4277 29.9097 66.9848 28.4668 65.2051 28.4668Z" fill="#2B3894"/>
<path d="M48.5547 30.0781C48.5547 30.968 47.8332 31.6895 46.9434 31.6895C46.0535 31.6895 45.332 30.968 45.332 30.0781C45.332 29.1882 46.0535 28.4668 46.9434 28.4668C47.8332 28.4668 48.5547 29.1882 48.5547 30.0781ZM67.3535 28.4668C66.4636 28.4668 65.7422 29.1882 65.7422 30.0781C65.7422 30.968 66.4636 31.6895 67.3535 31.6895C68.2434 31.6895 68.9648 30.968 68.9648 30.0781C68.9648 29.1882 68.2434 28.4668 67.3535 28.4668Z" fill="#FFF5F5"/>
<path d="M60.1562 6.43361V6.4798C60.1562 15.9536 52.4762 23.6336 43.0023 23.6336H31.1459C29.3698 23.6336 27.9297 22.1937 27.9297 20.4174V20.3712C27.9297 9.12109 37.0498 0.000976562 48.2999 0.000976562H53.7234C57.2763 0.000976562 60.1562 2.88096 60.1562 6.43361Z" fill="#954C35"/>
<path d="M82.0703 17.5436V23.6336H69.8936C62.1427 23.6336 55.8594 17.3503 55.8594 9.59955V8.66906C55.8594 3.8817 59.7403 0.000976562 64.5275 0.000976562C74.2163 0.000976562 82.0703 7.85502 82.0703 17.5436Z" fill="#AE583E"/>
<path d="M43.1836 85.9375H66.8164V101.158C66.8164 105.75 63.2653 109.575 58.6839 109.878C57.4664 109.959 56.2379 110 55 110C53.7621 110 52.5336 109.959 51.3161 109.879C46.7347 109.575 43.1836 105.75 43.1836 101.158V85.9375Z" fill="#44BFD7"/>
<path d="M49.6289 109.742C38.7121 108.683 28.7291 104.434 20.625 97.9374V81.6413C20.625 73.5548 27.0071 66.9591 35.0092 66.6162C39.3299 70.9038 44.2909 73.8416 49.6289 75.0321V109.742ZM74.9908 66.6164C70.6701 70.9041 65.7091 73.8418 60.3711 75.0323V105.106C71.2879 104.048 81.2709 99.7982 89.375 93.3017V81.6413C89.375 73.555 82.9929 66.9591 74.9908 66.6164Z" fill="#FFF5F5"/>
<path d="M27.0703 102.391C24.8134 101.058 22.66 99.5687 20.625 97.9376V81.6413C20.625 73.5548 27.0071 66.9591 35.0092 66.6162C35.4153 67.019 35.8269 67.4101 36.2441 67.7888C30.8524 70.0748 27.0703 75.4164 27.0703 81.6413V102.391ZM33.4619 92.3835C32.572 92.3835 31.8506 93.1049 31.8506 93.9948V104.906C32.907 105.397 33.9816 105.855 35.0732 106.28V93.9948C35.0732 93.1049 34.3518 92.3835 33.4619 92.3835Z" fill="#FCF2B6"/>
<path d="M79.6281 32.809L75.0064 32.0695C75.0109 31.8993 75.0133 31.7294 75.0133 31.5597C75.0133 30.8631 74.9742 30.1617 74.8977 29.4757C74.7873 28.4891 74.2635 27.611 73.4606 27.0668C71.2099 25.5417 68.5779 24.7354 65.8487 24.7354C63.1196 24.7354 60.4875 25.5417 58.2368 27.0668C57.4911 27.5724 56.986 28.3656 56.8296 29.2662C55.6759 28.7175 54.3243 28.7175 53.1706 29.2662C53.0139 28.3656 52.5091 27.5724 51.7633 27.0671C49.5129 25.5419 46.8806 24.7356 44.1516 24.7356C41.4225 24.7356 38.7902 25.5419 36.5399 27.0671C35.7366 27.6113 35.2129 28.4893 35.1026 29.4759C35.0257 30.1636 34.9868 30.8648 34.9868 31.5599C34.9868 31.7296 34.9892 31.8995 34.9937 32.0697L30.3722 32.8092C29.9034 32.8844 29.5844 33.3248 29.6594 33.7936C29.727 34.2164 30.0921 34.5174 30.5069 34.5174C30.552 34.5174 30.5978 34.5138 30.6438 34.5064L35.1222 33.7899C35.2657 34.7166 35.7766 35.5355 36.5399 36.0527C38.7906 37.5779 41.4229 38.3842 44.1519 38.3842C46.8808 38.3842 49.5129 37.5779 51.7638 36.0527C52.5669 35.5085 53.0906 34.6302 53.2009 33.6436C53.2778 32.9559 53.3167 32.2547 53.3167 31.5599C53.3167 31.4451 53.3156 31.3302 53.3134 31.215C54.2714 30.3589 55.7296 30.3585 56.6876 31.215C56.6854 31.33 56.6843 31.4451 56.6843 31.5599C56.6843 32.2551 56.7234 32.9563 56.8001 33.6434C56.9104 34.6302 57.4341 35.5085 58.2372 36.0527C60.4881 37.5779 63.1204 38.3842 65.8491 38.3842C68.5779 38.3842 71.2101 37.5779 73.4611 36.0527C74.2242 35.5358 74.7351 34.717 74.8788 33.7899L79.3572 34.5064C79.4032 34.5138 79.449 34.5174 79.4941 34.5174C79.9089 34.5174 80.274 34.2164 80.3416 33.7936C80.416 33.3246 80.0967 32.8839 79.6281 32.809ZM51.4926 33.4524C51.4383 33.9388 51.1856 34.3679 50.7993 34.6296C48.8342 35.9612 46.5353 36.6652 44.1516 36.6652C41.7677 36.6652 39.4691 35.9614 37.5039 34.6296C37.1177 34.3679 36.865 33.9388 36.8106 33.4524C36.7408 32.8279 36.7056 32.1909 36.7056 31.5594C36.7056 30.928 36.741 30.291 36.8106 29.6662C36.865 29.18 37.1177 28.751 37.5039 28.4893C39.4689 27.1577 41.7675 26.4537 44.1514 26.4537C46.5353 26.4537 48.834 27.1575 50.7989 28.4893C51.1852 28.751 51.4379 29.18 51.4922 29.6662C51.562 30.2908 51.5973 30.9278 51.5973 31.5594C51.5977 32.1909 51.5625 32.8279 51.4926 33.4524ZM72.4964 34.6296C70.5315 35.9612 68.2326 36.6652 65.8489 36.6652C63.4652 36.6652 61.1664 35.9614 59.2014 34.6296C58.8149 34.3679 58.5623 33.9388 58.5082 33.4524C58.4383 32.8281 58.4029 32.1913 58.4029 31.5594C58.4029 30.9276 58.4383 30.2908 58.5082 29.6662C58.5623 29.1803 58.8149 28.7512 59.2014 28.4895C61.1664 27.1579 63.465 26.4539 65.8489 26.4539C68.2328 26.4539 70.5317 27.1577 72.4964 28.4895C72.8827 28.7512 73.1354 29.1803 73.1897 29.6664C73.2595 30.2895 73.2948 30.9265 73.2948 31.5597C73.2948 32.1928 73.2595 32.8294 73.1897 33.4526C73.1351 33.9388 72.8825 34.3679 72.4964 34.6296Z" fill="#232E7A"/>
<path d="M87.6562 78.8477V84.8633H73.0469V78.8477H87.6562Z" fill="#E09380"/>
<path d="M91.4314 78.7573C88.2657 77.0334 84.2923 76.084 80.2438 76.084C76.1953 76.084 72.222 77.0334 69.0563 78.7573C68.1185 79.2682 67.5586 80.1639 67.5586 81.1537V83.8815C67.5586 85.7096 69.2668 87.197 71.3667 87.197H89.1212C91.2208 87.197 92.9293 85.7096 92.9293 83.8815V81.1537C92.9291 80.1641 92.3692 79.2682 91.4314 78.7573ZM90.7806 83.8815C90.7806 84.514 90.0207 85.0486 89.121 85.0486H71.3665C70.4667 85.0486 69.7068 84.5142 69.7068 83.8815V81.1537C69.7068 80.9631 69.8475 80.7727 70.0837 80.644C72.9396 79.0888 76.5479 78.2322 80.2436 78.2322C83.9394 78.2322 87.5477 79.0888 90.4036 80.644C90.6397 80.7725 90.7804 80.9631 90.7804 81.1537V83.8815H90.7806Z" fill="#232E7A"/>
<path d="M90.691 78.5361V79.0191C90.691 79.7607 89.7498 80.3619 88.5886 80.3619H77.4036C77.4019 80.3619 77.4004 80.3619 77.3986 80.3619C77.3969 80.3619 77.3952 80.3619 77.3937 80.3619H71.8739C70.7127 80.3619 69.7715 79.7607 69.7715 79.0191V78.5361C69.7715 78.2248 70.0085 77.9326 70.4081 77.7543C72.3309 76.8962 74.6317 76.2846 77.1514 76.007C77.1524 76.007 77.1537 76.0068 77.1548 76.0066C77.157 76.0063 77.1591 76.0061 77.1613 76.0059H77.1617H77.1619C78.1543 75.897 79.1806 75.8398 80.2314 75.8398C83.9537 75.8398 87.3719 76.5572 90.0547 77.7543C90.4541 77.9326 90.691 78.2248 90.691 78.5361Z" fill="#3D4EC6"/>
<path d="M81.8831 102.995C74.9085 106.91 66.9938 109.348 58.5625 109.887V87.8808C58.5625 85.4739 60.5137 83.5225 62.9208 83.5225H82.9552V101.165C82.9552 101.924 82.5449 102.623 81.8831 102.995Z" fill="#2B3894"/>
<path d="M83.5925 100.713C82.4908 100.805 81.374 100.853 80.2441 100.853C72.1013 100.853 64.6241 98.3961 58.7557 94.2958C57.8817 93.6852 57.3633 92.6843 57.3633 91.6182V87.5703C57.3633 85.0303 59.4223 82.9712 61.9624 82.9712H83.5925V100.713Z" fill="#3342AE"/>
<path d="M101.628 84.1824C97.59 90.6207 92.2559 96.1632 85.991 100.444C84.1223 100.717 82.202 100.859 80.2431 100.859C79.3156 100.859 78.3967 100.827 77.4879 100.765C77.4364 100.073 77.4102 99.3732 77.4102 98.6676C77.4102 92.8499 79.1914 87.4481 82.2381 82.978H98.5248C99.7206 82.978 100.81 83.4344 101.628 84.1824Z" fill="#3D4EC6"/>
<path d="M80.4362 100.855V101.944C80.4362 102.546 79.9483 103.034 79.3468 103.034H75.3414C74.7396 103.034 74.252 102.546 74.252 101.944V100.855C74.252 100.253 74.7399 99.7651 75.3414 99.7651H79.3468C79.9483 99.7651 80.4362 100.253 80.4362 100.855Z" fill="#FF9F22"/>
<path d="M86.1174 100.357C84.7269 101.313 83.2901 102.207 81.8113 103.034H77.4117C76.81 103.034 76.3223 102.546 76.3223 101.944V100.855C76.3223 100.253 76.8102 99.7651 77.4117 99.7651H85.1476C85.5702 99.7651 85.9365 100.006 86.1174 100.357Z" fill="#FFC14F"/>
<path d="M88.8755 76.0737V79.7935C88.8755 80.9378 88.012 81.937 86.8701 82.0109C85.9317 82.0717 85.1119 81.5294 84.7608 80.7341C84.6437 80.469 84.5178 80.4571 84.4057 80.7229C84.1726 81.2753 83.7175 81.7202 83.1252 81.9065C81.9882 82.2642 80.922 81.7032 80.4873 80.785C80.4046 80.6101 80.1597 80.609 80.077 80.7839C79.733 81.5118 78.992 82.0154 78.1335 82.0154C77.3126 82.0154 76.5991 81.5548 76.2375 80.878C76.1505 80.7152 75.9152 80.7057 75.8336 80.8714C75.469 81.6098 74.6928 82.1084 73.8046 82.0676C72.6462 82.0143 71.7578 81.0097 71.7578 79.85V76.1235C71.7578 74.9728 72.6335 73.9738 73.7825 73.9094C74.8825 73.8477 75.8153 74.614 76.0152 75.6423C76.1855 74.6261 77.0692 73.8516 78.1337 73.8516C79.3201 73.8516 80.2819 74.8132 80.2822 75.9996C80.2826 74.588 81.6441 73.4947 83.1254 73.9607C84.003 74.2368 84.579 75.08 84.579 76.0002C84.579 74.7664 85.6193 73.7753 86.8706 73.8565C88.012 73.9304 88.8755 74.9294 88.8755 76.0737Z" fill="#FFBEAA"/>
</g>
<defs>
<clipPath id="clip0">
<rect width="110" height="110" fill="white"/>
</clipPath>
</defs>
</svg>
