<svg width="363" height="156" viewBox="0 0 363 156" fill="none" xmlns="http://www.w3.org/2000/svg">
<rect x="0.19043" width="362.619" height="156" rx="6" fill="#C95B10"/>
<path fill-rule="evenodd" clip-rule="evenodd" d="M60.9872 51.6534V52.3421H0.19043V51.6534H11.3898V48.8985H3.39026V42.0114H0.19043V41.3227H3.39026V27.5485H20.1894V34.4356H28.189V48.8985H12.1898V51.6534H48.1879V48.8985H32.1887V34.4356H40.1883V27.5485H56.9874V41.3227H60.1873V10.3307H56.9874V24.1049H40.1883V17.2178H32.1887V2.75485H48.1879V0H48.9879V2.75485H56.9874V9.64197H60.1873V0H60.9872V51.6534ZM60.1873 51.6534V42.0114H56.9874V48.8985H48.9879V51.6534H60.1873ZM32.9887 10.3307V16.5291H40.1883V10.3307H32.9887ZM40.9883 16.5291H48.9879V23.4162H56.1875V10.3307H48.1879V3.44356H32.9887V9.64197H40.9883V16.5291ZM40.9883 17.2178V23.4162H48.1879V17.2178H40.9883ZM48.9879 9.64197H56.1875V3.44356H48.9879V9.64197ZM27.389 41.3227V35.1243H20.1894V41.3227H27.389ZM19.3894 35.1243H11.3898V28.2372H4.19022V41.3227H12.1898V48.2098H27.389V42.0114H19.3894V35.1243ZM19.3894 34.4356V28.2372H12.1898V34.4356H19.3894ZM11.3898 42.0114H4.19022V48.2098H11.3898V42.0114ZM32.9887 42.0114V48.2098H48.1879V41.3227H56.1875V28.2372H48.9879V35.1243H40.9883V42.0114H32.9887ZM40.1883 35.1243H32.9887V41.3227H40.1883V35.1243ZM40.9883 34.4356H48.1879V28.2372H40.9883V34.4356ZM48.9879 48.2098V42.0114H56.1875V48.2098H48.9879ZM12.1898 0H11.3898V2.75485H3.39026V9.64197H0.19043V10.3307H3.39026V24.1049H20.1894V17.2178H28.189V2.75485H12.1898V0ZM20.1894 16.5291H27.389V10.3307H20.1894V16.5291ZM27.389 9.64197H19.3894V16.5291H11.3898V23.4162H4.19022V10.3307H12.1898V3.44356H27.389V9.64197ZM12.1898 17.2178H19.3894V23.4162H12.1898V17.2178ZM11.3898 3.44356H4.19022V9.64197H11.3898V3.44356Z" fill="#BA5612" fill-opacity="0.5"/>
<path fill-rule="evenodd" clip-rule="evenodd" d="M60.9872 103.995V104.684H0.19043V103.995H11.3898V101.24H3.39026V94.3532H0.19043V93.6645H3.39026V79.8903H20.1894V86.7774H28.189V101.24H12.1898V103.995H48.1879V101.24H32.1887V86.7774H40.1883V79.8903H56.9874V93.6645H60.1873V62.6725H56.9874V76.4467H40.1883V69.5596H32.1887V55.0966H48.1879V52.3418H48.9879V55.0966H56.9874V61.9838H60.1873V52.3418H60.9872V103.995ZM60.1873 103.995V94.3532H56.9874V101.24H48.9879V103.995H60.1873ZM32.9887 62.6725V68.8709H40.1883V62.6725H32.9887ZM40.9883 68.8709H48.9879V75.758H56.1875V62.6725H48.1879V55.7854H32.9887V61.9838H40.9883V68.8709ZM40.9883 69.5596V75.758H48.1879V69.5596H40.9883ZM48.9879 61.9838H56.1875V55.7854H48.9879V61.9838ZM27.389 93.6645V87.4661H20.1894V93.6645H27.389ZM19.3894 87.4661H11.3898V80.579H4.19022V93.6645H12.1898V100.552H27.389V94.3532H19.3894V87.4661ZM19.3894 86.7774V80.579H12.1898V86.7774H19.3894ZM11.3898 94.3532H4.19022V100.552H11.3898V94.3532ZM32.9887 94.3532V100.552H48.1879V93.6645H56.1875V80.579H48.9879V87.4661H40.9883V94.3532H32.9887ZM40.1883 87.4661H32.9887V93.6645H40.1883V87.4661ZM40.9883 86.7774H48.1879V80.579H40.9883V86.7774ZM48.9879 100.552V94.3532H56.1875V100.552H48.9879ZM12.1898 52.3418H11.3898V55.0966H3.39026V61.9838H0.19043V62.6725H3.39026V76.4467H20.1894V69.5596H28.189V55.0966H12.1898V52.3418ZM20.1894 68.8709H27.389V62.6725H20.1894V68.8709ZM27.389 61.9838H19.3894V68.8709H11.3898V75.758H4.19022V62.6725H12.1898V55.7854H27.389V61.9838ZM12.1898 69.5596H19.3894V75.758H12.1898V69.5596ZM11.3898 55.7854H4.19022V61.9838H11.3898V55.7854Z" fill="#BA5612" fill-opacity="0.5"/>
<path fill-rule="evenodd" clip-rule="evenodd" d="M60.9872 104.347V103.658H0.19043V104.347H11.3898V107.101H3.39026V113.989H0.19043V114.677H3.39026V128.452H20.1894V121.564H28.189V107.101H12.1898V104.347H48.1879V107.101H32.1887V121.564H40.1883V128.452H56.9874V114.677H60.1873V145.669H56.9874V131.895H40.1883V138.782H32.1887V153.245H48.1879V156H48.9879V153.245H56.9874V146.358H60.1873V156H60.9872V104.347ZM60.1873 104.347V113.989H56.9874V107.101H48.9879V104.347H60.1873ZM32.9887 145.669V139.471H40.1883V145.669H32.9887ZM40.9883 139.471H48.9879V132.584H56.1875V145.669H48.1879V152.556H32.9887V146.358H40.9883V139.471ZM40.9883 138.782V132.584H48.1879V138.782H40.9883ZM48.9879 146.358H56.1875V152.556H48.9879V146.358ZM27.389 114.677V120.876H20.1894V114.677H27.389ZM19.3894 120.876H11.3898V127.763H4.19022V114.677H12.1898V107.79H27.389V113.989H19.3894V120.876ZM19.3894 121.564V127.763H12.1898V121.564H19.3894ZM11.3898 113.989H4.19022V107.79H11.3898V113.989ZM32.9887 113.989V107.79H48.1879V114.677H56.1875V127.763H48.9879V120.876H40.9883V113.989H32.9887ZM40.1883 120.876H32.9887V114.677H40.1883V120.876ZM40.9883 121.564H48.1879V127.763H40.9883V121.564ZM48.9879 107.79V113.989H56.1875V107.79H48.9879ZM12.1898 156H11.3898V153.245H3.39026V146.358H0.19043V145.669H3.39026V131.895H20.1894V138.782H28.189V153.245H12.1898V156ZM20.1894 139.471H27.389V145.669H20.1894V139.471ZM27.389 146.358H19.3894V139.471H11.3898V132.584H4.19022V145.669H12.1898V152.556H27.389V146.358ZM12.1898 138.782H19.3894V132.584H12.1898V138.782ZM11.3898 152.556H4.19022V146.358H11.3898V152.556Z" fill="#BA5612" fill-opacity="0.5"/>
<path fill-rule="evenodd" clip-rule="evenodd" d="M182.581 51.6534V52.3421H121.784V51.6534H132.984V48.8985H124.984V42.0114H121.784V41.3227H124.984V27.5485H141.783V34.4356H149.783V48.8985H133.784V51.6534H169.782V48.8985H153.782V34.4356H161.782V27.5485H178.581V41.3227H181.781V10.3307H178.581V24.1049H161.782V17.2178H153.782V2.75485H169.782V0H170.582V2.75485H178.581V9.64197H181.781V0H182.581V51.6534ZM181.781 51.6534V42.0114H178.581V48.8985H170.582V51.6534H181.781ZM154.582 10.3307V16.5291H161.782V10.3307H154.582ZM162.582 16.5291H170.582V23.4162H177.781V10.3307H169.782V3.44356H154.582V9.64197H162.582V16.5291ZM162.582 17.2178V23.4162H169.782V17.2178H162.582ZM170.582 9.64197H177.781V3.44356H170.582V9.64197ZM148.983 41.3227V35.1243H141.783V41.3227H148.983ZM140.983 35.1243H132.984V28.2372H125.784V41.3227H133.784V48.2098H148.983V42.0114H140.983V35.1243ZM140.983 34.4356V28.2372H133.784V34.4356H140.983ZM132.984 42.0114H125.784V48.2098H132.984V42.0114ZM154.582 42.0114V48.2098H169.782V41.3227H177.781V28.2372H170.582V35.1243H162.582V42.0114H154.582ZM161.782 35.1243H154.582V41.3227H161.782V35.1243ZM162.582 34.4356H169.782V28.2372H162.582V34.4356ZM170.582 48.2098V42.0114H177.781V48.2098H170.582ZM133.784 0H132.984V2.75485H124.984V9.64197H121.784V10.3307H124.984V24.1049H141.783V17.2178H149.783V2.75485H133.784V0ZM141.783 16.5291H148.983V10.3307H141.783V16.5291ZM148.983 9.64197H140.983V16.5291H132.984V23.4162H125.784V10.3307H133.784V3.44356H148.983V9.64197ZM133.784 17.2178H140.983V23.4162H133.784V17.2178ZM132.984 3.44356H125.784V9.64197H132.984V3.44356Z" fill="#BA5612" fill-opacity="0.5"/>
<path fill-rule="evenodd" clip-rule="evenodd" d="M182.581 103.995V104.684H121.784V103.995H132.984V101.24H124.984V94.3532H121.784V93.6645H124.984V79.8903H141.783V86.7774H149.783V101.24H133.784V103.995H169.782V101.24H153.782V86.7774H161.782V79.8903H178.581V93.6645H181.781V62.6725H178.581V76.4467H161.782V69.5596H153.782V55.0966H169.782V52.3418H170.582V55.0966H178.581V61.9838H181.781V52.3418H182.581V103.995ZM181.781 103.995V94.3532H178.581V101.24H170.582V103.995H181.781ZM154.582 62.6725V68.8709H161.782V62.6725H154.582ZM162.582 68.8709H170.582V75.758H177.781V62.6725H169.782V55.7854H154.582V61.9838H162.582V68.8709ZM162.582 69.5596V75.758H169.782V69.5596H162.582ZM170.582 61.9838H177.781V55.7854H170.582V61.9838ZM148.983 93.6645V87.4661H141.783V93.6645H148.983ZM140.983 87.4661H132.984V80.579H125.784V93.6645H133.784V100.552H148.983V94.3532H140.983V87.4661ZM140.983 86.7774V80.579H133.784V86.7774H140.983ZM132.984 94.3532H125.784V100.552H132.984V94.3532ZM154.582 94.3532V100.552H169.782V93.6645H177.781V80.579H170.582V87.4661H162.582V94.3532H154.582ZM161.782 87.4661H154.582V93.6645H161.782V87.4661ZM162.582 86.7774H169.782V80.579H162.582V86.7774ZM170.582 100.552V94.3532H177.781V100.552H170.582ZM133.784 52.3418H132.984V55.0966H124.984V61.9838H121.784V62.6725H124.984V76.4467H141.783V69.5596H149.783V55.0966H133.784V52.3418ZM141.783 68.8709H148.983V62.6725H141.783V68.8709ZM148.983 61.9838H140.983V68.8709H132.984V75.758H125.784V62.6725H133.784V55.7854H148.983V61.9838ZM133.784 69.5596H140.983V75.758H133.784V69.5596ZM132.984 55.7854H125.784V61.9838H132.984V55.7854Z" fill="#BA5612" fill-opacity="0.5"/>
<path fill-rule="evenodd" clip-rule="evenodd" d="M182.581 155.312V156H121.784V155.312H132.984V152.557H124.984V145.67H121.784V144.981H124.984V131.207H141.783V138.094H149.783V152.557H133.784V155.312H169.782V152.557H153.782V138.094H161.782V131.207H178.581V144.981H181.781V113.989H178.581V127.763H161.782V120.876H153.782V106.413H169.782V103.658H170.582V106.413H178.581V113.3H181.781V103.658H182.581V155.312ZM181.781 155.312V145.67H178.581V152.557H170.582V155.312H181.781ZM154.582 113.989V120.187H161.782V113.989H154.582ZM162.582 120.187H170.582V127.074H177.781V113.989H169.782V107.102H154.582V113.3H162.582V120.187ZM162.582 120.876V127.074H169.782V120.876H162.582ZM170.582 113.3H177.781V107.102H170.582V113.3ZM148.983 144.981V138.783H141.783V144.981H148.983ZM140.983 138.783H132.984V131.895H125.784V144.981H133.784V151.868H148.983V145.67H140.983V138.783ZM140.983 138.094V131.895H133.784V138.094H140.983ZM132.984 145.67H125.784V151.868H132.984V145.67ZM154.582 145.67V151.868H169.782V144.981H177.781V131.895H170.582V138.783H162.582V145.67H154.582ZM161.782 138.783H154.582V144.981H161.782V138.783ZM162.582 138.094H169.782V131.895H162.582V138.094ZM170.582 151.868V145.67H177.781V151.868H170.582ZM133.784 103.658H132.984V106.413H124.984V113.3H121.784V113.989H124.984V127.763H141.783V120.876H149.783V106.413H133.784V103.658ZM141.783 120.187H148.983V113.989H141.783V120.187ZM148.983 113.3H140.983V120.187H132.984V127.074H125.784V113.989H133.784V107.102H148.983V113.3ZM133.784 120.876H140.983V127.074H133.784V120.876ZM132.984 107.102H125.784V113.3H132.984V107.102Z" fill="#BA5612" fill-opacity="0.5"/>
<path fill-rule="evenodd" clip-rule="evenodd" d="M302.959 51.6534V52.3421H242.162V51.6534H253.362V48.8985H245.362V42.0114H242.162V41.3227H245.362V27.5485H262.161V34.4356H270.161V48.8985H254.161V51.6534H290.16V48.8985H274.16V34.4356H282.16V27.5485H298.959V41.3227H302.159V10.3307H298.959V24.1049H282.16V17.2178H274.16V2.75485H290.16V0H290.96V2.75485H298.959V9.64197H302.159V0H302.959V51.6534ZM302.159 51.6534V42.0114H298.959V48.8985H290.96V51.6534H302.159ZM274.96 10.3307V16.5291H282.16V10.3307H274.96ZM282.96 16.5291H290.96V23.4162H298.159V10.3307H290.16V3.44356H274.96V9.64197H282.96V16.5291ZM282.96 17.2178V23.4162H290.16V17.2178H282.96ZM290.96 9.64197H298.159V3.44356H290.96V9.64197ZM269.361 41.3227V35.1243H262.161V41.3227H269.361ZM261.361 35.1243H253.362V28.2372H246.162V41.3227H254.161V48.2098H269.361V42.0114H261.361V35.1243ZM261.361 34.4356V28.2372H254.161V34.4356H261.361ZM253.362 42.0114H246.162V48.2098H253.362V42.0114ZM274.96 42.0114V48.2098H290.16V41.3227H298.159V28.2372H290.96V35.1243H282.96V42.0114H274.96ZM282.16 35.1243H274.96V41.3227H282.16V35.1243ZM282.96 34.4356H290.16V28.2372H282.96V34.4356ZM290.96 48.2098V42.0114H298.159V48.2098H290.96ZM254.161 0H253.362V2.75485H245.362V9.64197H242.162V10.3307H245.362V24.1049H262.161V17.2178H270.161V2.75485H254.161V0ZM262.161 16.5291H269.361V10.3307H262.161V16.5291ZM269.361 9.64197H261.361V16.5291H253.362V23.4162H246.162V10.3307H254.161V3.44356H269.361V9.64197ZM254.161 17.2178H261.361V23.4162H254.161V17.2178ZM253.362 3.44356H246.162V9.64197H253.362V3.44356Z" fill="#BA5612" fill-opacity="0.5"/>
<path fill-rule="evenodd" clip-rule="evenodd" d="M302.959 103.995V104.684H242.162V103.995H253.362V101.24H245.362V94.3532H242.162V93.6645H245.362V79.8903H262.161V86.7774H270.161V101.24H254.161V103.995H290.16V101.24H274.16V86.7774H282.16V79.8903H298.959V93.6645H302.159V62.6725H298.959V76.4467H282.16V69.5596H274.16V55.0966H290.16V52.3418H290.96V55.0966H298.959V61.9838H302.159V52.3418H302.959V103.995ZM302.159 103.995V94.3532H298.959V101.24H290.96V103.995H302.159ZM274.96 62.6725V68.8709H282.16V62.6725H274.96ZM282.96 68.8709H290.96V75.758H298.159V62.6725H290.16V55.7854H274.96V61.9838H282.96V68.8709ZM282.96 69.5596V75.758H290.16V69.5596H282.96ZM290.96 61.9838H298.159V55.7854H290.96V61.9838ZM269.361 93.6645V87.4661H262.161V93.6645H269.361ZM261.361 87.4661H253.362V80.579H246.162V93.6645H254.161V100.552H269.361V94.3532H261.361V87.4661ZM261.361 86.7774V80.579H254.161V86.7774H261.361ZM253.362 94.3532H246.162V100.552H253.362V94.3532ZM274.96 94.3532V100.552H290.16V93.6645H298.159V80.579H290.96V87.4661H282.96V94.3532H274.96ZM282.16 87.4661H274.96V93.6645H282.16V87.4661ZM282.96 86.7774H290.16V80.579H282.96V86.7774ZM290.96 100.552V94.3532H298.159V100.552H290.96ZM254.161 52.3418H253.362V55.0966H245.362V61.9838H242.162V62.6725H245.362V76.4467H262.161V69.5596H270.161V55.0966H254.161V52.3418ZM262.161 68.8709H269.361V62.6725H262.161V68.8709ZM269.361 61.9838H261.361V68.8709H253.362V75.758H246.162V62.6725H254.161V55.7854H269.361V61.9838ZM254.161 69.5596H261.361V75.758H254.161V69.5596ZM253.362 55.7854H246.162V61.9838H253.362V55.7854Z" fill="#BA5612" fill-opacity="0.5"/>
<path fill-rule="evenodd" clip-rule="evenodd" d="M302.959 155.312V156H242.162V155.312H253.362V152.557H245.362V145.67H242.162V144.981H245.362V131.207H262.161V138.094H270.161V152.557H254.161V155.312H290.16V152.557H274.16V138.094H282.16V131.207H298.959V144.981H302.159V113.989H298.959V127.763H282.16V120.876H274.16V106.413H290.16V103.658H290.96V106.413H298.959V113.3H302.159V103.658H302.959V155.312ZM302.159 155.312V145.67H298.959V152.557H290.96V155.312H302.159ZM274.96 113.989V120.187H282.16V113.989H274.96ZM282.96 120.187H290.96V127.074H298.159V113.989H290.16V107.102H274.96V113.3H282.96V120.187ZM282.96 120.876V127.074H290.16V120.876H282.96ZM290.96 113.3H298.159V107.102H290.96V113.3ZM269.361 144.981V138.783H262.161V144.981H269.361ZM261.361 138.783H253.362V131.895H246.162V144.981H254.161V151.868H269.361V145.67H261.361V138.783ZM261.361 138.094V131.895H254.161V138.094H261.361ZM253.362 145.67H246.162V151.868H253.362V145.67ZM274.96 145.67V151.868H290.16V144.981H298.159V131.895H290.96V138.783H282.96V145.67H274.96ZM282.16 138.783H274.96V144.981H282.16V138.783ZM282.96 138.094H290.16V131.895H282.96V138.094ZM290.96 151.868V145.67H298.159V151.868H290.96ZM254.161 103.658H253.362V106.413H245.362V113.3H242.162V113.989H245.362V127.763H262.161V120.876H270.161V106.413H254.161V103.658ZM262.161 120.187H269.361V113.989H262.161V120.187ZM269.361 113.3H261.361V120.187H253.362V127.074H246.162V113.989H254.161V107.102H269.361V113.3ZM254.161 120.876H261.361V127.074H254.161V120.876ZM253.362 107.102H246.162V113.3H253.362V107.102Z" fill="#BA5612" fill-opacity="0.5"/>
<path fill-rule="evenodd" clip-rule="evenodd" d="M121.784 51.6534V52.3421H60.9873V51.6534H72.1867V48.8985H64.1871V42.0114H60.9873V41.3227H64.1871V27.5485H80.9862V34.4356H88.9858V48.8985H72.9867V51.6534H108.985V48.8985H92.9856V34.4356H100.985V27.5485H117.784V41.3227H120.984V10.3307H117.784V24.1049H100.985V17.2178H92.9856V2.75485H108.985V0H109.785V2.75485H117.784V9.64197H120.984V0H121.784V51.6534ZM120.984 51.6534V42.0114H117.784V48.8985H109.785V51.6534H120.984ZM93.7856 10.3307V16.5291H100.985V10.3307H93.7856ZM101.785 16.5291H109.785V23.4162H116.984V10.3307H108.985V3.44356H93.7856V9.64197H101.785V16.5291ZM101.785 17.2178V23.4162H108.985V17.2178H101.785ZM109.785 9.64197H116.984V3.44356H109.785V9.64197ZM88.1859 41.3227V35.1243H80.9862V41.3227H88.1859ZM80.1863 35.1243H72.1867V28.2372H64.9871V41.3227H72.9867V48.2098H88.1859V42.0114H80.1863V35.1243ZM80.1863 34.4356V28.2372H72.9867V34.4356H80.1863ZM72.1867 42.0114H64.9871V48.2098H72.1867V42.0114ZM93.7856 42.0114V48.2098H108.985V41.3227H116.984V28.2372H109.785V35.1243H101.785V42.0114H93.7856ZM100.985 35.1243H93.7856V41.3227H100.985V35.1243ZM101.785 34.4356H108.985V28.2372H101.785V34.4356ZM109.785 48.2098V42.0114H116.984V48.2098H109.785ZM72.9867 0H72.1867V2.75485H64.1871V9.64197H60.9873V10.3307H64.1871V24.1049H80.9862V17.2178H88.9858V2.75485H72.9867V0ZM80.9862 16.5291H88.1859V10.3307H80.9862V16.5291ZM88.1859 9.64197H80.1863V16.5291H72.1867V23.4162H64.9871V10.3307H72.9867V3.44356H88.1859V9.64197ZM72.9867 17.2178H80.1863V23.4162H72.9867V17.2178ZM72.1867 3.44356H64.9871V9.64197H72.1867V3.44356Z" fill="#BA5612" fill-opacity="0.5"/>
<path fill-rule="evenodd" clip-rule="evenodd" d="M121.784 103.995V104.684H60.9873V103.995H72.1867V101.24H64.1871V94.3532H60.9873V93.6645H64.1871V79.8903H80.9862V86.7774H88.9858V101.24H72.9867V103.995H108.985V101.24H92.9856V86.7774H100.985V79.8903H117.784V93.6645H120.984V62.6725H117.784V76.4467H100.985V69.5596H92.9856V55.0966H108.985V52.3418H109.785V55.0966H117.784V61.9838H120.984V52.3418H121.784V103.995ZM120.984 103.995V94.3532H117.784V101.24H109.785V103.995H120.984ZM93.7856 62.6725V68.8709H100.985V62.6725H93.7856ZM101.785 68.8709H109.785V75.758H116.984V62.6725H108.985V55.7854H93.7856V61.9838H101.785V68.8709ZM101.785 69.5596V75.758H108.985V69.5596H101.785ZM109.785 61.9838H116.984V55.7854H109.785V61.9838ZM88.1859 93.6645V87.4661H80.9862V93.6645H88.1859ZM80.1863 87.4661H72.1867V80.579H64.9871V93.6645H72.9867V100.552H88.1859V94.3532H80.1863V87.4661ZM80.1863 86.7774V80.579H72.9867V86.7774H80.1863ZM72.1867 94.3532H64.9871V100.552H72.1867V94.3532ZM93.7856 94.3532V100.552H108.985V93.6645H116.984V80.579H109.785V87.4661H101.785V94.3532H93.7856ZM100.985 87.4661H93.7856V93.6645H100.985V87.4661ZM101.785 86.7774H108.985V80.579H101.785V86.7774ZM109.785 100.552V94.3532H116.984V100.552H109.785ZM72.9867 52.3418H72.1867V55.0966H64.1871V61.9838H60.9873V62.6725H64.1871V76.4467H80.9862V69.5596H88.9858V55.0966H72.9867V52.3418ZM80.9862 68.8709H88.1859V62.6725H80.9862V68.8709ZM88.1859 61.9838H80.1863V68.8709H72.1867V75.758H64.9871V62.6725H72.9867V55.7854H88.1859V61.9838ZM72.9867 69.5596H80.1863V75.758H72.9867V69.5596ZM72.1867 55.7854H64.9871V61.9838H72.1867V55.7854Z" fill="#BA5612" fill-opacity="0.5"/>
<path fill-rule="evenodd" clip-rule="evenodd" d="M121.784 155.312V156H60.9873V155.312H72.1867V152.557H64.1871V145.67H60.9873V144.981H64.1871V131.207H80.9862V138.094H88.9858V152.557H72.9867V155.312H108.985V152.557H92.9856V138.094H100.985V131.207H117.784V144.981H120.984V113.989H117.784V127.763H100.985V120.876H92.9856V106.413H108.985V103.658H109.785V106.413H117.784V113.3H120.984V103.658H121.784V155.312ZM120.984 155.312V145.67H117.784V152.557H109.785V155.312H120.984ZM93.7856 113.989V120.187H100.985V113.989H93.7856ZM101.785 120.187H109.785V127.074H116.984V113.989H108.985V107.102H93.7856V113.3H101.785V120.187ZM101.785 120.876V127.074H108.985V120.876H101.785ZM109.785 113.3H116.984V107.102H109.785V113.3ZM88.1859 144.981V138.783H80.9862V144.981H88.1859ZM80.1863 138.783H72.1867V131.895H64.9871V144.981H72.9867V151.868H88.1859V145.67H80.1863V138.783ZM80.1863 138.094V131.895H72.9867V138.094H80.1863ZM72.1867 145.67H64.9871V151.868H72.1867V145.67ZM93.7856 145.67V151.868H108.985V144.981H116.984V131.895H109.785V138.783H101.785V145.67H93.7856ZM100.985 138.783H93.7856V144.981H100.985V138.783ZM101.785 138.094H108.985V131.895H101.785V138.094ZM109.785 151.868V145.67H116.984V151.868H109.785ZM72.9867 103.658H72.1867V106.413H64.1871V113.3H60.9873V113.989H64.1871V127.763H80.9862V120.876H88.9858V106.413H72.9867V103.658ZM80.9862 120.187H88.1859V113.989H80.9862V120.187ZM88.1859 113.3H80.1863V120.187H72.1867V127.074H64.9871V113.989H72.9867V107.102H88.1859V113.3ZM72.9867 120.876H80.1863V127.074H72.9867V120.876ZM72.1867 107.102H64.9871V113.3H72.1867V107.102Z" fill="#BA5612" fill-opacity="0.5"/>
<path fill-rule="evenodd" clip-rule="evenodd" d="M243.378 51.6534V52.3421H182.581V51.6534H193.78V48.8985H185.781V42.0114H182.581V41.3227H185.781V27.5485H202.58V34.4356H210.58V48.8985H194.58V51.6534H230.579V48.8985H214.579V34.4356H222.579V27.5485H239.378V41.3227H242.578V10.3307H239.378V24.1049H222.579V17.2178H214.579V2.75485H230.579V0H231.378V2.75485H239.378V9.64197H242.578V0H243.378V51.6534ZM242.578 51.6534V42.0114H239.378V48.8985H231.378V51.6534H242.578ZM215.379 10.3307V16.5291H222.579V10.3307H215.379ZM223.379 16.5291H231.378V23.4162H238.578V10.3307H230.579V3.44356H215.379V9.64197H223.379V16.5291ZM223.379 17.2178V23.4162H230.579V17.2178H223.379ZM231.378 9.64197H238.578V3.44356H231.378V9.64197ZM209.78 41.3227V35.1243H202.58V41.3227H209.78ZM201.78 35.1243H193.78V28.2372H186.581V41.3227H194.58V48.2098H209.78V42.0114H201.78V35.1243ZM201.78 34.4356V28.2372H194.58V34.4356H201.78ZM193.78 42.0114H186.581V48.2098H193.78V42.0114ZM215.379 42.0114V48.2098H230.579V41.3227H238.578V28.2372H231.378V35.1243H223.379V42.0114H215.379ZM222.579 35.1243H215.379V41.3227H222.579V35.1243ZM223.379 34.4356H230.579V28.2372H223.379V34.4356ZM231.378 48.2098V42.0114H238.578V48.2098H231.378ZM194.58 0H193.78V2.75485H185.781V9.64197H182.581V10.3307H185.781V24.1049H202.58V17.2178H210.58V2.75485H194.58V0ZM202.58 16.5291H209.78V10.3307H202.58V16.5291ZM209.78 9.64197H201.78V16.5291H193.78V23.4162H186.581V10.3307H194.58V3.44356H209.78V9.64197ZM194.58 17.2178H201.78V23.4162H194.58V17.2178ZM193.78 3.44356H186.581V9.64197H193.78V3.44356Z" fill="#BA5612" fill-opacity="0.5"/>
<path fill-rule="evenodd" clip-rule="evenodd" d="M243.378 103.995V104.684H182.581V103.995H193.78V101.24H185.781V94.3532H182.581V93.6645H185.781V79.8903H202.58V86.7774H210.58V101.24H194.58V103.995H230.579V101.24H214.579V86.7774H222.579V79.8903H239.378V93.6645H242.578V62.6725H239.378V76.4467H222.579V69.5596H214.579V55.0966H230.579V52.3418H231.378V55.0966H239.378V61.9838H242.578V52.3418H243.378V103.995ZM242.578 103.995V94.3532H239.378V101.24H231.378V103.995H242.578ZM215.379 62.6725V68.8709H222.579V62.6725H215.379ZM223.379 68.8709H231.378V75.758H238.578V62.6725H230.579V55.7854H215.379V61.9838H223.379V68.8709ZM223.379 69.5596V75.758H230.579V69.5596H223.379ZM231.378 61.9838H238.578V55.7854H231.378V61.9838ZM209.78 93.6645V87.4661H202.58V93.6645H209.78ZM201.78 87.4661H193.78V80.579H186.581V93.6645H194.58V100.552H209.78V94.3532H201.78V87.4661ZM201.78 86.7774V80.579H194.58V86.7774H201.78ZM193.78 94.3532H186.581V100.552H193.78V94.3532ZM215.379 94.3532V100.552H230.579V93.6645H238.578V80.579H231.378V87.4661H223.379V94.3532H215.379ZM222.579 87.4661H215.379V93.6645H222.579V87.4661ZM223.379 86.7774H230.579V80.579H223.379V86.7774ZM231.378 100.552V94.3532H238.578V100.552H231.378ZM194.58 52.3418H193.78V55.0966H185.781V61.9838H182.581V62.6725H185.781V76.4467H202.58V69.5596H210.58V55.0966H194.58V52.3418ZM202.58 68.8709H209.78V62.6725H202.58V68.8709ZM209.78 61.9838H201.78V68.8709H193.78V75.758H186.581V62.6725H194.58V55.7854H209.78V61.9838ZM194.58 69.5596H201.78V75.758H194.58V69.5596ZM193.78 55.7854H186.581V61.9838H193.78V55.7854Z" fill="#BA5612" fill-opacity="0.5"/>
<path fill-rule="evenodd" clip-rule="evenodd" d="M243.378 155.312V156H182.581V155.312H193.78V152.557H185.781V145.67H182.581V144.981H185.781V131.207H202.58V138.094H210.58V152.557H194.58V155.312H230.579V152.557H214.579V138.094H222.579V131.207H239.378V144.981H242.578V113.989H239.378V127.763H222.579V120.876H214.579V106.413H230.579V103.658H231.378V106.413H239.378V113.3H242.578V103.658H243.378V155.312ZM242.578 155.312V145.67H239.378V152.557H231.378V155.312H242.578ZM215.379 113.989V120.187H222.579V113.989H215.379ZM223.379 120.187H231.378V127.074H238.578V113.989H230.579V107.102H215.379V113.3H223.379V120.187ZM223.379 120.876V127.074H230.579V120.876H223.379ZM231.378 113.3H238.578V107.102H231.378V113.3ZM209.78 144.981V138.783H202.58V144.981H209.78ZM201.78 138.783H193.78V131.895H186.581V144.981H194.58V151.868H209.78V145.67H201.78V138.783ZM201.78 138.094V131.895H194.58V138.094H201.78ZM193.78 145.67H186.581V151.868H193.78V145.67ZM215.379 145.67V151.868H230.579V144.981H238.578V131.895H231.378V138.783H223.379V145.67H215.379ZM222.579 138.783H215.379V144.981H222.579V138.783ZM223.379 138.094H230.579V131.895H223.379V138.094ZM231.378 151.868V145.67H238.578V151.868H231.378ZM194.58 103.658H193.78V106.413H185.781V113.3H182.581V113.989H185.781V127.763H202.58V120.876H210.58V106.413H194.58V103.658ZM202.58 120.187H209.78V113.989H202.58V120.187ZM209.78 113.3H201.78V120.187H193.78V127.074H186.581V113.989H194.58V107.102H209.78V113.3ZM194.58 120.876H201.78V127.074H194.58V120.876ZM193.78 107.102H186.581V113.3H193.78V107.102Z" fill="#BA5612" fill-opacity="0.5"/>
<path fill-rule="evenodd" clip-rule="evenodd" d="M301.87 51.6534V52.3421H362.667V51.6534H351.468V48.8985H359.467V42.0114H362.667V41.3227H359.467V27.5485H342.668V34.4356H334.668V48.8985H350.668V51.6534H314.67V48.8985H330.669V34.4356H322.669V27.5485H305.87V41.3227H302.67V10.3307H305.87V24.1049H322.669V17.2178H330.669V2.75485H314.67V0H313.87V2.75485H305.87V9.64197H302.67V0H301.87V51.6534ZM302.67 51.6534V42.0114H305.87V48.8985H313.87V51.6534H302.67ZM329.869 10.3307V16.5291H322.669V10.3307H329.869ZM321.869 16.5291H313.87V23.4162H306.67V10.3307H314.67V3.44356H329.869V9.64197H321.869V16.5291ZM321.869 17.2178V23.4162H314.67V17.2178H321.869ZM313.87 9.64197H306.67V3.44356H313.87V9.64197ZM335.468 41.3227V35.1243H342.668V41.3227H335.468ZM343.468 35.1243H351.468V28.2372H358.667V41.3227H350.668V48.2098H335.468V42.0114H343.468V35.1243ZM343.468 34.4356V28.2372H350.668V34.4356H343.468ZM351.468 42.0114H358.667V48.2098H351.468V42.0114ZM329.869 42.0114V48.2098H314.67V41.3227H306.67V28.2372H313.87V35.1243H321.869V42.0114H329.869ZM322.669 35.1243H329.869V41.3227H322.669V35.1243ZM321.869 34.4356H314.67V28.2372H321.869V34.4356ZM313.87 48.2098V42.0114H306.67V48.2098H313.87ZM350.668 0H351.468V2.75485H359.467V9.64197H362.667V10.3307H359.467V24.1049H342.668V17.2178H334.668V2.75485H350.668V0ZM342.668 16.5291H335.468V10.3307H342.668V16.5291ZM335.468 9.64197H343.468V16.5291H351.468V23.4162H358.667V10.3307H350.668V3.44356H335.468V9.64197ZM350.668 17.2178H343.468V23.4162H350.668V17.2178ZM351.468 3.44356H358.667V9.64197H351.468V3.44356Z" fill="#BA5612" fill-opacity="0.5"/>
<path fill-rule="evenodd" clip-rule="evenodd" d="M301.87 52.0048V51.3161H362.667V52.0048H351.468V54.7597H359.467V61.6468H362.667V62.3355H359.467V76.1097H342.668V69.2226H334.668V54.7597H350.668V52.0048H314.67V54.7597H330.669V69.2226H322.669V76.1097H305.87V62.3355H302.67V93.3275H305.87V79.5533H322.669V86.4404H330.669V100.903H314.67V103.658H313.87V100.903H305.87V94.0162H302.67V103.658H301.87V52.0048ZM302.67 52.0048V61.6468H305.87V54.7597H313.87V52.0048H302.67ZM329.869 93.3275V87.1291H322.669V93.3275H329.869ZM321.869 87.1291H313.87V80.242H306.67V93.3275H314.67V100.215H329.869V94.0162H321.869V87.1291ZM321.869 86.4404V80.242H314.67V86.4404H321.869ZM313.87 94.0162H306.67V100.215H313.87V94.0162ZM335.468 62.3355V68.5339H342.668V62.3355H335.468ZM343.468 68.5339H351.468V75.421H358.667V62.3355H350.668V55.4484H335.468V61.6468H343.468V68.5339ZM343.468 69.2226V75.421H350.668V69.2226H343.468ZM351.468 61.6468H358.667V55.4484H351.468V61.6468ZM329.869 61.6468V55.4484H314.67V62.3355H306.67V75.421H313.87V68.5339H321.869V61.6468H329.869ZM322.669 68.5339H329.869V62.3355H322.669V68.5339ZM321.869 69.2226H314.67V75.421H321.869V69.2226ZM313.87 55.4484V61.6468H306.67V55.4484H313.87ZM350.668 103.658H351.468V100.903H359.467V94.0162H362.667V93.3275H359.467V79.5533H342.668V86.4404H334.668V100.903H350.668V103.658ZM342.668 87.1291H335.468V93.3275H342.668V87.1291ZM335.468 94.0162H343.468V87.1291H351.468V80.242H358.667V93.3275H350.668V100.215H335.468V94.0162ZM350.668 86.4404H343.468V80.242H350.668V86.4404ZM351.468 100.215H358.667V94.0162H351.468V100.215Z" fill="#BA5612" fill-opacity="0.5"/>
<path fill-rule="evenodd" clip-rule="evenodd" d="M301.87 104.347V103.658H362.667V104.347H351.468V107.101H359.467V113.989H362.667V114.677H359.467V128.452H342.668V121.564H334.668V107.101H350.668V104.347H314.67V107.101H330.669V121.564H322.669V128.452H305.87V114.677H302.67V145.669H305.87V131.895H322.669V138.782H330.669V153.245H314.67V156H313.87V153.245H305.87V146.358H302.67V156H301.87V104.347ZM302.67 104.347V113.989H305.87V107.101H313.87V104.347H302.67ZM329.869 145.669V139.471H322.669V145.669H329.869ZM321.869 139.471H313.87V132.584H306.67V145.669H314.67V152.556H329.869V146.358H321.869V139.471ZM321.869 138.782V132.584H314.67V138.782H321.869ZM313.87 146.358H306.67V152.556H313.87V146.358ZM335.468 114.677V120.876H342.668V114.677H335.468ZM343.468 120.876H351.468V127.763H358.667V114.677H350.668V107.79H335.468V113.989H343.468V120.876ZM343.468 121.564V127.763H350.668V121.564H343.468ZM351.468 113.989H358.667V107.79H351.468V113.989ZM329.869 113.989V107.79H314.67V114.677H306.67V127.763H313.87V120.876H321.869V113.989H329.869ZM322.669 120.876H329.869V114.677H322.669V120.876ZM321.869 121.564H314.67V127.763H321.869V121.564ZM313.87 107.79V113.989H306.67V107.79H313.87ZM350.668 156H351.468V153.245H359.467V146.358H362.667V145.669H359.467V131.895H342.668V138.782H334.668V153.245H350.668V156ZM342.668 139.471H335.468V145.669H342.668V139.471ZM335.468 146.358H343.468V139.471H351.468V132.584H358.667V145.669H350.668V152.556H335.468V146.358ZM350.668 138.782H343.468V132.584H350.668V138.782ZM351.468 152.556H358.667V146.358H351.468V152.556Z" fill="#BA5612" fill-opacity="0.5"/>
</svg>
