<svg width="232" height="192" viewBox="0 0 232 192" fill="none" xmlns="http://www.w3.org/2000/svg">
<g opacity="0.1">
<path d="M232 170.133H0V191.883H232V170.133Z" fill="#3474E0"/>
<path d="M126.635 90.8672H104.885V150.801H126.635V90.8672Z" fill="#3474E0"/>
<path d="M211.699 42.5332H189.949V150.8H211.699V42.5332Z" fill="#3474E0"/>
<path d="M84.584 66.6992H62.834V150.799H84.584V66.6992Z" fill="#3474E0"/>
<path d="M42.0508 90.8672H20.3008V150.801H42.0508V90.8672Z" fill="#3474E0"/>
<path d="M169.166 76.3672H147.416V150.801H169.166V76.3672Z" fill="#3474E0"/>
<path d="M27.0668 69.6L68.1502 32.3833L111.65 72.0167C112.617 72.9833 113.584 73.4667 115.034 73.4667C116 73.4667 117.45 72.9833 118.417 72.0167L178.35 17.4L174.967 37.2167C174.967 43.0167 179.317 43.0167 179.8 43.0167C182.217 43.0167 184.15 41.0833 184.634 39.15L189.95 5.8C189.95 4.35 189.467 2.9 188.5 1.45C187.534 0.483334 186.084 0 184.15 0L150.8 5.31667C148.384 5.8 146.45 8.21667 146.934 10.6333C147.417 13.05 149.834 14.9833 152.25 14.5L169.65 11.6L114.55 61.8667L71.0502 22.2333C69.1168 20.7833 66.2168 20.7833 64.7668 22.2333L20.7835 62.35C18.8502 64.2833 18.8502 67.1833 20.3002 69.1167C22.2335 71.5333 25.1335 71.5333 27.0668 69.6Z" fill="#3474E0"/>
</g>
</svg>
