<svg width="24" height="24" viewBox="0 0 24 24" fill="none" xmlns="http://www.w3.org/2000/svg">
<path d="M12.0018 23.8104C18.5246 23.8104 23.8123 18.5227 23.8123 12C23.8123 5.47728 18.5246 0.189575 12.0018 0.189575C5.47911 0.189575 0.191406 5.47728 0.191406 12C0.191406 18.5227 5.47911 23.8104 12.0018 23.8104Z" fill="#F0CD3B"/>
<path d="M12.0025 15.7536C11.4907 15.7536 11.0547 15.3365 11.0547 14.8247V6.5782C11.0547 6.06635 11.4907 5.64929 12.0025 5.64929C12.5144 5.64929 12.9504 6.06635 12.9504 6.5782V14.8247C12.9504 15.3365 12.5144 15.7536 12.0025 15.7536Z" fill="#F4EFEF"/>
<path d="M12.0031 18.7487C11.7567 18.7487 11.5102 18.6539 11.3396 18.4833C11.169 18.3127 11.0742 18.0663 11.0742 17.8198C11.0742 17.5734 11.169 17.3269 11.3396 17.1563C11.5102 16.9857 11.7567 16.8719 12.0031 16.8719C12.2496 16.8719 12.496 16.9667 12.6666 17.1563C12.8373 17.3269 12.951 17.5734 12.951 17.8198C12.951 18.0663 12.8562 18.3127 12.6666 18.4833C12.496 18.6539 12.2496 18.7487 12.0031 18.7487Z" fill="#F4EFEF"/>
<path d="M12 24C5.38389 24 0 18.6161 0 12C0 5.38389 5.38389 0 12 0C18.6161 0 24 5.38389 24 12C24 18.6161 18.6161 24 12 24ZM12 0.379147C5.59242 0.379147 0.379147 5.59242 0.379147 12C0.379147 18.4076 5.59242 23.6209 12 23.6209C18.4076 23.6209 23.6209 18.4076 23.6209 12C23.6209 5.59242 18.4076 0.379147 12 0.379147Z" fill="white"/>
<path d="M11.8093 15.9431C11.1837 15.9431 10.6719 15.4313 10.6719 14.8246V6.5782C10.6719 5.95261 11.1837 5.45972 11.8093 5.45972C12.4349 5.45972 12.9467 5.97156 12.9467 6.5782V14.8246C12.9467 15.4313 12.4349 15.9431 11.8093 15.9431ZM11.8093 5.81991C11.3922 5.81991 11.051 6.16114 11.051 6.55924V14.8057C11.051 15.2227 11.3922 15.545 11.8093 15.545C12.2264 15.545 12.5676 15.2038 12.5676 14.8057V6.55924C12.5676 6.16114 12.2264 5.81991 11.8093 5.81991Z" fill="white"/>
<path d="M11.8099 18.9385C11.5066 18.9385 11.2222 18.8248 11.0137 18.6162C10.8051 18.4077 10.6914 18.1233 10.6914 17.82C10.6914 17.5167 10.8051 17.2323 11.0137 17.0238C11.2222 16.8153 11.5255 16.7015 11.8099 16.7015C12.1132 16.7015 12.3976 16.8153 12.6061 17.0238C12.8146 17.2323 12.9284 17.5167 12.9284 17.82C12.9284 18.1233 12.8146 18.4077 12.5871 18.6162C12.3976 18.8248 12.1132 18.9385 11.8099 18.9385ZM11.8099 17.0617C11.6203 17.0617 11.4118 17.1376 11.2791 17.2892C11.1464 17.4219 11.0706 17.6115 11.0706 17.82C11.0706 18.0096 11.1464 18.2181 11.298 18.3508C11.4307 18.4835 11.6393 18.5783 11.8288 18.5783C12.0184 18.5783 12.227 18.5025 12.3597 18.3508C12.4924 18.2181 12.5871 18.0096 12.5871 17.82C12.5871 17.6304 12.5113 17.4219 12.3597 17.2892C12.189 17.1376 11.9995 17.0617 11.8099 17.0617Z" fill="white"/>
</svg>
