<svg width="48" height="48" viewBox="0 0 48 48" fill="none" xmlns="http://www.w3.org/2000/svg">
<circle cx="24" cy="24" r="24" fill="#C5DFFF"/>
<path d="M25.5469 27C25.0291 27 24.6094 27.4197 24.6094 27.9375C24.6094 28.4553 25.0291 28.875 25.5469 28.875H26.8594C27.3772 28.875 27.7969 28.4553 27.7969 27.9375C27.7969 27.4197 27.3772 27 26.8594 27H25.5469Z" fill="#044472"/>
<path d="M35.0625 25.1307C35.5803 25.1307 36 24.711 36 24.1932V18.75C36 16.6823 34.3177 15 32.25 15H15.75C13.6823 15 12 16.6823 12 18.75V28.875C12 30.9427 13.6823 32.625 15.75 32.625H32.25C34.3177 32.625 36 30.9427 36 28.875C36 28.3572 35.5803 27.9375 35.0625 27.9375C34.5447 27.9375 34.125 28.3572 34.125 28.875C34.125 29.9089 33.2839 30.75 32.25 30.75H15.75C14.7161 30.75 13.875 29.9089 13.875 28.875V18.75C13.875 17.7161 14.7161 16.875 15.75 16.875H32.25C33.2839 16.875 34.125 17.7161 34.125 18.75V24.1932C34.125 24.711 34.5447 25.1307 35.0625 25.1307Z" fill="#044472"/>
<path d="M31.3594 27H30.0469C29.5291 27 29.1094 27.4197 29.1094 27.9375C29.1094 28.4553 29.5291 28.875 30.0469 28.875H31.3594C31.8772 28.875 32.2969 28.4553 32.2969 27.9375C32.2969 27.4197 31.8772 27 31.3594 27Z" fill="#044472"/>
<path d="M21.0469 28.875H22.3594C22.8772 28.875 23.2969 28.4553 23.2969 27.9375C23.2969 27.4197 22.8772 27 22.3594 27H21.0469C20.5291 27 20.1094 27.4197 20.1094 27.9375C20.1094 28.4553 20.5291 28.875 21.0469 28.875Z" fill="#044472"/>
<path d="M21.2812 23.9111V20.1611C21.2812 19.6434 20.8615 19.2236 20.3438 19.2236H16.5938C16.076 19.2236 15.6562 19.6434 15.6562 20.1611V23.9111C15.6562 24.4289 16.076 24.8486 16.5938 24.8486H20.3438C20.8615 24.8486 21.2812 24.4289 21.2812 23.9111ZM19.4062 22.9736H17.5312V21.0986H19.4062V22.9736Z" fill="#044472"/>
<path d="M16.5469 27C16.0291 27 15.6094 27.4197 15.6094 27.9375C15.6094 28.4553 16.0291 28.875 16.5469 28.875H17.8594C18.3772 28.875 18.7969 28.4553 18.7969 27.9375C18.7969 27.4197 18.3772 27 17.8594 27H16.5469Z" fill="#044472"/>
</svg>
