<svg width="40" height="40" viewBox="0 0 40 40" fill="none" xmlns="http://www.w3.org/2000/svg">
<circle cx="20" cy="20" r="20" fill="#F5F5F5"/>
<path d="M29.2364 13.699L16.9874 11.1068C16.4691 10.9971 15.9555 11.3315 15.8458 11.8497L15.6131 13.3452L29.7464 16.336L29.9791 14.8405C30.0888 14.3225 29.7546 13.8087 29.2364 13.699Z" fill="#141414"/>
<path d="M24.0854 16.653C23.9423 16.1377 23.4039 15.8332 22.8888 15.976L20.5635 16.6216L15.0817 15.4614L14.4788 18.31L10.712 19.3555C10.1969 19.4983 9.89239 20.0368 10.0352 20.5519L12.1581 28.2015C12.3011 28.7165 12.8396 29.0213 13.3546 28.8782L25.5314 25.499C26.0465 25.356 26.351 24.8177 26.2082 24.3025L25.8438 22.9893L27.2095 23.278C27.7277 23.3878 28.2414 23.0535 28.351 22.5352L29.215 18.4523L24.2959 17.4113L24.0854 16.653ZM25.4916 20.5408L25.7928 19.1176C25.838 18.9045 26.0493 18.767 26.2624 18.812L27.6856 19.1133C27.8989 19.1586 28.0364 19.3697 27.9914 19.583L27.6903 21.0062C27.645 21.2193 27.4338 21.357 27.2206 21.3118L25.7974 21.0106C25.5839 20.9653 25.4464 20.7539 25.4916 20.5408ZM10.9239 20.1188L14.2937 19.184L22.2447 16.9775L23.1003 16.7398C23.1159 16.7356 23.1315 16.7336 23.1467 16.7336C23.2153 16.7336 23.2974 16.7787 23.3214 16.8649L23.4218 17.2267L23.7366 18.3608L11.214 21.8358L10.7988 20.3402C10.7728 20.2463 10.83 20.1449 10.9239 20.1188ZM25.4446 24.5141C25.4606 24.5722 25.4438 24.6202 25.4268 24.6502C25.41 24.6802 25.3776 24.7195 25.3195 24.7354L13.1429 28.1146C13.1275 28.1189 13.1117 28.1211 13.0965 28.1211C13.0279 28.1211 12.9458 28.0758 12.9218 27.9896L11.6836 23.5277L24.2062 20.0524L24.97 22.8043L25.4446 24.5141Z" fill="#141414"/>
<path d="M15.1107 24.8198C15.0522 24.6097 14.8329 24.4857 14.6228 24.5439L13.2007 24.9387C12.9908 24.9969 12.8666 25.2164 12.925 25.4265L13.3196 26.8484C13.378 27.0585 13.5974 27.1825 13.8074 27.1241L15.2295 26.7295C15.4396 26.6713 15.5637 26.4518 15.5054 26.2417L15.1107 24.8198Z" fill="#141414"/>
</svg>
