<svg width="40" height="40" viewBox="0 0 40 40" fill="none" xmlns="http://www.w3.org/2000/svg">
<circle cx="20" cy="20" r="20" fill="#F5F5F5"/>
<path d="M12 26.4H28V28H12V26.4ZM13.6 20H15.2V25.6H13.6V20ZM17.6 20H19.2V25.6H17.6V20ZM20.8 20H22.4V25.6H20.8V20ZM24.8 20H26.4V25.6H24.8V20ZM12 16L20 12L28 16V19.2H12V16ZM20 16.8C20.2122 16.8 20.4157 16.7157 20.5657 16.5657C20.7157 16.4157 20.8 16.2122 20.8 16C20.8 15.7878 20.7157 15.5843 20.5657 15.4343C20.4157 15.2843 20.2122 15.2 20 15.2C19.7878 15.2 19.5843 15.2843 19.4343 15.4343C19.2843 15.5843 19.2 15.7878 19.2 16C19.2 16.2122 19.2843 16.4157 19.4343 16.5657C19.5843 16.7157 19.7878 16.8 20 16.8Z" fill="#141414"/>
</svg>
