<svg width="52" height="52" viewBox="0 0 52 52" fill="none" xmlns="http://www.w3.org/2000/svg">
<circle cx="26" cy="26" r="26" fill="#EEF0FF"/>
<path d="M26.0943 18.9528C26.6161 18.9528 27.0392 18.5297 27.0392 18.0079C27.0392 17.486 26.6161 17.063 26.0943 17.063C25.5725 17.063 25.1494 17.486 25.1494 18.0079C25.1494 18.5297 25.5725 18.9528 26.0943 18.9528Z" fill="#3A4080"/>
<path d="M37.2441 35.1104H14.9449C14.423 35.1104 14 35.5334 14 36.0552C14 36.5771 14.423 37.0001 14.9449 37.0001H37.2441C37.766 37.0001 38.189 36.5771 38.189 36.0552C38.189 35.5334 37.766 35.1104 37.2441 35.1104Z" fill="#3A4080"/>
<path d="M38.189 18.9055C38.189 18.532 37.9689 18.1935 37.6275 18.0419L26.4543 13.0813C26.2096 12.9726 25.9305 12.973 25.6861 13.0819L14.5601 18.0425C14.2194 18.1944 14 18.5326 14 18.9055V21.4095C14 21.4175 14.001 21.4252 14.0012 21.4331C14.001 21.441 14 21.4487 14 21.4567C14 21.9786 14.423 22.4016 14.9449 22.4016C15.4997 22.4016 15.748 22.8762 15.748 23.3465V32.1583C15.748 32.1781 15.7498 32.1974 15.751 32.217C15.7498 32.2365 15.748 32.2558 15.748 32.2756C15.748 32.7975 16.1711 33.2205 16.6929 33.2205H35.5906C36.1124 33.2205 36.5354 32.7975 36.5354 32.2756C36.5354 31.7538 36.1124 31.3307 35.5906 31.3307H32.7559V23.3465C32.7559 22.8255 33.1798 22.4016 33.7008 22.4016C34.2218 22.4016 34.6457 22.8255 34.6457 23.3465V27.5284C34.6457 28.0503 35.0687 28.4733 35.5906 28.4733C36.1124 28.4733 36.5354 28.0503 36.5354 27.5284V23.3465C36.5354 23.1248 36.5866 22.4016 37.2441 22.4016C37.766 22.4016 38.189 21.9786 38.189 21.4567C38.189 21.4487 38.188 21.441 38.1878 21.4331C38.188 21.4252 38.189 21.4175 38.189 21.4095V18.9055ZM19.5276 31.3307H17.6378V23.3465C17.6378 22.8255 18.0617 22.4016 18.5827 22.4016C19.1037 22.4016 19.5276 22.8255 19.5276 23.3465V31.3307ZM23.3071 31.3307H21.4173V23.3465C21.4173 22.8255 21.8412 22.4016 22.3622 22.4016C22.8832 22.4016 23.3071 22.8255 23.3071 23.3465V31.3307ZM27.0866 31.3307H25.1969V23.3465C25.1969 22.8255 25.6207 22.4016 26.1417 22.4016C26.6627 22.4016 27.0866 22.8255 27.0866 23.3465V31.3307ZM30.8661 31.3307H28.9764V23.3465C28.9764 22.8255 29.4003 22.4016 29.9213 22.4016C30.4423 22.4016 30.8661 22.8255 30.8661 23.3465V31.3307ZM36.2992 20.4646H15.8898V19.5188L26.0717 14.9791L36.2992 19.5199V20.4646Z" fill="#3A4080"/>
</svg>
