<svg width="18" height="18" viewBox="0 0 18 18" fill="none" xmlns="http://www.w3.org/2000/svg">
<path d="M16.418 0H1.58203C0.709699 0 0 0.709699 0 1.58203V16.418C0 17.2903 0.709699 18 1.58203 18H16.418C17.2903 18 18 17.2903 18 16.418V1.58203C18 0.709699 17.2903 0 16.418 0ZM16.9453 16.418C16.9453 16.7087 16.7087 16.9453 16.418 16.9453H1.58203C1.29125 16.9453 1.05469 16.7087 1.05469 16.418V5.27344H16.9453V16.418ZM16.9453 4.21875H1.05469V1.58203C1.05469 1.29125 1.29125 1.05469 1.58203 1.05469H16.418C16.7087 1.05469 16.9453 1.29125 16.9453 1.58203V4.21875Z" fill="#7E7E7E"/>
<path d="M2.63672 3.16406C2.92796 3.16406 3.16406 2.92796 3.16406 2.63672C3.16406 2.34547 2.92796 2.10938 2.63672 2.10938C2.34547 2.10938 2.10938 2.34547 2.10938 2.63672C2.10938 2.92796 2.34547 3.16406 2.63672 3.16406Z" fill="#7E7E7E"/>
<path d="M4.74609 3.16406C5.03734 3.16406 5.27344 2.92796 5.27344 2.63672C5.27344 2.34547 5.03734 2.10938 4.74609 2.10938C4.45485 2.10938 4.21875 2.34547 4.21875 2.63672C4.21875 2.92796 4.45485 3.16406 4.74609 3.16406Z" fill="#7E7E7E"/>
<path d="M6.85547 3.16406C7.14671 3.16406 7.38281 2.92796 7.38281 2.63672C7.38281 2.34547 7.14671 2.10938 6.85547 2.10938C6.56422 2.10938 6.32812 2.34547 6.32812 2.63672C6.32812 2.92796 6.56422 3.16406 6.85547 3.16406Z" fill="#7E7E7E"/>
<path d="M7.91016 6.32812H2.63672C2.34548 6.32812 2.10938 6.56423 2.10938 6.85547V11.1445C2.10938 11.4358 2.34548 11.6719 2.63672 11.6719H7.91016C8.20139 11.6719 8.4375 11.4358 8.4375 11.1445V6.85547C8.4375 6.56423 8.20139 6.32812 7.91016 6.32812ZM7.38281 10.6172H3.16406V7.38281H7.38281V10.6172Z" fill="#7E7E7E"/>
<path d="M15.3633 10.6172H10.0195C9.7283 10.6172 9.49219 10.8533 9.49219 11.1445C9.49219 11.4358 9.7283 11.6719 10.0195 11.6719H15.3633C15.6545 11.6719 15.8906 11.4358 15.8906 11.1445C15.8906 10.8533 15.6545 10.6172 15.3633 10.6172Z" fill="#7E7E7E"/>
<path d="M15.3633 8.47266H10.0195C9.7283 8.47266 9.49219 8.70877 9.49219 9C9.49219 9.29123 9.7283 9.52734 10.0195 9.52734H15.3633C15.6545 9.52734 15.8906 9.29123 15.8906 9C15.8906 8.70877 15.6545 8.47266 15.3633 8.47266Z" fill="#7E7E7E"/>
<path d="M15.3633 12.7266H2.63672C2.34548 12.7266 2.10938 12.9627 2.10938 13.2539C2.10938 13.5451 2.34548 13.7812 2.63672 13.7812H15.3633C15.6545 13.7812 15.8906 13.5451 15.8906 13.2539C15.8906 12.9627 15.6545 12.7266 15.3633 12.7266Z" fill="#7E7E7E"/>
<path d="M15.3633 14.8359H2.63672C2.34548 14.8359 2.10938 15.072 2.10938 15.3633C2.10938 15.6545 2.34548 15.8906 2.63672 15.8906H15.3633C15.6545 15.8906 15.8906 15.6545 15.8906 15.3633C15.8906 15.072 15.6545 14.8359 15.3633 14.8359Z" fill="#7E7E7E"/>
</svg>
