<svg width="22" height="22" viewBox="0 0 22 22" fill="none" xmlns="http://www.w3.org/2000/svg">
<path d="M4.03906 6.1875H4.89844V7.04688C4.89844 7.40283 5.18702 7.69141 5.54297 7.69141C5.89892 7.69141 6.1875 7.40283 6.1875 7.04688V6.1875H7.04688C7.40283 6.1875 7.69141 5.89892 7.69141 5.54297C7.69141 5.18702 7.40283 4.89844 7.04688 4.89844H6.1875V4.03906C6.1875 3.68311 5.89892 3.39453 5.54297 3.39453C5.18702 3.39453 4.89844 3.68311 4.89844 4.03906V4.89844H4.03906C3.68311 4.89844 3.39453 5.18702 3.39453 5.54297C3.39453 5.89892 3.68311 6.1875 4.03906 6.1875Z" fill="#727272"/>
<path d="M14.0508 6.1875H16.6289C16.9849 6.1875 17.2734 5.89892 17.2734 5.54297C17.2734 5.18702 16.9849 4.89844 16.6289 4.89844H14.0508C13.6948 4.89844 13.4062 5.18702 13.4062 5.54297C13.4062 5.89892 13.6948 6.1875 14.0508 6.1875Z" fill="#727272"/>
<path d="M16.8438 15.7695H13.8359C13.48 15.7695 13.1914 16.0581 13.1914 16.4141C13.1914 16.77 13.48 17.0586 13.8359 17.0586H16.8438C17.1997 17.0586 17.4883 16.77 17.4883 16.4141C17.4883 16.0581 17.1997 15.7695 16.8438 15.7695Z" fill="#727272"/>
<path d="M16.8438 13.6211H13.8359C13.48 13.6211 13.1914 13.9097 13.1914 14.2656C13.1914 14.6216 13.48 14.9102 13.8359 14.9102H16.8438C17.1997 14.9102 17.4883 14.6216 17.4883 14.2656C17.4883 13.9097 17.1997 13.6211 16.8438 13.6211Z" fill="#727272"/>
<path d="M7.07294 13.8099C6.82127 13.5582 6.41315 13.5582 6.16144 13.8099L5.54299 14.4284L4.9245 13.8099C4.67283 13.5582 4.26471 13.5582 4.013 13.8099C3.76129 14.0616 3.76129 14.4697 4.013 14.7214L4.63149 15.3399L4.013 15.9584C3.76129 16.2101 3.76129 16.6181 4.013 16.8699C4.13886 16.9957 4.30381 17.0586 4.46877 17.0586C4.63373 17.0586 4.79869 16.9957 4.9245 16.8698L5.54299 16.2514L6.16148 16.8699C6.2873 16.9957 6.45225 17.0586 6.61721 17.0586C6.78217 17.0586 6.94712 16.9957 7.07294 16.8698C7.32465 16.6181 7.32465 16.21 7.07294 15.9583L6.45449 15.3399L7.07298 14.7214C7.32469 14.4697 7.32469 14.0616 7.07294 13.8099Z" fill="#727272"/>
<path d="M20.8828 11.6518V1.93359C20.8828 0.86741 20.0154 0 18.9492 0H1.93359C0.86741 0 0 0.86741 0 1.93359V18.9492C0 20.0154 0.86741 20.8828 1.93359 20.8828H11.6517C12.7084 21.5882 13.9768 22 15.3398 22C19.0123 22 22 19.0123 22 15.3398C22 13.9769 21.5882 12.7084 20.8828 11.6518ZM19.5938 1.93359V10.2193C18.4391 9.25843 16.9559 8.67969 15.3398 8.67969C13.7238 8.67969 12.2406 9.25843 11.0859 10.2193V1.28906H18.9492C19.3046 1.28906 19.5938 1.5782 19.5938 1.93359ZM1.93359 1.28906H9.79688V9.79688H1.28906V1.93359C1.28906 1.5782 1.5782 1.28906 1.93359 1.28906ZM1.28906 18.9492V11.0859H9.79688V11.6518C9.0915 12.7084 8.67969 13.9769 8.67969 15.3398C8.67969 16.9559 9.25843 18.4391 10.2193 19.5938H1.93359C1.5782 19.5938 1.28906 19.3046 1.28906 18.9492ZM15.3398 20.7109C12.3782 20.7109 9.96875 18.3015 9.96875 15.3398C9.96875 12.3782 12.3782 9.96875 15.3398 9.96875C18.3015 9.96875 20.7109 12.3782 20.7109 15.3398C20.7109 18.3015 18.3015 20.7109 15.3398 20.7109Z" fill="#727272"/>
</svg>
