<svg width="18" height="18" viewBox="0 0 18 18" fill="none" xmlns="http://www.w3.org/2000/svg">
<path d="M9.52734 0V8.47266H18V0H9.52734ZM16.5832 4.76367H10.9442V3.70898H16.5832V4.76367Z" fill="currentcolor"/>
<path d="M9.52734 18H18V9.52734H9.52734V18ZM14.3239 16.5645H13.2035V15.4442H14.3239V16.5645ZM13.2035 10.9628H14.3239V12.0832H13.2035V10.9628ZM10.9442 13.2363H16.5832V14.291H10.9442V13.2363Z" fill="currentcolor"/>
<path d="M0 8.47266H8.47266V0H0V8.47266ZM1.41683 3.70902H3.70898V1.41683H4.76367V3.70898H7.05586V4.76367H4.76367V7.05579H3.70898V4.76367H1.41683V3.70902Z" fill="currentcolor"/>
<path d="M0 18H8.47266V9.52734H0V18ZM1.86979 12.1429L2.61555 11.3971L4.23636 13.0179L5.85717 11.3971L6.60294 12.1429L4.9821 13.7637L6.60291 15.3845L5.85714 16.1303L4.23633 14.5094L2.61552 16.1303L1.86975 15.3845L3.49056 13.7637L1.86979 12.1429Z" fill="currentcolor"/>
</svg>
