<svg width="40" height="40" viewBox="0 0 40 40" fill="none" xmlns="http://www.w3.org/2000/svg">
<circle cx="20" cy="20" r="20" fill="#F5F5F5"/>
<g clip-path="url(#clip0_0_1)">
<path d="M29.2366 13.699L16.9875 11.1068C16.4693 10.9971 15.9556 11.3315 15.846 11.8497L15.6133 13.3452L29.7466 16.336L29.9793 14.8405C30.089 14.3225 29.7548 13.8087 29.2366 13.699Z" fill="#000"/>
<path d="M24.0854 16.6525C23.9423 16.1372 23.4039 15.8327 22.8888 15.9755L20.5635 16.6211L15.0817 15.4609L14.4788 18.3095L10.712 19.355C10.1969 19.4979 9.89239 20.0363 10.0352 20.5514L12.1581 28.201C12.3011 28.7161 12.8396 29.0208 13.3546 28.8778L25.5314 25.4986C26.0465 25.3555 26.351 24.8172 26.2082 24.302L25.8438 22.9888L27.2095 23.2775C27.7277 23.3873 28.2414 23.053 28.351 22.5347L29.215 18.4518L24.2959 17.4109L24.0854 16.6525ZM25.4916 20.5403L25.7928 19.1171C25.838 18.904 26.0493 18.7665 26.2624 18.8115L27.6856 19.1129C27.8989 19.1581 28.0364 19.3692 27.9914 19.5825L27.6903 21.0057C27.645 21.2189 27.4337 21.3565 27.2206 21.3113L25.7974 21.0102C25.5839 20.9648 25.4464 20.7535 25.4916 20.5403ZM10.9239 20.1184L14.2937 19.1835L22.2447 16.9771L23.1003 16.7393C23.1159 16.7351 23.1315 16.7331 23.1467 16.7331C23.2153 16.7331 23.2974 16.7782 23.3214 16.8644L23.4218 17.2262L23.7366 18.3603L11.214 21.8354L10.7988 20.3397C10.7728 20.2458 10.83 20.1444 10.9239 20.1184ZM25.4446 24.5136C25.4606 24.5717 25.4438 24.6197 25.4268 24.6497C25.41 24.6797 25.3776 24.719 25.3195 24.735L13.1429 28.1142C13.1275 28.1184 13.1117 28.1206 13.0965 28.1206C13.0279 28.1206 12.9458 28.0753 12.9218 27.9891L11.6836 23.5272L24.2062 20.0519L24.97 22.8038L25.4446 24.5136Z" fill="#000"/>
<path d="M15.1102 24.8196C15.0518 24.6095 14.8325 24.4854 14.6224 24.5437L13.2003 24.9384C12.9904 24.9967 12.8662 25.2162 12.9246 25.4263L13.3192 26.8481C13.3776 27.0582 13.5969 27.1823 13.807 27.1239L15.2291 26.7293C15.4392 26.671 15.5632 26.4515 15.505 26.2414L15.1102 24.8196Z" fill="#3A4080"/>
</g>
<defs>
<clipPath id="clip0_0_1">
<rect width="20" height="20" fill="white" transform="translate(10 10)"/>
</clipPath>
</defs>
</svg>
