<svg width="24" height="18" viewBox="0 0 24 18" fill="none" xmlns="http://www.w3.org/2000/svg">
<path d="M13.5469 12C13.0291 12 12.6094 12.4197 12.6094 12.9375C12.6094 13.4553 13.0291 13.875 13.5469 13.875H14.8594C15.3772 13.875 15.7969 13.4553 15.7969 12.9375C15.7969 12.4197 15.3772 12 14.8594 12H13.5469Z" fill="#3A4080"/>
<path d="M23.0625 10.1307C23.5803 10.1307 24 9.71095 24 9.19322V3.75C24 1.68225 22.3177 0 20.25 0H3.75C1.68225 0 0 1.68225 0 3.75V13.875C0 15.9427 1.68225 17.625 3.75 17.625H20.25C22.3177 17.625 24 15.9427 24 13.875C24 13.3572 23.5803 12.9375 23.0625 12.9375C22.5447 12.9375 22.125 13.3572 22.125 13.875C22.125 14.9089 21.2839 15.75 20.25 15.75H3.75C2.71613 15.75 1.875 14.9089 1.875 13.875V3.75C1.875 2.71613 2.71613 1.875 3.75 1.875H20.25C21.2839 1.875 22.125 2.71613 22.125 3.75V9.19322C22.125 9.71095 22.5447 10.1307 23.0625 10.1307Z" fill="#3A4080"/>
<path d="M19.3594 12H18.0469C17.5291 12 17.1094 12.4197 17.1094 12.9375C17.1094 13.4553 17.5291 13.875 18.0469 13.875H19.3594C19.8772 13.875 20.2969 13.4553 20.2969 12.9375C20.2969 12.4197 19.8772 12 19.3594 12Z" fill="#3A4080"/>
<path d="M9.04688 13.875H10.3594C10.8772 13.875 11.2969 13.4553 11.2969 12.9375C11.2969 12.4197 10.8772 12 10.3594 12H9.04688C8.52909 12 8.10938 12.4197 8.10938 12.9375C8.10938 13.4553 8.52909 13.875 9.04688 13.875Z" fill="#3A4080"/>
<path d="M9.28125 8.91113V5.16113C9.28125 4.64335 8.86153 4.22363 8.34375 4.22363H4.59375C4.07597 4.22363 3.65625 4.64335 3.65625 5.16113V8.91113C3.65625 9.42892 4.07597 9.84863 4.59375 9.84863H8.34375C8.86153 9.84863 9.28125 9.42887 9.28125 8.91113ZM7.40625 7.97363H5.53125V6.09863H7.40625V7.97363Z" fill="#3A4080"/>
<path d="M4.54688 12C4.02909 12 3.60938 12.4197 3.60938 12.9375C3.60938 13.4553 4.02909 13.875 4.54688 13.875H5.85938C6.37716 13.875 6.79688 13.4553 6.79688 12.9375C6.79688 12.4197 6.37716 12 5.85938 12H4.54688Z" fill="#3A4080"/>
</svg>
