<svg width="383" height="310" viewBox="0 0 383 310" fill="none" xmlns="http://www.w3.org/2000/svg">
<path opacity="0.45" d="M198.782 309.263C296.296 309.263 375.346 303.455 375.346 296.29C375.346 289.126 296.296 283.317 198.782 283.317C101.269 283.317 22.2188 289.126 22.2188 296.29C22.2188 303.455 101.269 309.263 198.782 309.263Z" fill="#E6E6E6"/>
<path d="M207.791 19.2866L206.105 56.164C201.193 65.3833 199.77 66.9111 198.019 67.2404V78.2773C202.352 79.3309 206.197 79.5943 208.463 78.2773C216.365 73.5359 221.818 49.4471 221.818 49.4471L207.791 19.2866Z" fill="#3A4080"/>
<path d="M347.267 59.5441L56.5557 60.2544L57.0718 271.495L347.783 270.785L347.267 59.5441Z" fill="#F2F2F2"/>
<path d="M347.359 59.8921H56.541V101.485H347.359V59.8921Z" fill="#E6E6E6"/>
<path d="M82.6315 86.6155C85.541 86.6155 87.8997 84.2568 87.8997 81.3473C87.8997 78.4378 85.541 76.0791 82.6315 76.0791C79.7219 76.0791 77.3633 78.4378 77.3633 81.3473C77.3633 84.2568 79.7219 86.6155 82.6315 86.6155Z" fill="#24285B"/>
<path d="M98.3043 86.575C101.214 86.575 103.573 84.2163 103.573 81.3068C103.573 78.3972 101.214 76.0386 98.3043 76.0386C95.3948 76.0386 93.0361 78.3972 93.0361 81.3068C93.0361 84.2163 95.3948 86.575 98.3043 86.575Z" fill="#3A4080"/>
<path d="M113.069 86.5369C115.979 86.5369 118.337 84.1782 118.337 81.2687C118.337 78.3591 115.979 76.0005 113.069 76.0005C110.159 76.0005 107.801 78.3591 107.801 81.2687C107.801 84.1782 110.159 86.5369 113.069 86.5369Z" fill="#FFD200"/>
<path d="M314.078 201.699H189.445V209.456H314.078V201.699Z" fill="#E6E6E6"/>
<path d="M314.078 222.245H189.445V230.002H314.078V222.245Z" fill="#E6E6E6"/>
<path d="M276.041 242.791H189.445V250.548H276.041V242.791Z" fill="#E6E6E6"/>
<path d="M310.851 116.195H189.445V188.896H310.851V116.195Z" fill="#E6E6E6"/>
<path opacity="0.17" d="M175.471 115.539H82.8428V141.669H175.471V115.539Z" fill="#666666"/>
<path d="M175.471 152.548H82.8428V178.678H175.471V152.548Z" fill="#E6E6E6"/>
<path opacity="0.17" d="M98.976 175.134C104.17 175.134 108.38 170.924 108.38 165.73C108.38 160.537 104.17 156.327 98.976 156.327C93.7825 156.327 89.5723 160.537 89.5723 165.73C89.5723 170.924 93.7825 175.134 98.976 175.134Z" fill="#666666"/>
<path opacity="0.17" d="M152.831 159.882H115.466V164.018H152.831V159.882Z" fill="#666666"/>
<path opacity="0.17" d="M138.883 168.154H115.466V172.29H138.883V168.154Z" fill="#666666"/>
<path d="M175.471 189.569H82.8428V215.7H175.471V189.569Z" fill="#E6E6E6"/>
<path opacity="0.17" d="M98.976 212.156C104.17 212.156 108.38 207.945 108.38 202.752C108.38 197.558 104.17 193.348 98.976 193.348C93.7825 193.348 89.5723 197.558 89.5723 202.752C89.5723 207.945 93.7825 212.156 98.976 212.156Z" fill="#666666"/>
<path opacity="0.17" d="M152.831 196.891H115.466V201.027H152.831V196.891Z" fill="#666666"/>
<path opacity="0.17" d="M138.883 205.176H115.466V209.311H138.883V205.176Z" fill="#666666"/>
<path d="M175.471 226.579H82.8428V252.709H175.471V226.579Z" fill="#E6E6E6"/>
<path opacity="0.17" d="M98.976 249.165C104.17 249.165 108.38 244.955 108.38 239.761C108.38 234.568 104.17 230.357 98.976 230.357C93.7825 230.357 89.5723 234.568 89.5723 239.761C89.5723 244.955 93.7825 249.165 98.976 249.165Z" fill="#666666"/>
<path opacity="0.17" d="M152.831 233.913H115.466V238.049H152.831V233.913Z" fill="#666666"/>
<path opacity="0.17" d="M138.883 242.185H115.466V246.321H138.883V242.185Z" fill="#666666"/>
<path opacity="0.08" d="M87.8994 271.41C88.3472 271.41 77.6264 213.183 81.1956 205.175C84.7648 197.168 93.2466 189.371 93.0491 182.93C92.8515 176.49 117.902 157.472 123.341 141.667L128.214 149.372L178.987 106.489C178.987 106.489 187.64 105.251 190.458 98.9684C193.277 92.6861 219.657 59.8389 219.657 59.8389H205.538L189.602 80.6482L178.802 76.0781L121.129 119.541L117.823 132.316C117.823 132.316 76.5728 161.91 62.9545 177.544C49.3362 193.177 67.4983 271.396 67.4983 271.396L87.8994 271.41Z" fill="black"/>
<path d="M176.084 66.5655L113.923 118.063L129.097 136.38L191.259 84.8822L176.084 66.5655Z" fill="#24285B"/>
<path d="M132.891 126.509C137.619 126.509 141.452 122.677 141.452 117.949C141.452 113.221 137.619 109.388 132.891 109.388C128.163 109.388 124.33 113.221 124.33 117.949C124.33 122.677 128.163 126.509 132.891 126.509Z" fill="#FFD200"/>
<path opacity="0.17" d="M167.241 82.5509L141.054 104.246L143.457 107.146L169.644 85.4516L167.241 82.5509Z" fill="white"/>
<path opacity="0.17" d="M162.268 96.4496L145.858 110.044L148.261 112.945L164.671 99.3502L162.268 96.4496Z" fill="white"/>
<path d="M41.4475 224.667L32.8472 252.128C31.6911 255.849 29.7781 259.291 27.2283 262.237C24.6784 265.184 21.5469 267.571 18.0304 269.25L5.38672 275.255L5.90037 278.996L24.7869 274.913C29.2364 273.604 33.3628 271.379 36.9012 268.38C40.4396 265.382 43.3116 261.676 45.3328 257.502L58.6745 230.028L41.4475 224.667Z" fill="#F4A28C"/>
<path d="M69.9483 232.413L73.9785 291.311L70.2249 292.615L55.2764 237.523L69.9483 232.413Z" fill="#F4A28C"/>
<path d="M74.7552 292.326C74.7552 292.326 75.6245 295.816 78.2586 296.909C80.8927 298.002 79.5756 301.795 75.6245 299.477C74.3946 298.765 73.227 297.95 72.1343 297.041C71.1071 296.233 69.8851 295.71 68.5914 295.526C68.3504 295.463 68.1322 295.333 67.962 295.152C67.7919 294.97 67.6767 294.743 67.63 294.499C67.1032 292.576 71.4758 290.758 71.4758 290.758L74.7552 292.326Z" fill="#3A4080"/>
<path d="M5.90075 278.956C5.90075 278.956 3.26665 280.984 3.26665 283.645C3.26665 286.305 -0.421091 286.635 0.039876 282.328C0.179383 280.993 0.426024 279.672 0.77742 278.377C1.07854 277.19 1.0558 275.943 0.711569 274.768C0.662301 274.538 0.685181 274.298 0.777089 274.081C0.868997 273.864 1.02547 273.681 1.22522 273.556C2.6608 272.371 5.90075 275.4 5.90075 275.4V278.956Z" fill="#3A4080"/>
<path d="M47.3998 147.056L48.8091 152.719L44.2126 155.143L43.4092 145.449L47.3998 147.056Z" fill="#F4A28C"/>
<path d="M42.3311 139.996C42.6013 139.488 42.9943 139.055 43.4743 138.738C43.9543 138.421 44.5061 138.228 45.0794 138.178C45.6528 138.129 46.2294 138.223 46.7569 138.453C47.2845 138.683 47.7461 139.041 48.0997 139.495C49.7987 141.629 51.7875 144.961 49.1139 146.476C45.0179 148.794 41.8569 143.605 41.8569 143.605C41.6522 142.381 41.8173 141.125 42.3311 139.996Z" fill="#F4A28C"/>
<path d="M23.4696 164.822C23.4696 164.822 3.7139 195.733 7.66504 200.29C20.2297 214.777 48.1248 182.194 48.1248 182.194L23.4696 164.822Z" fill="#F4A28C"/>
<path d="M68.1968 160.197C62.5224 156.055 55.7077 153.765 48.6832 153.64C41.6588 153.515 34.7669 155.561 28.9488 159.499C23.7728 163.016 19.7294 168.284 21.6128 175.897C25.8932 193.769 39.5905 205.543 40.0515 221.269L72.4641 219.096V198.853C72.4566 196.94 72.846 195.046 73.6077 193.292C74.3694 191.537 75.4868 189.96 76.8894 188.659C79.7079 186.025 82.5263 181.797 80.6035 175.976C78.8518 170.787 74.4265 164.768 68.1968 160.197Z" fill="#3A4080"/>
<path d="M44.8984 143.604C44.8984 143.604 43.9765 142.695 43.4233 143.841C42.8702 144.986 44.5955 145.698 45.1618 145.158C45.7282 144.618 44.8984 143.604 44.8984 143.604Z" fill="#F4A28C"/>
<path opacity="0.08" d="M52.1555 168.628C52.1555 168.628 45.1488 182.01 53.275 195.062C61.4012 208.114 46.0049 220.863 46.0049 220.863L72.4249 219.098V207.56L52.1555 168.628Z" fill="black"/>
<path d="M38.6561 160.608C39.2751 158.185 42.1594 153.786 38.1029 145.857C37.4977 144.548 37.1909 143.121 37.2045 141.68C37.2182 140.238 37.552 138.817 38.1819 137.52C42.0409 131.014 48.2573 133.24 47.5198 136.888C46.7823 140.536 46.2028 142.275 46.2028 142.275C46.2028 142.275 57.9772 150.717 56.2518 156.933C54.7899 162.465 36.0351 170.697 38.6561 160.608Z" fill="#24285B"/>
<path d="M38.5892 213H72.4242L77.8109 259.821L27.6182 257.555L38.5892 213Z" fill="#24285B"/>
<path d="M49.6269 176.845C49.1145 175.696 48.8356 174.455 48.8063 173.197C48.777 171.938 48.9978 170.687 49.456 169.514C49.9143 168.342 50.6007 167.272 51.4756 166.367C52.3505 165.461 53.3964 164.739 54.5526 164.241C56.8494 163.294 59.2134 162.519 61.6252 161.923C76.0337 158.235 101.058 148.213 115.756 128.905C115.756 128.905 119.997 121.516 125.963 123.479C131.929 125.441 127.781 132.382 121.775 130.643C121.775 130.643 103.823 176.398 62.7842 183.931C60.1125 184.396 57.3619 183.951 54.9736 182.666C52.5854 181.381 50.6978 179.331 49.6137 176.845H49.6269Z" fill="#F4A28C"/>
<path d="M193.118 7.49951L209.502 14.0584L209.305 26.1489L195.028 14.5326L193.118 7.49951Z" fill="#F4A28C"/>
<path opacity="0.31" d="M197.188 16.4426C197.547 15.2484 197.547 13.9755 197.188 12.7812C199.171 14.3951 200.465 16.7021 200.81 19.2348L197.188 16.4426Z" fill="#CE8172"/>
<path d="M187.864 13.5066C190.03 15.5813 192.467 17.3535 195.108 18.7748C195.428 18.9327 195.777 19.0238 196.134 19.0426C196.49 19.0615 196.847 19.0077 197.182 18.8845C197.517 18.7613 197.823 18.5713 198.083 18.3261C198.342 18.0808 198.549 17.7854 198.691 17.4578C199.228 16.441 199.459 15.2905 199.356 14.1453C199.253 13 198.821 11.9091 198.111 11.0042L195.477 6.80285C194.858 6.01593 194.009 5.44193 193.048 5.16095C192.087 4.87998 191.062 4.90606 190.117 5.23556C186.468 6.17067 185.375 11.3467 187.864 13.5066Z" fill="#F4A28C"/>
<path d="M190.432 15.7183L191.117 18.1811C191.155 18.3214 191.229 18.4497 191.33 18.5542C191.431 18.6587 191.557 18.7362 191.696 18.7794C191.835 18.8227 191.982 18.8304 192.125 18.8018C192.268 18.7732 192.401 18.7092 192.513 18.6158L194.093 17.2987L190.432 15.7183Z" fill="#F4A28C"/>
<path d="M200.06 9.85689L195.055 4.52284C195.055 4.52284 196.636 0.690226 193.738 0.308281C190.841 -0.0736628 191.46 2.25752 188.839 0.690227C186.218 -0.877062 184.361 0.887784 184.888 3.32433C185.415 5.76087 183.808 3.75895 182.372 5.44478C180.937 7.1306 181.437 8.1579 182.833 9.093C184.229 10.0281 181.029 11.7271 182.385 13.571C183.742 15.4148 185.415 16.587 188.615 12.1222C191.815 7.65742 193.514 13.3471 200.06 9.85689Z" fill="#FFD200"/>
<path d="M195.043 11.9114C195.043 11.9114 193.449 10.5944 194.542 9.47486C195.635 8.35537 197.953 10.2651 196.847 12.109L195.043 11.9114Z" fill="#F4A28C"/>
<path opacity="0.08" d="M252.333 62.8828C252.333 62.8828 245.392 80.9 253.268 89.9482C261.144 98.9963 278.74 107.742 278.74 107.742C278.74 107.742 280.992 118.278 286.563 108.703L285.483 103.514L269.007 90.9755L258.471 77.6601L265.267 63.1726L252.333 62.8828Z" fill="black"/>
<path d="M274.908 40.4399L265.281 52.7675L258.84 61.1571C255.097 61.7203 251.309 61.9276 247.527 61.7761C236.358 61.381 219.948 57.825 212.796 41.8623C210.677 36.8984 209.498 31.584 209.319 26.1895L209.504 14.1121C209.504 14.1121 227.547 0.941615 243.747 11.9258C259.947 22.91 274.908 40.4399 274.908 40.4399Z" fill="#3A4080"/>
<path d="M274.908 40.4385C274.908 40.4385 292.938 52.4763 283.271 60.7605C278.355 65.1405 273.882 69.993 269.916 75.2481C268.914 76.5487 268.416 78.1684 268.515 79.8075C268.614 81.4466 269.304 82.9943 270.456 84.1645L283.864 97.8223L281.532 104.078L261.777 91.5532C258.665 89.575 256.308 86.6106 255.08 83.1341C253.853 79.6575 253.827 75.8698 255.007 72.3769L258.84 61.1557L274.908 40.4385Z" fill="#24285B"/>
<path opacity="0.08" d="M265.281 52.767L258.841 61.1566C258.841 61.1566 254.139 61.4727 247.527 61.7756C236.359 61.3805 219.948 57.8245 212.797 41.8618C218.592 33.9595 226.218 26.505 229.8 25.6885C229.8 25.6885 236.517 44.6408 246.553 47.7886C256.352 50.8705 264.913 52.7275 265.321 52.8197L265.281 52.767Z" fill="black"/>
<path d="M230.378 29.0345C231.695 17.945 217.379 12.3607 210.517 21.1322C208.473 23.7343 206.944 26.7024 206.012 29.8774C202.509 41.7309 180.659 90.0139 180.659 90.0139L188.074 93.6358C188.074 93.6358 215.851 58.9184 226.664 39.808C228.603 36.4981 229.865 32.8361 230.378 29.0345Z" fill="#3A4080"/>
<path opacity="0.36" d="M230.378 29.0345C231.695 17.945 217.379 12.3607 210.517 21.1322C208.473 23.7343 206.944 26.7024 206.012 29.8774C202.509 41.7309 180.659 90.0139 180.659 90.0139L188.074 93.6358C188.074 93.6358 215.851 58.9184 226.664 39.808C228.603 36.4981 229.865 32.8361 230.378 29.0345Z" fill="white"/>
<path d="M181.832 90.606C181.832 90.606 173.653 95.2156 178.249 98.258C182.846 101.3 188.022 93.6352 188.022 93.6352L181.832 90.606Z" fill="#F4A28C"/>
<path d="M282.086 102.524C282.086 102.524 285.892 106.475 284.549 109.03C284.549 109.03 287.183 111.836 289.238 108.148C291.292 104.46 287.71 100.246 287.71 100.246L283.456 98.7969L282.086 102.524Z" fill="#3A4080"/>
<path opacity="0.08" d="M316.29 234.125C313.656 240.956 311.281 247.875 309.165 254.882C308.743 256.278 306.939 264.891 305.424 270.594H322.981C324.154 257.317 328.891 244.603 336.691 233.796C336.862 246.518 337.337 260.137 344.514 270.594H352.535C354.179 268.646 355.157 266.223 355.327 263.68C355.418 260.192 355.005 256.71 354.103 253.341C351.929 242.859 350.808 232.186 350.757 221.481C350.757 208.008 352.325 194.508 351.166 181.074C350.468 173.106 348.531 164.624 342.434 159.369C342.178 159.141 341.905 158.934 341.617 158.75C342.223 154.009 342.526 149.215 342.802 144.46L343.645 130.605C343.935 125.903 341.288 118.251 335.861 123.532C331.436 127.826 332.977 132.752 331.91 137.875C330.224 145.883 320.307 144.842 314.051 144.566C294.295 143.683 274.329 144.184 254.494 144.184H207.884V230.411H317.818C317.291 231.649 316.764 232.887 316.29 234.125Z" fill="black"/>
<path d="M311.693 288.439C311.693 288.439 308.782 291.311 305.634 289.954C302.487 288.597 300.195 291.271 302.513 293.55C304.831 295.828 313.602 295.907 313.602 295.907L316.171 289.967L311.693 288.439Z" fill="#3A4080"/>
<path d="M360.569 287.11C360.569 287.11 361.991 291.062 359.62 293.59C357.25 296.119 358.725 299.385 361.596 297.989C364.467 296.593 367.852 288.059 367.852 288.059L363.598 283.317L360.569 287.11Z" fill="#3A4080"/>
<path d="M368.353 213.578C368.353 213.578 371.422 226.353 366.087 232.635C360.753 238.918 352.588 268.683 366.087 283.566L360.753 288.834C360.753 288.834 337.376 276.269 344.04 230.963L327.34 213.564L368.353 213.578Z" fill="#24285B"/>
<path d="M327.339 213.58L310.218 288.849L318.792 290.167C318.792 290.167 335.913 238.578 347.253 227.989L327.339 213.58Z" fill="#24285B"/>
<path d="M323.362 147.398C323.362 147.398 305.477 155.024 308.216 182.958L325.68 181.47L323.362 147.398Z" fill="#3A4080"/>
<path opacity="0.36" d="M323.362 147.398C323.362 147.398 305.477 155.024 308.216 182.958L325.68 181.47L323.362 147.398Z" fill="white"/>
<path d="M348.478 126.482L347.793 144.631L337.823 143.538L342.314 130.776L348.478 126.482Z" fill="#F4A28C"/>
<path opacity="0.31" d="M341.221 133.595C342.51 133.514 343.747 133.056 344.777 132.278C343.895 134.756 342.107 136.807 339.772 138.02L341.221 133.595Z" fill="#CE8172"/>
<path d="M346.938 140.956L341.117 142.168C341.117 142.168 314.46 145.039 313.38 160.079C312.3 175.12 327.354 213.578 327.354 213.578H367.747C367.747 213.578 400.081 136.978 346.938 140.956Z" fill="#3A4080"/>
<path d="M338.64 123.822C337.952 126.844 337.677 129.946 337.823 133.042C337.906 133.777 338.277 134.449 338.855 134.911C339.433 135.372 340.17 135.586 340.905 135.505C342.091 135.437 343.231 135.029 344.189 134.328C345.148 133.626 345.882 132.663 346.305 131.553L348.61 126.983C348.975 126.02 349.033 124.967 348.776 123.97C348.518 122.973 347.959 122.079 347.174 121.412C344.382 118.739 339.219 120.49 338.64 123.822Z" fill="#F4A28C"/>
<path opacity="0.09" d="M358.791 147.963C358.791 147.963 345.028 155.984 348.255 174.146C351.482 192.308 356.789 198.551 345.397 196.022C334.004 193.493 329.316 187.764 329.316 187.764C329.316 187.764 321.11 194.455 329.316 199.525C337.521 204.596 348.65 204.596 350.388 213.578H367.721C367.721 213.578 369.117 209.627 370.974 204.688C372.831 199.749 358.791 147.963 358.791 147.963Z" fill="black"/>
<path d="M339.97 124.243C341.655 124.546 343.37 124.652 345.08 124.559C344.488 125.237 344.106 126.073 343.982 126.964C343.858 127.855 343.997 128.764 344.382 129.577C344.741 130.373 345.366 131.019 346.15 131.403C346.933 131.788 347.826 131.887 348.676 131.684L349.571 124.625C349.735 123.619 349.622 122.587 349.244 121.64C348.866 120.693 348.237 119.868 347.424 119.251C346.726 118.712 345.996 118.215 345.238 117.763C344.169 117.167 342.956 116.875 341.733 116.919C340.509 116.964 339.321 117.342 338.297 118.013C337.533 118.665 337.055 119.592 336.969 120.592C336.883 121.593 337.194 122.588 337.836 123.361C338.444 123.861 339.187 124.168 339.97 124.243Z" fill="#24285B"/>
<path d="M343.815 129.341C343.815 129.341 344.158 127.221 345.725 127.616C347.292 128.011 346.818 131.04 344.619 131.027L343.815 129.341Z" fill="#F4A28C"/>
<path d="M332.778 135.806H215.627V221.598H332.778V135.806Z" fill="#FFD200"/>
<path opacity="0.43" d="M323.112 143.802H225.308V213.605H323.112V143.802Z" fill="white"/>
<path opacity="0.49" d="M226.428 213.606L253.045 164.388L275.646 202.556L295.981 178.705L323.099 213.606H226.428Z" fill="white"/>
<path d="M277.464 173.805C281.799 173.805 285.313 170.29 285.313 165.955C285.313 161.62 281.799 158.105 277.464 158.105C273.129 158.105 269.614 161.62 269.614 165.955C269.614 170.29 273.129 173.805 277.464 173.805Z" fill="white"/>
<path d="M380.153 180.06C380.153 180.06 382.432 203.385 370.934 204.689C362.294 205.664 348.438 200.738 339.97 198.38C336.308 197.327 334.53 196.839 331.712 194.271C328.34 191.189 323.652 189.003 327.287 186.066C333.753 180.798 338.35 189.767 338.35 189.767C343.749 191.339 349.315 192.267 354.932 192.533C355.986 192.563 357.033 192.346 357.988 191.899C358.944 191.453 359.782 190.789 360.436 189.962C361.09 189.134 361.541 188.165 361.754 187.132C361.967 186.099 361.935 185.03 361.662 184.011L359.528 175.977C359.528 175.977 374.714 161.753 380.153 180.06Z" fill="#F4A28C"/>
<path d="M338.034 127.273L336.216 129.17C336.113 129.278 336.039 129.411 336.001 129.555C335.962 129.7 335.961 129.852 335.996 129.997C336.031 130.143 336.103 130.277 336.203 130.388C336.304 130.498 336.431 130.582 336.572 130.631L338.613 131.316L338.034 127.273Z" fill="#F4A28C"/>
<path d="M368.259 146.145C374.173 150.715 383.168 160.803 382.997 179.874L358.526 181.442C358.526 181.442 351.454 160.501 358.842 147.962C359.3 147.178 359.921 146.501 360.662 145.976C361.403 145.451 362.247 145.09 363.139 144.918C364.03 144.746 364.949 144.767 365.832 144.978C366.715 145.19 367.542 145.587 368.259 146.145Z" fill="#3A4080"/>
<path opacity="0.36" d="M368.259 146.145C374.173 150.715 383.168 160.803 382.997 179.874L358.526 181.442C358.526 181.442 351.454 160.501 358.842 147.962C359.3 147.178 359.921 146.501 360.662 145.976C361.403 145.451 362.247 145.09 363.139 144.918C364.03 144.746 364.949 144.767 365.832 144.978C366.715 145.19 367.542 145.587 368.259 146.145Z" fill="white"/>
<path d="M127.53 59.8667L164.407 59.8667V54.0322L127.53 54.0322V59.8667Z" fill="#C9C9C9"/>
<path d="M127.53 54.0049H155.425V48.1704H127.53V54.0049Z" fill="#E6E6E6"/>
<path opacity="0.58" d="M130.665 46.8284C130.665 46.8284 140.964 44.0099 143.216 34.4086C143.216 34.4086 127.24 31.1819 126.779 47.6713L130.665 46.8284Z" fill="#3A4080"/>
<path opacity="0.73" d="M129.4 45.7994C129.4 45.7994 136.591 34.4069 130.256 23.7651C130.256 23.7651 118.113 31.483 123.513 45.8257L129.4 45.7994Z" fill="#3A4080"/>
<path d="M127.543 45.8129C127.543 45.8129 123.736 33.7883 112.225 31.5098C112.225 31.5098 110.079 39.3067 119.68 45.8393L127.543 45.8129Z" fill="#3A4080"/>
<path d="M135.011 45.5376L132.93 59.8408L119.759 59.8934L117.823 45.6034L135.011 45.5376Z" fill="#24285B"/>
</svg>
