<svg width="97" height="96" viewBox="0 0 97 96" fill="none" xmlns="http://www.w3.org/2000/svg">
<circle cx="40" cy="51" r="36" fill="#9DC6FB"/>
<path d="M36.5205 53.7207L39.2294 56.4201C40.8379 58.0238 42.4257 59.5466 43.947 60.9471L44.4598 61.4234V75.1329L36.5205 78.5675V53.7207Z" fill="#FA684F"/>
<path d="M27.7882 40.4902C27.1681 41.1103 32.7078 47.6553 40.1614 55.1089C47.615 62.5625 54.16 68.1022 54.7801 67.4821C55.4002 66.862 49.8605 60.317 42.4069 52.8634C34.9533 45.4098 28.4083 39.8701 27.7882 40.4902Z" fill="#FBC701"/>
<path d="M28.5817 44.7021L31.381 48.0049C32.7212 49.5928 34.3043 51.3394 36.0826 53.2036L36.5209 53.6705V78.5679L28.5815 82.0025L28.5817 44.7021Z" fill="#35D4B6"/>
<path d="M44.46 61.4951L47.0783 63.7276C49.0727 65.487 51.2116 67.0763 53.4711 68.48L56.1705 70.0678L44.4601 75.1315L44.46 61.4951Z" fill="#FE2F75"/>
<path d="M20.6421 49.2238L25.0992 38.8267L26.687 41.5943C27.1792 42.4454 27.7144 43.2695 28.2908 44.0666L28.5878 44.481V82.0034L20.6485 85.4395L20.6421 49.2238Z" fill="#65C2ED"/>
<path d="M12.7444 67.6524L17.5954 56.3342L20.6424 49.2236V85.4378L12.7031 88.8739L12.7444 67.6524Z" fill="#2368B5"/>
<path d="M12.7441 67.6528L12.7029 88.8743L1.58789 93.6839L12.7441 67.6528Z" fill="#FDCF00"/>
<path d="M84.5847 11.1762L79.3926 10.422L83.1493 6.75886L82.2618 1.58887L86.9046 4.03098L91.5492 1.58887L90.6615 6.76036L94.4199 10.422L89.2261 11.1762L86.9046 15.8795L84.5847 11.1762Z" fill="#66C1ED"/>
<path d="M89.0956 6.49024L89.4403 4.49121L87.6492 5.43607C87.1872 5.67908 86.6329 5.67908 86.1709 5.43607L84.3751 4.49121L84.7197 6.49024C84.8071 7.00477 84.6372 7.53035 84.2624 7.89543L82.8096 9.31188L84.8182 9.60401C85.3359 9.67864 85.782 10.0042 86.0137 10.4726L86.9093 12.2921L87.808 10.4804C88.0398 10.012 88.486 9.68652 89.0036 9.61189L91.0106 9.31975L89.5546 7.89712C89.1798 7.53335 89.0084 7.00627 89.0956 6.49024Z" fill="#66C1ED"/>
<path d="M52.7579 59.3747C53.879 58.4299 55.0539 57.5519 56.2781 56.7453L54.5489 54.0825C53.2024 54.9685 51.9114 55.9339 50.681 56.9755L52.7579 59.3747ZM36.6222 43.1263C40.1027 39.0186 42.71 34.2439 44.2868 29.0962L41.2508 28.1641C39.7963 32.9165 37.3861 37.3227 34.1675 41.1114" fill="#BCBDC1"/>
<path d="M45.1472 25.7968C46.3095 20.441 46.3523 14.9011 45.2711 9.52783L42.1573 10.1487C43.153 15.098 43.1148 20.1982 42.043 25.1316L45.1472 25.7968Z" fill="#BCBDC1"/>
<path d="M58.1836 51.9867L59.6238 54.8162C67.0025 51.0752 75.423 49.9177 83.5383 51.5262L84.156 48.4124C75.342 46.6644 66.1975 47.9221 58.1836 51.9867Z" fill="#BCBDC1"/>
<path d="M52.3994 12.7035H55.5751V7.9398H60.3385V4.76434H55.5751V0.000488281H52.3994V4.76434H47.6357V7.9398H52.3994V12.7035Z" fill="#F09221"/>
<path d="M90.5077 34.9331H87.3318V39.6968H82.5684V42.8726H87.3318V47.6359H90.5077V42.8726H95.2711V39.6968H90.5077V34.9331Z" fill="#E1524A"/>
<path d="M57.1626 33.3456C57.1563 35.4622 55.7589 37.3247 53.728 37.9217L54.6125 40.9719C57.9978 39.9762 60.3272 36.8737 60.3383 33.3456C60.3319 31.1448 61.8372 29.2282 63.9776 28.7137C64.3461 28.6263 64.7239 28.5819 65.1018 28.5819H66.6896C71.072 28.5772 74.624 25.025 74.6289 20.6426H71.4532C71.4532 23.2737 69.3207 25.4061 66.6898 25.4061H65.1019C60.7178 25.4066 57.1626 28.9618 57.1626 33.3456Z" fill="#BCBDC1"/>
<path d="M42.8721 46.0485H46.0477C46.0477 43.4174 48.1803 41.285 50.8112 41.285V38.1094C46.4287 38.1156 42.8768 41.6659 42.8721 46.0485Z" fill="#BCBDC1"/>
<path d="M95.2704 22.23H92.0947V25.4056H95.2704V22.23Z" fill="#FBC701"/>
<path d="M71.453 61.9258H68.2773V65.1014H71.453V61.9258Z" fill="#FBC701"/>
<path d="M28.5809 19.0557H25.4053V22.2313H28.5809V19.0557Z" fill="#FBC701"/>
<path d="M65.1511 15.8277L65.0488 19.002L68.2231 19.1042L68.3253 15.93L65.1511 15.8277Z" fill="#FBC701"/>
<path d="M71.453 4.76465H68.2773V7.9403H71.453V4.76465Z" fill="#BCBDC1"/>
<path d="M73.0414 38.1084H69.8657V41.284H73.0414V38.1084Z" fill="#FBC701"/>
<path d="M82.5682 23.8184H79.3926V26.994H82.5682V23.8184Z" fill="#BCBDC1"/>
<path d="M90.5077 58.7495H87.332V61.9252H90.5077V58.7495Z" fill="#BCBDC1"/>
<path d="M55.5746 23.8184H52.3989V26.994H55.5746V23.8184Z" fill="#BCBDC1"/>
<path d="M33.3456 1.58887H30.1699V4.76452H33.3456V1.58887Z" fill="#BCBDC1"/>
<path d="M0.467067 94.8078C0.925901 95.2651 1.61818 95.3969 2.21371 95.1412L57.4898 71.2235L57.5168 71.2124L57.6312 71.1616L57.6233 71.1441C57.8075 71.0695 57.9773 70.9615 58.1234 70.8265C59.9081 69.0401 56.842 64.2607 52.7565 59.375C53.8777 58.4301 55.0526 57.5522 56.2768 56.7455L54.5493 54.0827C53.2028 54.9687 51.9118 55.9342 50.6814 56.9758C48.6171 54.6687 46.4767 52.4441 44.6475 50.6245C42.3832 48.3601 39.5077 45.6038 36.6193 43.1346C40.0999 39.0269 42.7072 34.2522 44.2839 29.1045L41.248 28.1724C39.7935 32.9248 37.3832 37.331 34.1647 41.1197C29.9172 37.7852 26.0127 35.5797 24.4374 37.1501C24.3248 37.2787 24.2327 37.4263 24.1659 37.5851L23.9436 37.4899L0.125613 93.0643C-0.126774 93.6613 0.00823245 94.3506 0.467067 94.8078ZM34.9329 77.5241L30.1694 79.5884V49.0318C31.6985 50.8356 33.3451 52.6346 34.9329 54.2987V77.5241ZM42.8722 74.088L38.1087 76.1523V57.5475C39.5203 58.9544 41.1511 60.5358 42.8722 62.119V74.088ZM46.0478 72.7145V64.9436C48.1151 66.7617 50.3287 68.4067 52.6677 69.858L46.0478 72.7145ZM42.4053 52.8663C47.0529 57.2711 51.2036 62.1728 54.7811 67.4842C49.4746 63.9067 44.5759 59.7594 40.1728 55.1133C35.522 50.707 31.3682 45.8036 27.7877 40.4908C33.099 44.0682 38.0007 48.2173 42.4055 52.8633L42.4053 52.8663ZM22.2301 49.5493L25.3009 42.3833C25.8201 43.2803 26.3855 44.1506 26.9936 44.9906V80.9602L22.2301 83.0245V49.5493ZM19.0544 56.9599V84.3963L14.291 86.4606V68.2783H14.2036L19.0544 56.9599ZM11.1151 75.4854V87.8309L4.61926 90.6415L11.1151 75.4854Z" fill="#044472" fill-opacity="0.96"/>
<path d="M45.1477 25.7968C46.31 20.441 46.3528 14.9011 45.2716 9.52783L42.1578 10.1487C43.1535 15.098 43.1153 20.1982 42.0435 25.1316L45.1477 25.7968Z" fill="#044472" fill-opacity="0.96"/>
<path d="M58.1836 51.9867L59.6238 54.8162C67.0025 51.0752 75.423 49.9177 83.5383 51.5262L84.156 48.4124C75.342 46.6644 66.1975 47.9221 58.1836 51.9867Z" fill="#044472" fill-opacity="0.96"/>
<path d="M52.3994 4.76434H47.6357V7.9398H52.3994V12.7035H55.5751V7.9398H60.3385V4.76434H55.5751V0.000488281H52.3994V4.76434Z" fill="#044472" fill-opacity="0.96"/>
<path d="M87.3318 34.9331V39.6968H82.5684V42.8726H87.3318V47.6359H90.5077V42.8726H95.2711V39.6968H90.5077V34.9331H87.3318Z" fill="#044472" fill-opacity="0.96"/>
<path d="M92.3683 6.20433L93.1146 1.85675C93.2639 0.9929 92.6828 0.171986 91.8189 0.0227293C91.4743 -0.0359609 91.1188 0.0195417 90.809 0.183049L86.9045 2.23646L83 0.183237C82.2235 -0.224782 81.2644 0.0737318 80.8564 0.850206C80.6944 1.15978 80.6372 1.51399 80.6961 1.85694L81.4424 6.20452L78.281 9.28492C77.6569 9.90107 77.6522 10.9061 78.2682 11.5301C78.5095 11.7732 78.8223 11.9335 79.1606 11.9843L83.5256 12.6194L85.477 16.5732C85.8644 17.3592 86.8171 17.6831 87.6032 17.2957C87.9176 17.1417 88.1717 16.8876 88.3256 16.5732L90.2787 12.6179L94.6437 11.9828C95.5123 11.8573 96.1125 11.0507 95.9871 10.1838C95.9362 9.83769 95.7742 9.51855 95.5233 9.27404L92.3683 6.20433ZM88.999 9.60406C88.4813 9.68187 88.0367 10.0106 87.8081 10.4805L86.9094 12.3001L86.0091 10.4805C85.7774 10.0121 85.3311 9.68656 84.8136 9.61193L82.805 9.31979L84.2578 7.90335C84.6325 7.53808 84.8025 7.0125 84.7151 6.49816L84.3705 4.49913L86.1663 5.44398C86.6283 5.687 87.1826 5.687 87.6446 5.44398L89.4404 4.49913L89.0957 6.49816C89.0069 7.01418 89.1782 7.53977 89.5531 7.90504L91.0059 9.31979L88.999 9.60406Z" fill="#044472" fill-opacity="0.96"/>
<path d="M57.1626 33.3456C57.1563 35.4622 55.7589 37.3247 53.728 37.9217L54.6125 40.9719C57.9978 39.9762 60.3272 36.8737 60.3383 33.3456C60.3319 31.1448 61.8372 29.2282 63.9776 28.7137C64.3461 28.6263 64.7239 28.5819 65.1018 28.5819H66.6896C71.072 28.5772 74.624 25.025 74.6289 20.6426H71.4532C71.4532 23.2737 69.3207 25.4061 66.6898 25.4061H65.1019C60.7178 25.4066 57.1626 28.9618 57.1626 33.3456Z" fill="#044472" fill-opacity="0.96"/>
<path d="M46.0479 46.0485C46.0479 43.4174 48.1804 41.285 50.8114 41.285V38.1094C46.4289 38.1141 42.8769 41.6662 42.8721 46.0487H46.0479V46.0485Z" fill="#044472" fill-opacity="0.96"/>
<path d="M95.2704 22.23H92.0947V25.4056H95.2704V22.23Z" fill="#044472" fill-opacity="0.96"/>
<path d="M71.453 61.9258H68.2773V65.1014H71.453V61.9258Z" fill="#044472" fill-opacity="0.96"/>
<path d="M28.5809 19.0557H25.4053V22.2313H28.5809V19.0557Z" fill="#044472" fill-opacity="0.96"/>
<path d="M65.1516 15.8277L65.0493 19.002L68.2236 19.1042L68.3258 15.93L65.1516 15.8277Z" fill="#044472" fill-opacity="0.96"/>
<path d="M71.453 4.76465H68.2773V7.9403H71.453V4.76465Z" fill="#044472" fill-opacity="0.96"/>
<path d="M73.0414 38.1084H69.8657V41.284H73.0414V38.1084Z" fill="#044472" fill-opacity="0.96"/>
<path d="M82.5687 23.8184H79.3931V26.994H82.5687V23.8184Z" fill="#044472" fill-opacity="0.96"/>
<path d="M90.5077 58.749H87.332V61.9247H90.5077V58.749Z" fill="#044472" fill-opacity="0.96"/>
<path d="M55.5751 23.8184H52.3994V26.994H55.5751V23.8184Z" fill="#044472" fill-opacity="0.96"/>
<path d="M33.3456 1.58887H30.1699V4.76452H33.3456V1.58887Z" fill="#044472" fill-opacity="0.96"/>
</svg>
