<svg width="70" height="70" viewBox="0 0 70 70" fill="none" xmlns="http://www.w3.org/2000/svg">
<circle cx="35" cy="35" r="35" fill="#D8F8FF"/>
<path d="M53 33.3543V35.0103C52.9978 38.8919 51.7409 42.6687 49.4168 45.7776C47.0927 48.8864 43.8259 51.1608 40.1036 52.2613C36.3814 53.3619 32.4031 53.2297 28.762 51.8845C25.121 50.5394 22.0124 48.0533 19.8997 44.797C17.7871 41.5408 16.7836 37.6888 17.039 33.8157C17.2944 29.9425 18.795 26.2557 21.3169 23.305C23.8388 20.3544 27.247 18.298 31.0331 17.4426C34.8193 16.5871 38.7805 16.9785 42.326 18.5583" stroke="#3A4080" stroke-opacity="0.96" stroke-width="3" stroke-linecap="round" stroke-linejoin="round"/>
<path d="M52.9996 20.6104L34.9996 38.6283L29.5996 33.2283" stroke="#3A4080" stroke-opacity="0.96" stroke-width="3" stroke-linecap="round" stroke-linejoin="round"/>
</svg>
