<svg width="25" height="25" viewBox="0 0 30 30" fill="none" xmlns="http://www.w3.org/2000/svg">
<path d="M15.0008 0.300781C6.88278 0.300781 0.300781 6.88278 0.300781 15.0008C0.300781 23.1188 6.88278 29.7008 15.0008 29.7008C23.1188 29.7008 29.7008 23.1188 29.7008 15.0008C29.7008 6.88278 23.1188 0.300781 15.0008 0.300781ZM14.8418 20.7608C14.0708 21.5318 13.0598 21.9158 12.0488 21.9158C11.0378 21.9158 10.0268 21.5318 9.25578 20.7608C8.51178 20.0168 8.10378 19.0268 8.10378 17.9678C8.10378 16.9118 8.51178 15.9188 9.25578 15.1748L11.6168 12.8138C13.1558 11.2748 15.6608 11.2748 17.1998 12.8138C17.4668 13.0808 17.6918 13.3868 17.8688 13.7198L16.6238 14.9648C16.5158 14.5898 16.3178 14.2478 16.0418 13.9718C15.1388 13.0688 13.6718 13.0688 12.7718 13.9718L10.4108 16.3328C9.97578 16.7678 9.73578 17.3468 9.73578 17.9678C9.73578 18.5888 9.97578 19.1678 10.4108 19.6028C11.3138 20.5058 12.7808 20.5058 13.6808 19.6028L14.3348 18.9488C14.8658 19.1288 15.4628 19.2338 16.0988 19.2338C16.1858 19.2338 16.2698 19.2278 16.3538 19.2248L16.3628 19.2308L14.8418 20.7608ZM20.7398 14.8478L18.3698 17.2178C16.8248 18.7628 14.3138 18.7628 12.7688 17.2178C12.4988 16.9478 12.2768 16.6418 12.0968 16.3088L13.3478 15.0578C13.4558 15.4328 13.6538 15.7778 13.9298 16.0538C14.8358 16.9598 16.3058 16.9598 17.2118 16.0538L19.5818 13.6838C20.0168 13.2488 20.2568 12.6668 20.2568 12.0428C20.2568 11.4218 20.0168 10.8368 19.5818 10.4018C18.6758 9.49578 17.2058 9.49578 16.2998 10.4018L15.6458 11.0558C15.1118 10.8728 14.5118 10.7678 13.8758 10.7678C13.7888 10.7678 13.7048 10.7738 13.6178 10.7768L13.6088 10.7678L15.1388 9.23778C15.9098 8.46678 16.9268 8.07978 17.9408 8.07978C18.9548 8.07978 19.9688 8.46678 20.7428 9.23778C21.4898 9.98478 21.9008 10.9778 21.9008 12.0398C21.8978 13.1078 21.4868 14.1008 20.7398 14.8478Z" fill="#7E7E7E"/>
</svg>
