<svg width="110" height="110" viewBox="0 0 110 110" fill="none" xmlns="http://www.w3.org/2000/svg">
<g clip-path="url(#clip0)">
<path d="M8.32842 81.7176C4.52053 74.435 2.36414 66.1521 2.36414 57.3648C2.36414 28.2945 25.9301 4.72852 55.0004 4.72852C84.0707 4.72852 107.637 28.2947 107.637 57.3648C107.637 66.1523 105.48 74.435 101.672 81.7178L8.32842 81.7176Z" fill="#3F9ADA"/>
<path d="M58.9474 0.246054C70.799 1.86082 71.9254 8.58027 71.9308 11.0458C71.9319 11.5627 72.2183 12.0421 72.6832 12.2681C78.8479 15.2671 75.5243 29.7209 75.5243 29.7209C74.9051 29.7621 74.2571 30.0129 73.7739 30.247C73.6556 29.5106 73.4624 28.7855 73.1896 28.0844C72.9816 27.5503 72.7218 27.0109 72.3968 26.501C71.833 25.6165 71.5763 24.5732 71.6528 23.53C71.8743 20.5146 71.7677 14.5729 67.7873 12.7822C64.4153 11.265 60.2792 12.1435 57.6413 13.0207C55.9284 13.5902 54.0728 13.5902 52.3596 13.0207C49.722 12.1435 45.5856 11.265 42.2136 12.7822C38.2448 14.568 38.1273 20.4809 38.3464 23.5042C38.4225 24.5552 38.1726 25.6094 37.6046 26.5008C37.2692 27.027 37.003 27.5849 36.7918 28.1358C36.5293 28.8207 36.3426 29.5284 36.2272 30.2468C35.6181 29.9516 34.7474 29.6302 34.0025 29.7355C33.9114 26.5749 33.6196 23.1679 33.6196 23.1679C30.1074 5.96648 46.1865 -1.49268 58.9474 0.246054Z" fill="#665364"/>
<path d="M58.9465 0.245229C70.7981 1.85999 71.9246 8.57945 71.9297 11.0448C71.9308 11.5619 72.2172 12.041 72.6821 12.267C78.8471 15.266 75.5232 29.7199 75.5232 29.7199C74.904 29.7611 74.2561 30.0118 73.7729 30.246C73.6545 29.5095 73.4614 28.7844 73.1885 28.0834C72.9805 27.5493 72.7206 27.0098 72.3957 26.5C71.832 25.6155 71.5752 24.5722 71.6517 23.5289C71.8732 20.5136 71.7667 14.5719 67.7865 12.7811C64.578 11.3374 60.6786 12.0629 58.0358 12.8924C58.0594 12.8488 58.0809 12.8041 58.1056 12.761C62.5191 5.04505 55.0518 0.176909 54.7818 0.00417414C56.189 -0.0198884 57.5868 0.0600335 58.9465 0.245229Z" fill="#543E5B"/>
<path d="M32.67 30.1455C33.5932 29.2994 35.4318 29.7282 36.2268 30.2462C36.0525 31.3308 36.0426 32.4404 36.1932 33.5361L37.1315 40.369C37.1315 40.9199 37.1489 41.4602 37.1807 41.9913C34.893 42.6814 33.7567 40.6275 33.5651 39.2181C33.4828 38.6114 33.3481 38.0135 33.1612 37.4299C32.5525 35.5292 30.3572 32.2649 32.67 30.1455Z" fill="#FCAD6D"/>
<path d="M34.6565 35.8992C35.3141 35.8992 35.926 35.7101 36.4472 35.3878L37.1315 40.3705C37.1315 40.9213 37.1487 41.4617 37.1807 41.9928C34.893 42.6829 33.7567 40.6289 33.5651 39.2196C33.4828 38.6129 33.3481 38.0149 33.1612 37.4312C32.9231 36.6878 32.4427 35.7352 32.0839 34.7246C32.7098 35.443 33.6289 35.8992 34.6565 35.8992Z" fill="#FD995B"/>
<path d="M77.3303 30.1455C76.4073 29.2994 74.5685 29.7282 73.7736 30.2462C73.9478 31.3308 73.9577 32.4404 73.8071 33.5361L72.8689 40.369C72.8689 40.9199 72.8515 41.4602 72.8197 41.9913C75.1073 42.6814 76.2436 40.6275 76.4353 39.2181C76.5176 38.6114 76.6523 38.0135 76.8392 37.4299C77.4478 35.5292 79.6431 32.2649 77.3303 30.1455Z" fill="#FCAD6D"/>
<path d="M73.5869 35.1426C74.1725 35.6146 74.9161 35.8984 75.7267 35.8984C76.4701 35.8984 77.1561 35.6582 77.7168 35.2545C77.3954 36.0653 77.0353 36.8188 76.8394 37.4304C76.6525 38.014 76.5178 38.6121 76.4355 39.2188C76.244 40.6282 75.1077 42.6821 72.8199 41.992C72.8519 41.4611 72.8693 40.9206 72.8693 40.3697L73.5869 35.1426Z" fill="#FD995B"/>
<path d="M66.6719 67.6838C65.4155 70.7296 63.1861 73.5963 60.0451 76.2041C59.6603 76.5233 59.4293 76.9939 59.4111 77.4946L59.4001 77.7967H50.6012L50.5902 77.4949C50.5719 76.9939 50.3408 76.5233 49.9562 76.2041C46.8152 73.5963 44.5855 70.7296 43.3291 67.6838C42.4609 65.5792 42.2182 63.7752 42.1973 62.4736C42.8949 60.4161 43.1364 58.0822 43.2 56.2324C44.392 57.6207 45.643 58.782 46.8382 59.7103C49.1669 61.5187 52.0408 62.5009 55.0005 62.5009C57.9604 62.5009 60.8342 61.5187 63.1629 59.7103C64.3583 58.782 65.6093 57.6207 66.801 56.2324C66.8646 58.082 67.1063 60.4156 67.8037 62.4734C67.7831 63.7752 67.5399 65.5792 66.6719 67.6838Z" fill="#FCAD6D"/>
<path d="M55.0005 62.5009C57.9602 62.5009 60.8342 61.5187 63.1629 59.7103C64.3583 58.782 65.6093 57.6207 66.801 56.2324C66.8648 58.082 67.1063 60.4156 67.8037 62.4734C67.7827 63.7752 67.5397 65.5792 66.6717 67.6838C65.4153 70.7296 63.1859 73.5963 60.0448 76.2041C60.0158 76.2281 59.9896 76.2546 59.9626 76.2801C55.2891 71.904 55.0005 62.5009 55.0005 62.5009Z" fill="#FD995B"/>
<path d="M50.7565 104.051C46.2364 96.0591 43.353 88.1477 41.5178 81.1777C42.2141 82.2487 42.875 83.2142 43.4443 84.0223C43.7451 84.4496 44.2175 84.7003 44.7405 84.7106C45.2655 84.7162 45.7485 84.4876 46.0671 84.0706L47.9148 81.653L49.8073 85.02C50.2961 85.9978 51.2788 86.6049 52.3722 86.6049H57.5948C58.6879 86.6049 59.6704 85.9975 60.1592 85.02L62.065 81.6259L63.9333 84.0704C64.2519 84.4874 64.7403 84.716 65.26 84.7104C65.7829 84.7003 66.2554 84.4494 66.5561 84.022C67.1253 83.214 67.7861 82.2485 68.4824 81.1777C66.6472 88.1473 63.7634 96.0587 59.2431 104.051H50.7565V104.051Z" fill="#BEC8F7"/>
<path d="M52.3726 86.6047H57.5953C57.8471 86.6047 58.0926 86.571 58.3281 86.5095C59.7108 90.2029 60.6209 95.6816 61.2139 100.375C59.5954 103.565 57.7259 106.79 55.5706 109.993C55.3806 109.995 55.1914 110 55.001 110C54.8104 110 54.621 109.995 54.4308 109.993C52.1747 106.64 50.2308 103.264 48.5613 99.9274C49.1588 95.3327 50.0624 90.0241 51.4155 86.4414C51.7169 86.5475 52.0394 86.6047 52.3726 86.6047Z" fill="#543E5B"/>
<path d="M52.3726 86.6047H57.5953C57.8471 86.6047 58.0926 86.571 58.3281 86.5095C59.7108 90.2029 60.6209 95.6816 61.2139 100.375C59.5954 103.565 57.7259 106.79 55.5706 109.993C55.3806 109.995 55.1914 110 55.001 110C54.8104 110 54.621 109.995 54.4308 109.993C52.1747 106.64 50.2308 103.264 48.5613 99.9274C49.1588 95.3327 50.0624 90.0241 51.4155 86.4414C51.7169 86.5475 52.0394 86.6047 52.3726 86.6047Z" fill="#543E5B"/>
<path d="M54.9809 97.0076C57.1822 97.0076 59.1242 95.8993 60.2809 94.2108C60.6554 96.277 60.9628 98.3955 61.2129 100.375C59.5945 103.565 57.7249 106.79 55.5696 109.993C55.3797 109.995 55.1904 110 55 110C54.8093 110 54.62 109.995 54.4298 109.993C52.1738 106.64 50.2299 103.264 48.5603 99.9274C48.8123 97.9899 49.1193 95.9263 49.4908 93.918C50.6172 95.7704 52.6546 97.0076 54.9809 97.0076Z" fill="#422953"/>
<path d="M50.3994 77.4844C53.1647 77.4844 56.5936 77.4844 59.3588 77.4844L62.2246 82.007L60.4397 85.5771C59.9009 86.6548 58.7996 87.3354 57.5947 87.3354H52.3721C51.1672 87.3354 50.066 86.6548 49.5271 85.5771L47.7422 82.007L50.3994 77.4844Z" fill="#665364"/>
<path d="M54.2369 85.5354C55.3709 83.2673 55.2345 80.571 53.8771 78.4293L53.2783 77.4844C55.3361 77.4844 57.4974 77.4844 59.3588 77.4844L62.2246 82.007L60.4397 85.5771C59.9009 86.6548 58.7996 87.3354 57.5947 87.3354H52.3721C52.1957 87.3354 52.0219 87.3191 51.8515 87.2909C52.8718 87.1236 53.7651 86.479 54.2369 85.5354Z" fill="#543E5B"/>
<path d="M46.3158 84.261C45.52 85.302 43.9424 85.274 43.1879 84.203C42.5481 83.2945 41.7605 82.1401 40.9262 80.8358C39.0519 73.3983 38.4199 67.4916 38.1709 64.4971L41.7265 61.3967C42.0449 61.1189 42.5391 61.3585 42.5193 61.7804C42.4052 64.2219 43.0188 70.0399 50.1559 75.9651C51.0097 76.6738 51.1556 77.9296 50.4816 78.8111L46.3158 84.261Z" fill="#E9EFFF"/>
<path d="M69.073 80.8362C68.2394 82.1397 67.4524 83.2934 66.8128 84.2013C66.0583 85.2723 64.4805 85.3002 63.6849 84.2593L59.5193 78.8092C58.8453 77.9274 58.9912 76.6719 59.845 75.9631C66.9819 70.0379 67.5957 64.22 67.4816 61.7785C67.4619 61.3565 67.956 61.117 68.2744 61.3948L71.8301 64.4952C71.5806 67.4899 70.9479 73.3979 69.073 80.8362Z" fill="#E9EFFF"/>
<path d="M62.2241 73.7545C67.1232 68.6374 67.5806 63.9151 67.4807 61.7785C67.4609 61.3565 67.9548 61.117 68.2734 61.3948L71.8291 64.4952C71.6153 67.0658 71.1182 71.7838 69.796 77.7725C68.9927 77.623 68.2644 77.1579 67.7857 76.46C65.0886 72.5275 62.2241 73.7545 62.2241 73.7545Z" fill="#DAE2FE"/>
<path d="M75.7628 96.6862C76.0315 96.3773 76.0592 95.9242 75.8304 95.5837L72.1151 90.0504C71.8472 89.6516 71.7811 89.1613 71.934 88.7056C72.0868 88.2497 72.435 87.8985 72.8894 87.7416L79.0999 85.5979C79.4353 85.4821 79.6744 85.1777 79.7092 84.8221C80.323 78.5747 79.9142 73.0848 79.616 70.3683C79.5646 69.9002 79.4009 69.4535 79.1513 69.0605C80.7269 69.7721 82.2783 70.5629 83.8205 71.4324C85.6151 72.4443 86.4252 73.0352 87.948 73.1595C94.88 73.7263 99.1582 77.1715 101.786 81.5024C94.0638 96.44 79.3988 107.204 62.0598 109.528C68.8461 104.39 74.0771 98.6241 75.7628 96.6862Z" fill="#284268"/>
<path d="M88.8547 97.6659C88.0795 84.1125 80.34 81.1777 80.34 81.1777C80.2195 81.0572 80.0987 80.9412 79.978 80.8284C80.1486 76.2924 79.8487 72.4867 79.616 70.3683C79.5646 69.9002 79.4009 69.4535 79.1513 69.0605C80.7269 69.7721 82.2783 70.563 83.8205 71.4324C85.6151 72.4443 86.4252 73.0352 87.948 73.1596C94.8798 73.7263 99.1582 77.1715 101.786 81.5024C98.5744 87.7148 94.1609 93.2043 88.8547 97.6659Z" fill="#284268"/>
<path d="M71.1197 64.0033C71.1767 63.2855 72.0077 62.9186 72.5779 63.3581L78.6304 68.0248C79.359 68.5866 79.8271 69.4189 79.9275 70.3332C80.207 72.8785 80.6461 78.4898 80.0211 84.852C79.9743 85.3293 79.6555 85.7367 79.2021 85.8931L72.9914 88.037C72.2328 88.2989 71.9277 89.2083 72.3753 89.8746L76.0908 95.4079C76.3989 95.8668 76.3621 96.4739 75.9993 96.8907C74.314 98.828 69.2727 104.383 62.6972 109.438C60.246 109.797 57.7405 109.988 55.1919 109.997C68.4997 90.3202 70.6514 69.9074 71.1197 64.0033Z" fill="#3A4080"/>
<path d="M71.1192 64.0033C71.1762 63.2855 72.0072 62.9186 72.5774 63.3581L78.63 68.0248C79.3585 68.5866 79.8266 69.4189 79.927 70.3332C80.1502 72.3657 80.4746 76.3542 80.2782 81.1178C76.7095 77.5889 73.0277 77.4386 70.8408 77.7881C70.2156 77.888 69.5921 77.7885 69.0417 77.529C70.4517 71.2829 70.9272 66.4235 71.1192 64.0033Z" fill="#3A4080"/>
<path d="M47.8984 109.522C30.5779 107.186 15.9303 96.4278 8.21443 81.5026C10.8424 77.1718 15.1208 73.7265 22.0525 73.1598C23.5753 73.0354 24.3855 72.4443 26.1801 71.4326C27.7222 70.563 29.2736 69.7721 30.8493 69.0605C30.5996 69.4535 30.4359 69.9002 30.3846 70.3683C30.0864 73.0848 29.6775 78.5747 30.2911 84.8221C30.3259 85.1773 30.5651 85.4819 30.9002 85.5979L37.1111 87.7416C37.5655 87.8985 37.9138 88.2497 38.0665 88.7056C38.2193 89.1611 38.1533 89.6514 37.8854 90.0504L34.1699 95.5836C33.9411 95.9242 33.9693 96.3775 34.2376 96.6862C38.9785 102.136 43.7307 106.355 47.8984 109.522Z" fill="#284268"/>
<path d="M31.3702 68.0248L37.4228 63.3581C37.993 62.9186 38.824 63.2855 38.8809 64.0033C39.3493 69.9072 41.499 90.3199 54.8066 109.997C52.2584 109.988 49.7531 109.797 47.3024 109.438C40.7275 104.383 35.6866 98.8282 34.0014 96.8909C33.6387 96.4739 33.6018 95.8668 33.9101 95.4081L37.6254 89.8748C38.0729 89.2086 37.7678 88.2989 37.0092 88.0372L30.7985 85.8933C30.3452 85.7369 30.0264 85.3293 29.9795 84.8522C29.3545 78.49 29.7937 72.8787 30.0732 70.3335C30.1735 69.4189 30.6417 68.5866 31.3702 68.0248Z" fill="#3A4080"/>
<path d="M36.6945 28.0982C37.3618 26.3569 38.3963 25.6361 38.2425 23.5115C37.6895 15.8799 40.4668 13.4536 42.1711 12.6867C45.5132 11.183 49.5742 11.9841 52.3925 12.921C54.0743 13.4805 55.9271 13.4805 57.6089 12.921C60.4272 11.9841 64.4876 11.1827 67.8303 12.6867C69.5381 13.4549 72.3191 15.8867 71.757 23.5375C71.6038 25.6192 72.6229 26.3398 73.2867 28.046C73.954 29.7609 74.1702 31.6638 73.9113 33.549L72.9739 40.3693C72.9739 51.6354 66.1578 58.1446 63.2271 60.42C58.4195 64.1537 51.6169 64.1808 46.7746 60.42C43.8439 58.1443 37.0278 51.635 37.0288 40.3837L36.0906 33.5508C35.8339 31.6844 36.0429 29.7987 36.6945 28.0982Z" fill="#F9BA8F"/>
<path d="M53.3434 60.4199C56.2741 58.1445 63.0902 51.6354 63.0902 40.3692L64.0276 33.549C64.2865 31.6637 64.0703 29.7608 63.403 28.046C62.7392 26.3397 61.7202 25.6191 61.8733 23.5375C62.4184 16.1193 59.8207 13.6078 58.1054 12.7615C60.8902 11.8998 64.6783 11.269 67.8295 12.6866C69.5372 13.4548 72.3182 15.8867 71.7561 23.5375C71.603 25.6191 72.622 26.3397 73.2858 28.046C73.9531 29.7608 74.1691 31.6637 73.9104 33.549L72.9728 40.3692C72.9728 51.6354 66.1567 58.1445 63.226 60.4199C59.431 63.3673 54.3933 64.0028 50.0574 62.2905C51.2171 61.8334 52.3253 61.2107 53.3434 60.4199Z" fill="#FCAD6D"/>
<path d="M19.1296 95.8809C19.7967 95.0969 20.5001 94.3959 21.19 93.7821C22.9564 92.2107 25.7539 93.4905 25.7539 95.8547V101.131C23.4052 99.5582 21.1904 97.8009 19.1296 95.8809Z" fill="#284268"/>
<path d="M2.36372 57.3646C2.36372 40.3844 10.4062 25.2849 22.8875 15.6602C21.3209 20.984 20.6027 28.4298 24.1566 36.7123C29.6136 49.4299 32.6642 57.5334 22.4411 61.2773C15.1912 63.9323 8.00529 65.2274 3.7486 69.402C2.84324 65.5361 2.36372 61.5065 2.36372 57.3646Z" fill="#3A4080"/>
<path d="M107.637 57.3646C107.637 40.3844 99.594 25.2849 87.1129 15.6602C88.6796 20.984 89.3978 28.4298 85.8438 36.7123C80.3868 49.4299 77.3362 57.5334 87.5594 61.2773C94.8093 63.9323 101.995 65.2274 106.252 69.4018C107.157 65.5361 107.637 61.5065 107.637 57.3646Z" fill="#3A4080"/>
</g>
<defs>
<clipPath id="clip0">
<rect width="110" height="110" fill="white" transform="matrix(-1 0 0 1 110 0)"/>
</clipPath>
</defs>
</svg>
