<svg width="35" height="35" viewBox="0 0 35 35" fill="none" xmlns="http://www.w3.org/2000/svg">
<g clip-path="url(#clip0)">
<path d="M32.056 20.1316V14.8685L28.4239 14.1721C28.2068 13.4591 27.9222 12.7761 27.5772 12.1299L29.6536 9.06838L25.9317 5.34653L22.8703 7.42294C22.2241 7.07794 21.541 6.79329 20.8283 6.57646L20.1316 2.94434H14.8685L14.1721 6.57646C13.4591 6.79329 12.7761 7.07794 12.1298 7.42294L9.06837 5.34653L5.34679 9.06838L7.42294 12.1299C7.07794 12.7761 6.79328 13.4591 6.57646 14.1721L2.94434 14.8685V20.1316L6.57646 20.8283C6.79328 21.541 7.07794 22.2241 7.42294 22.8703L5.34679 25.9318L9.06837 29.6536L12.1298 27.5772C12.7761 27.9222 13.4591 28.2069 14.1721 28.4237L14.8685 32.0558H20.1316L20.8283 28.4237C21.541 28.2069 22.2241 27.9222 22.8703 27.5772L25.9317 29.6536L29.6536 25.9318L27.5772 22.8703C27.9222 22.2241 28.2071 21.541 28.4239 20.8283L32.056 20.1316Z" fill="#27488F"/>
<path d="M32.056 20.1316V14.8685L28.4239 14.1721C28.2068 13.4591 27.9221 12.7761 27.5771 12.1299L29.6535 9.06838L25.9317 5.34653L22.8702 7.42294C22.224 7.07794 21.5409 6.79329 20.8282 6.57646L20.1316 2.94434H17.5V32.0561H20.1316L20.8282 28.424C21.5409 28.2069 22.224 27.9222 22.8702 27.5772L25.9317 29.6536L29.6535 25.9318L27.5771 22.8703C27.9221 22.2241 28.207 21.541 28.4239 20.8283L32.056 20.1316Z" fill="#1B3B6B"/>
<path d="M25.2657 17.5001C25.2657 21.7885 21.789 25.265 17.5005 25.265C13.2121 25.265 9.73535 21.7885 9.73535 17.5001C9.73535 13.2116 13.2121 9.73486 17.5005 9.73486C21.789 9.73486 25.2657 13.2116 25.2657 17.5001Z" fill="#F2F6FC"/>
<path d="M25.2652 17.5001C25.2652 21.7885 21.7885 25.265 17.5 25.265C17.5 17.7204 17.5 13.6407 17.5 9.73486C21.7885 9.73486 25.2652 13.2116 25.2652 17.5001Z" fill="#DCE1EB"/>
<path d="M0 35.0002L7.99804 33.1724L10.9847 30.1856L4.81452 24.0151L1.82781 27.0021L0 35.0002Z" fill="#FCF2B6"/>
<path d="M0 34.9999L7.99804 33.1721L10.9847 30.1853L7.89977 27.1001L0 34.9999Z" fill="#FFDE91"/>
<path d="M27.5541 1.27583L3.41504 25.415L4.67274 30.3275L9.58526 31.5852L33.7244 7.44606C35.4256 5.74482 35.4256 2.97707 33.7244 1.27583C32.0234 -0.425143 29.2554 -0.42541 27.5541 1.27583Z" fill="#FFBC36"/>
<path d="M4.67285 30.3275L9.58537 31.5852L33.7245 7.44611C35.4257 5.74487 35.4257 2.97685 33.7245 1.27588C31.585 3.41531 4.67285 30.3275 4.67285 30.3275Z" fill="#FFA426"/>
<path d="M30.9983 10.171L24.8281 4.00103L27.5531 1.27573C29.2544 -0.425243 32.0221 -0.425243 33.7234 1.27573C35.4246 2.97697 35.4246 5.74472 33.7234 7.44596L30.9983 10.171Z" fill="#FE6A16"/>
<path d="M30.9993 10.1711L27.9141 7.08616C27.9141 7.08616 31.0698 3.93041 33.7243 1.27588C35.4256 2.97685 35.4256 5.74487 33.7243 7.44612L30.9993 10.1711Z" fill="#F24500"/>
<path d="M0 35.0001L4.6778 33.9309L1.06918 30.3223L0 35.0001Z" fill="#27488F"/>
<path d="M0 35L4.6778 33.9308L2.87349 32.1265L0 35Z" fill="#1B3B6B"/>
</g>
<defs>
<clipPath id="clip0">
<rect width="35" height="35" fill="white"/>
</clipPath>
</defs>
</svg>
