<svg width="40" height="40" viewBox="0 0 40 40" fill="none" xmlns="http://www.w3.org/2000/svg">
<path d="M6.82219 15.3556C6.82864 14.8487 7.03454 14.3647 7.39529 14.0085C7.75603 13.6524 8.24258 13.4526 8.74953 13.4526C9.25648 13.4526 9.74303 13.6524 10.1038 14.0085C10.4645 14.3647 10.6704 14.8487 10.6769 15.3556V16.9534H16.9531V10.6768H18.5509C19.0621 10.6768 19.5522 10.4738 19.9137 10.1124C20.2751 9.75096 20.4781 9.26077 20.4781 8.74965C20.4781 8.23853 20.2751 7.74834 19.9137 7.38692C19.5522 7.0255 19.0621 6.82246 18.5509 6.82246H16.9531V0.545898C14.7986 0.545898 12.6652 0.970259 10.6747 1.79475C8.68423 2.61924 6.87562 3.82772 5.35215 5.35118C2.27539 8.42795 0.546875 12.6009 0.546875 16.9522H6.82219V15.3556Z" fill="#53376C"/>
<path d="M24.6447 6.82246C24.8978 6.82246 25.1484 6.87231 25.3822 6.96916C25.616 7.06601 25.8285 7.20797 26.0074 7.38692C26.1864 7.56588 26.3283 7.77833 26.4252 8.01215C26.522 8.24596 26.5719 8.49657 26.5719 8.74965C26.5719 9.00273 26.522 9.25333 26.4252 9.48715C26.3283 9.72097 26.1864 9.93342 26.0074 10.1124C25.8285 10.2913 25.616 10.4333 25.3822 10.5301C25.1484 10.627 24.8978 10.6768 24.6447 10.6768H23.0469V16.9534L28.4822 20.0915L27.6834 21.4753C27.5569 21.6945 27.4747 21.9364 27.4417 22.1874C27.4086 22.4383 27.4253 22.6933 27.4908 22.9378C27.5563 23.1822 27.6693 23.4114 27.8234 23.6122C27.9775 23.813 28.1696 23.9815 28.3888 24.1081C28.8314 24.3637 29.3575 24.433 29.8512 24.3007C30.345 24.1684 30.766 23.8454 31.0216 23.4028L31.8206 22.0187L37.2534 25.1562C38.6944 22.6624 39.4533 19.8331 39.4538 16.9529C39.4544 14.0727 38.6966 11.2431 37.2567 8.74873C35.8168 6.25431 33.7455 4.18299 31.251 2.74306C28.7566 1.30312 25.9271 0.545336 23.0469 0.545899V6.82246H24.6447Z" fill="#AD3336"/>
<path d="M31.1698 28.1115L30.3711 29.4953C30.1125 29.932 29.6921 30.2491 29.2012 30.3778C28.7103 30.5065 28.1884 30.4363 27.7489 30.1826C27.3093 29.9288 26.9876 29.512 26.8535 29.0225C26.7194 28.533 26.7838 28.0104 27.0327 27.5681L27.8317 26.1843L22.3961 23.0459V29.3225H20.7983C20.2872 29.3225 19.797 29.5255 19.4356 29.8869C19.0741 30.2483 18.8711 30.7385 18.8711 31.2496C18.8711 31.7608 19.0741 32.2509 19.4356 32.6124C19.797 32.9738 20.2872 33.1768 20.7983 33.1768H22.3961V39.4518C25.2758 39.4527 28.105 38.695 30.5989 37.2552C33.0928 35.8153 35.1635 33.744 36.6027 31.2496L31.1698 28.1115Z" fill="#5D65AC"/>
<path d="M15.3556 27.0848C15.1025 27.0848 14.8518 27.0349 14.6179 26.938C14.384 26.8411 14.1715 26.6991 13.9926 26.52C13.8136 26.341 13.6717 26.1284 13.5749 25.8945C13.4781 25.6606 13.4283 25.4099 13.4284 25.1567C13.4284 24.6455 13.6315 24.1553 13.9929 23.7939C14.3543 23.4324 14.8445 23.2293 15.3556 23.2292H16.9534V16.9539H10.6772V15.3561C10.6707 14.8492 10.4648 14.3652 10.1041 14.009C9.74334 13.6528 9.2568 13.4531 8.74984 13.4531C8.24289 13.4531 7.75635 13.6528 7.3956 14.009C7.03485 14.3652 6.82896 14.8492 6.8225 15.3561V16.9539H0.546875C0.546875 21.3051 2.27539 25.4781 5.35215 28.5549C8.42892 31.6316 12.6019 33.3601 16.9531 33.3601V27.0848H15.3556Z" fill="#C95B10"/>
</svg>
