<svg width="42" height="49" viewBox="0 0 42 49" fill="none" xmlns="http://www.w3.org/2000/svg">
<path d="M37.4635 48.2822H4.05844C2.26144 48.2822 0.804688 46.9837 0.804688 45.3819V3.61806C0.804688 2.01627 2.26144 0.717773 4.05844 0.717773H37.4635C39.2605 0.717773 40.7172 2.01627 40.7172 3.61806V45.3819C40.7172 46.9837 39.2605 48.2822 37.4635 48.2822Z" fill="#9DC6FB"/>
<path d="M37.2441 3.81152V45.1888H4.27299V3.81152H37.2441Z" fill="#ECF4FF"/>
<path d="M37.4655 0.717773H34.7656C36.5626 0.717773 38.0194 2.01627 38.0194 3.61806V45.3819C38.0194 46.9837 36.5626 48.2822 34.7656 48.2822H37.4655C39.2625 48.2822 40.7192 46.9837 40.7192 45.3819V3.61806C40.7192 2.01627 39.2625 0.717773 37.4655 0.717773Z" fill="#9DC6FB"/>
<path d="M12.0832 27.7869C13.2812 27.7869 14.2523 26.9212 14.2523 25.8534C14.2523 24.7856 13.2812 23.9199 12.0832 23.9199C10.8852 23.9199 9.91406 24.7856 9.91406 25.8534C9.91406 26.9212 10.8852 27.7869 12.0832 27.7869Z" fill="#C8EA73"/>
<path d="M29.4348 40.741C30.6327 40.741 31.6039 39.8754 31.6039 38.8075C31.6039 37.7397 30.6327 36.874 29.4348 36.874C28.2368 36.874 27.2656 37.7397 27.2656 38.8075C27.2656 39.8754 28.2368 40.741 29.4348 40.741Z" fill="#C8EA73"/>
<path d="M29.4367 27.7869C30.6347 27.7869 31.6058 26.9212 31.6058 25.8534C31.6058 24.7856 30.6347 23.9199 29.4367 23.9199C28.2387 23.9199 27.2676 24.7856 27.2676 25.8534C27.2676 26.9212 28.2387 27.7869 29.4367 27.7869Z" fill="#DD5790"/>
<path d="M12.0832 40.741C13.2812 40.741 14.2523 39.8754 14.2523 38.8075C14.2523 37.7397 13.2812 36.874 12.0832 36.874C10.8852 36.874 9.91406 37.7397 9.91406 38.8075C9.91406 39.8754 10.8852 40.741 12.0832 40.741Z" fill="#DD5790"/>
<path d="M4.27791 12.309C3.83319 12.309 3.47266 12.6303 3.47266 13.0268V45.1878C3.47266 45.5843 3.83319 45.9056 4.27791 45.9056H37.2481C37.6928 45.9056 38.0533 45.5843 38.0533 45.1878V3.81152C38.0533 3.41503 37.6928 3.09375 37.2481 3.09375H4.27791C3.83319 3.09375 3.47266 3.41503 3.47266 3.81152V9.67717C3.47266 10.0737 3.83319 10.3949 4.27791 10.3949C4.72262 10.3949 5.08316 10.0737 5.08316 9.67717V4.5293H36.4428V44.47H5.08316V13.0268C5.08316 12.6304 4.72262 12.309 4.27791 12.309Z" fill="#284268"/>
<path d="M40.7178 39.0469C41.1625 39.0469 41.523 38.7256 41.523 38.3291V3.61758C41.523 1.62284 39.7024 0 37.4646 0H4.05846C1.82062 0 0 1.62284 0 3.61758V45.3824C0 47.3772 1.82062 49 4.05846 49H37.4646C39.7024 49 41.523 47.3772 41.523 45.3824V41.6787C41.523 41.2822 41.1625 40.9609 40.7178 40.9609C40.2731 40.9609 39.9125 41.2822 39.9125 41.6787V45.3824C39.9125 46.5856 38.8144 47.5645 37.4646 47.5645H4.05846C2.70865 47.5645 1.6105 46.5856 1.6105 45.3824V3.61758C1.6105 2.4144 2.70865 1.43555 4.05846 1.43555H37.4646C38.8144 1.43555 39.9125 2.4144 39.9125 3.61758V38.3291C39.9125 38.7256 40.2731 39.0469 40.7178 39.0469Z" fill="#284268"/>
<path d="M27.3355 11.5006C27.4927 11.6407 27.6988 11.7108 27.9048 11.7108C28.1109 11.7108 28.317 11.6407 28.4742 11.5006L29.4386 10.641L30.4029 11.5006C30.5601 11.6407 30.7663 11.7108 30.9723 11.7108C31.1783 11.7108 31.3845 11.6407 31.5417 11.5006C31.8561 11.2202 31.8561 10.7658 31.5417 10.4855L30.5773 9.62591L31.5417 8.7663C31.8561 8.48589 31.8561 8.03149 31.5417 7.75118C31.2272 7.47096 30.7173 7.47096 30.4029 7.75118L29.4386 8.61079L28.4742 7.75118C28.1597 7.47096 27.6498 7.47096 27.3355 7.75118C27.021 8.03159 27.021 8.48599 27.3355 8.7663L28.2998 9.62591L27.3355 10.4855C27.021 10.7658 27.021 11.2202 27.3355 11.5006Z" fill="#284268"/>
<path d="M28.3524 18.3692H13.1684C12.1263 18.3692 11.2785 19.1249 11.2785 20.0538V23.3026C10.0285 23.6165 9.10938 24.6412 9.10938 25.8544C9.10938 27.0675 10.0285 28.0923 11.2785 28.4061V31.6548C11.2785 32.5836 12.1263 33.3394 13.1684 33.3394H28.3525C28.5066 33.3394 28.6319 33.4511 28.6319 33.5884V36.2572C27.3819 36.5711 26.4627 37.5958 26.4627 38.8089C26.4627 40.2708 27.7971 41.4602 29.4371 41.4602C31.0772 41.4602 32.4115 40.2708 32.4115 38.8089C32.4115 37.5958 31.4923 36.571 30.2424 36.2572V33.5884C30.2424 32.6596 29.3946 31.9038 28.3525 31.9038H13.1684C13.0143 31.9038 12.889 31.7922 12.889 31.6548V28.4061C14.139 28.0922 15.0581 27.0675 15.0581 25.8544C15.0581 24.6412 14.139 23.6164 12.889 23.3026V20.0538C12.889 19.9165 13.0143 19.8048 13.1684 19.8048H28.3525C29.3946 19.8048 30.2424 19.0491 30.2424 18.1202V15.406L30.9285 16.0175C31.0856 16.1576 31.2918 16.2277 31.4978 16.2277C31.7039 16.2277 31.91 16.1576 32.0672 16.0175C32.3817 15.7371 32.3817 15.2827 32.0672 15.0024L30.0065 13.1656C29.7397 12.923 29.2059 12.8541 28.8678 13.1656L26.8071 15.0024C26.4926 15.2828 26.4926 15.7372 26.8071 16.0175C27.1215 16.2977 27.6314 16.2977 27.9458 16.0175L28.6319 15.406V18.1202C28.6318 18.2575 28.5065 18.3692 28.3524 18.3692ZM30.8009 38.8088C30.8009 39.4792 30.189 40.0245 29.437 40.0245C28.685 40.0245 28.0731 39.4792 28.0731 38.8088C28.0731 38.1384 28.685 37.5931 29.437 37.5931C30.189 37.5931 30.8009 38.1384 30.8009 38.8088ZM13.4476 25.8544C13.4476 26.5248 12.8358 27.0701 12.0838 27.0701C11.3318 27.0701 10.7199 26.5248 10.7199 25.8544C10.7199 25.184 11.3318 24.6386 12.0838 24.6386C12.8358 24.6386 13.4476 25.184 13.4476 25.8544Z" fill="#284268"/>
<path d="M29.4392 23.2021C27.7992 23.2021 26.4648 24.3915 26.4648 25.8534C26.4648 27.3153 27.7992 28.5047 29.4392 28.5047C31.0793 28.5047 32.4136 27.3153 32.4136 25.8534C32.4136 24.3915 31.0793 23.2021 29.4392 23.2021ZM29.4392 27.0692C28.6872 27.0692 28.0753 26.5239 28.0753 25.8535C28.0753 25.1831 28.6872 24.6378 29.4392 24.6378C30.1912 24.6378 30.8031 25.1831 30.8031 25.8535C30.8031 26.5239 30.1912 27.0692 29.4392 27.0692Z" fill="#284268"/>
<path d="M9.10938 38.8085C9.10938 40.2704 10.4437 41.4598 12.0838 41.4598C13.7238 41.4598 15.0581 40.2704 15.0581 38.8085C15.0581 37.3466 13.7238 36.1572 12.0838 36.1572C10.4437 36.1572 9.10938 37.3466 9.10938 38.8085ZM13.4476 38.8085C13.4476 39.4789 12.8358 40.0242 12.0838 40.0242C11.3318 40.0242 10.7199 39.4789 10.7199 38.8085C10.7199 38.1381 11.3318 37.5928 12.0838 37.5928C12.8358 37.5928 13.4476 38.1381 13.4476 38.8085Z" fill="#284268"/>
<path d="M7.74666 8.97656H18.5925C19.0372 8.97656 19.3978 8.65529 19.3978 8.25879C19.3978 7.86229 19.0372 7.54102 18.5925 7.54102H7.74666C7.30194 7.54102 6.94141 7.86229 6.94141 8.25879C6.94141 8.65529 7.30194 8.97656 7.74666 8.97656Z" fill="#284268"/>
<path d="M7.74666 12.0693H18.5925C19.0372 12.0693 19.3978 11.7481 19.3978 11.3516C19.3978 10.9551 19.0372 10.6338 18.5925 10.6338H7.74666C7.30194 10.6338 6.94141 10.9551 6.94141 11.3516C6.94141 11.7481 7.30194 12.0693 7.74666 12.0693Z" fill="#284268"/>
<path d="M7.74666 15.1641H14.2383C14.683 15.1641 15.0435 14.8428 15.0435 14.4463C15.0435 14.0498 14.683 13.7285 14.2383 13.7285H7.74666C7.30194 13.7285 6.94141 14.0498 6.94141 14.4463C6.94141 14.8428 7.30194 15.1641 7.74666 15.1641Z" fill="#284268"/>
</svg>
