<svg width="16" height="16" viewBox="0 0 16 16" fill="none" xmlns="http://www.w3.org/2000/svg">
<path fill-rule="evenodd" clip-rule="evenodd" d="M0.75 0C0.335786 0 0 0.335786 0 0.75V6.31537C0 6.72959 0.335786 7.06537 0.75 7.06537H6.31537C6.72959 7.06537 7.06537 6.72959 7.06537 6.31537V0.75C7.06537 0.335786 6.72959 0 6.31537 0H0.75ZM1.5 5.56537V1.5H5.56537V5.56537H1.5ZM9.4957 0C9.08149 0 8.7457 0.335786 8.7457 0.75V6.31537C8.7457 6.72959 9.08149 7.06537 9.4957 7.06537H15.0611C15.4753 7.06537 15.8111 6.72959 15.8111 6.31537V0.75C15.8111 0.335786 15.4753 0 15.0611 0H9.4957ZM10.2457 5.56537V1.5H14.3111V5.56537H10.2457ZM8.7457 9.4957C8.7457 9.08149 9.08149 8.7457 9.4957 8.7457H15.0611C15.4753 8.7457 15.8111 9.08149 15.8111 9.4957V15.0611C15.8111 15.4753 15.4753 15.8111 15.0611 15.8111H9.4957C9.08149 15.8111 8.7457 15.4753 8.7457 15.0611V9.4957ZM10.2457 10.2457V14.3111H14.3111V10.2457H10.2457ZM0.75 8.7457C0.335786 8.7457 0 9.08149 0 9.4957V15.0611C0 15.4753 0.335786 15.8111 0.75 15.8111H6.31537C6.72959 15.8111 7.06537 15.4753 7.06537 15.0611V9.4957C7.06537 9.08149 6.72959 8.7457 6.31537 8.7457H0.75ZM1.5 14.3111V10.2457H5.56537V14.3111H1.5Z" fill="#7E7E7E"/>
</svg>
