<svg width="42" height="42" viewBox="0 0 42 42" fill="none" xmlns="http://www.w3.org/2000/svg">
<circle cx="21" cy="21" r="21" fill="#432B59"/>
<g clip-path="url(#clip0_1_6892)">
<path d="M16.7345 28.875C16.8605 28.875 16.9865 28.8271 17.0823 28.7306L20.1995 25.6134C20.3399 25.473 20.3826 25.261 20.3064 25.0773C20.2303 24.8935 20.0505 24.7734 19.8517 24.7734H18.3751V21.8203C18.3751 21.3682 18.0069 21 17.5548 21H15.9141C15.462 21 15.0938 21.3682 15.0938 21.8203V24.7734H13.6173C13.4184 24.7734 13.2386 24.8935 13.1625 25.0773C13.0864 25.261 13.1284 25.473 13.2695 25.6134L16.3866 28.7306C16.4825 28.8271 16.6085 28.875 16.7345 28.875Z" fill="white"/>
<path d="M15.0938 15.0938H26.9062C27.9891 15.0938 28.875 15.9797 28.875 17.0625V24.9375C28.875 26.0203 27.9891 26.9062 26.9062 26.9062H20.7572L21.1247 26.5388C21.3937 26.2762 21.5578 25.9481 21.6234 25.5938H26.9062C27.2672 25.5938 27.5625 25.2984 27.5625 24.9375V17.0625C27.5625 16.7016 27.2672 16.4062 26.9062 16.4062H15.0938C14.7328 16.4062 14.4375 16.7016 14.4375 17.0625V20.2781C14.0372 20.6719 13.7812 21.2166 13.7812 21.8203V23.4609H13.6172C13.4466 23.4609 13.2825 23.4872 13.125 23.5331V17.0625C13.125 15.9797 14.0109 15.0938 15.0938 15.0938Z" fill="white"/>
<path d="M24.1172 18.375H28.0547C28.3264 18.375 28.5469 18.5955 28.5469 18.8672V23.1328C28.5469 23.4045 28.3264 23.625 28.0547 23.625H24.1172C23.1217 23.625 22.3125 22.8158 22.3125 21.8203V20.1797C22.3125 19.1842 23.1217 18.375 24.1172 18.375ZM24.9375 22.3125C25.6627 22.3125 26.25 21.7251 26.25 21C26.25 20.2748 25.6627 19.6875 24.9375 19.6875C24.2123 19.6875 23.625 20.2748 23.625 21C23.625 21.7251 24.2123 22.3125 24.9375 22.3125Z" fill="white"/>
</g>
<defs>
<clipPath id="clip0_1_6892">
<rect width="15.75" height="15.75" fill="white" transform="matrix(-1 0 0 1 28.875 13.125)"/>
</clipPath>
</defs>
</svg>
