<svg width="13" height="14" viewBox="0 0 13 14" fill="none" xmlns="http://www.w3.org/2000/svg">
<path d="M1.75 3.9375C1.75 2.40975 2.99308 1.16667 4.52083 1.16667H9.84842C9.6565 0.49525 9.04458 0 8.3125 0H1.60417C0.71925 0 0 0.71925 0 1.60417V10.6458C0 11.5307 0.71925 12.25 1.60417 12.25H1.75V3.9375Z" fill="#3A4080"/>
<path d="M11.2305 2.33398H4.52214C3.63722 2.33398 2.91797 3.05323 2.91797 3.93815V12.3965C2.91797 13.2814 3.63722 14.0007 4.52214 14.0007H11.2305C12.1154 14.0007 12.8346 13.2814 12.8346 12.3965V3.93815C12.8346 3.05323 12.1154 2.33398 11.2305 2.33398ZM10.0638 12.2507H5.6888C5.4473 12.2507 5.2513 12.0547 5.2513 11.8132C5.2513 11.5717 5.4473 11.3757 5.6888 11.3757H10.0638C10.3053 11.3757 10.5013 11.5717 10.5013 11.8132C10.5013 12.0547 10.3053 12.2507 10.0638 12.2507ZM10.0638 9.91732H5.6888C5.4473 9.91732 5.2513 9.72132 5.2513 9.47982C5.2513 9.23832 5.4473 9.04232 5.6888 9.04232H10.0638C10.3053 9.04232 10.5013 9.23832 10.5013 9.47982C10.5013 9.72132 10.3053 9.91732 10.0638 9.91732ZM10.0638 7.87565H5.6888C5.4473 7.87565 5.2513 7.67965 5.2513 7.43815C5.2513 7.19665 5.4473 7.00065 5.6888 7.00065H10.0638C10.3053 7.00065 10.5013 7.19665 10.5013 7.43815C10.5013 7.67965 10.3053 7.87565 10.0638 7.87565ZM10.0638 5.54232H5.6888C5.4473 5.54232 5.2513 5.34632 5.2513 5.10482C5.2513 4.86332 5.4473 4.66732 5.6888 4.66732H10.0638C10.3053 4.66732 10.5013 4.86332 10.5013 5.10482C10.5013 5.34632 10.3053 5.54232 10.0638 5.54232Z" fill="#3A4080"/>
</svg>
