<svg width="19" height="19" viewBox="0 0 19 19" fill="none" xmlns="http://www.w3.org/2000/svg">
<path d="M0.326172 4.49025H4.45314V0.326172L0.326172 4.49025Z" fill="#414141"/>
<path d="M14.5098 10.0566C12.0543 10.0566 10.0566 12.0543 10.0566 14.5098C10.0566 16.9652 12.0543 19 14.5098 19C16.9652 19 19 16.9652 19 14.5098C19 12.0543 16.9652 10.0566 14.5098 10.0566ZM16.5732 14.3467L14.3467 16.5732C14.1292 16.7907 13.777 16.7907 13.5595 16.5732L12.4463 15.46C12.2288 15.2425 12.2288 14.8902 12.4463 14.6728C12.6637 14.4554 13.016 14.4554 13.2334 14.6728L13.9531 15.3926L15.7861 13.5595C16.0036 13.3421 16.3558 13.3421 16.5733 13.5595C16.7907 13.777 16.7907 14.1292 16.5732 14.3467Z" fill="#414141"/>
<path d="M2.7832 12.2832H9.41521C10.2766 10.3208 12.2331 8.94336 14.5098 8.94336V1.66992C14.5098 0.74909 13.7607 0 12.8398 0H5.56641V5.04688C5.56641 5.35455 5.31744 5.60352 5.00977 5.60352H0V17.293C0 18.2138 0.74909 19 1.66992 19H11.2044C10.1249 18.1963 9.33412 16.9882 9.05587 15.623H2.7832C2.47553 15.623 2.22656 15.3741 2.22656 15.0664C2.22656 14.7587 2.47553 14.5098 2.7832 14.5098H8.94336C8.94336 14.1286 8.98251 13.7563 9.05587 13.3965H2.7832C2.47553 13.3965 2.22656 13.1475 2.22656 12.8398C2.22656 12.5322 2.47553 12.2832 2.7832 12.2832ZM7.23633 3.37695H11.7266C12.0342 3.37695 12.2832 3.62592 12.2832 3.93359C12.2832 4.24127 12.0342 4.49023 11.7266 4.49023H7.23633C6.92865 4.49023 6.67969 4.24127 6.67969 3.93359C6.67969 3.62592 6.92865 3.37695 7.23633 3.37695ZM7.23633 5.60352H11.7266C12.0342 5.60352 12.2832 5.85248 12.2832 6.16016C12.2832 6.46783 12.0342 6.7168 11.7266 6.7168H7.23633C6.92865 6.7168 6.67969 6.46783 6.67969 6.16016C6.67969 5.85248 6.92865 5.60352 7.23633 5.60352ZM2.7832 7.83008H11.7266C12.0342 7.83008 12.2832 8.07905 12.2832 8.38672C12.2832 8.69439 12.0342 8.94336 11.7266 8.94336H2.7832C2.47553 8.94336 2.22656 8.69439 2.22656 8.38672C2.22656 8.07905 2.47553 7.83008 2.7832 7.83008ZM2.7832 10.0566H9.70874C10.0164 10.0566 10.2654 10.3056 10.2654 10.6133C10.2654 10.921 10.0164 11.1699 9.70874 11.1699H2.7832C2.47553 11.1699 2.22656 10.921 2.22656 10.6133C2.22656 10.3056 2.47553 10.0566 2.7832 10.0566Z" fill="#414141"/>
</svg>
