<svg width="13" height="12" viewBox="0 0 13 12" fill="none" xmlns="http://www.w3.org/2000/svg">
<path d="M12.0228 8.73372V11.3949C12.0228 11.4479 12.0152 11.4971 12.0039 11.5426C11.9509 11.8038 11.72 12.0006 11.4474 12.0006H0.571613C0.280128 12.0006 0.0378552 11.7773 0.00757106 11.4934C2.87684e-08 11.4593 0 11.429 0 11.3912V8.72994C0 8.41574 0.257415 8.16211 0.567828 8.16211C0.723034 8.16211 0.866884 8.22646 0.969093 8.32867C1.0713 8.43088 1.13566 8.57473 1.13566 8.72994V10.8612H10.8909V8.72994C10.8909 8.41574 11.1483 8.16211 11.4588 8.16211C11.614 8.16211 11.7578 8.22646 11.86 8.32867C11.9585 8.43467 12.0228 8.57852 12.0228 8.73372Z" fill="#3A4080"/>
<path d="M9.29291 6.06818L6.50298 8.85811C6.4992 8.86568 6.49163 8.86946 6.48784 8.87325C6.38563 8.97546 6.25314 9.03981 6.12065 9.05874C6.10929 9.05874 6.09793 9.06253 6.08658 9.06253C6.06386 9.06631 6.04115 9.06631 6.01844 9.06631L5.95408 9.06253C5.94273 9.06253 5.93137 9.05874 5.92001 9.05874C5.78373 9.03981 5.65503 8.97546 5.55282 8.87325C5.54903 8.86946 5.54146 8.86189 5.53768 8.85811L2.74775 6.06818C2.61904 5.93948 2.55469 5.76913 2.55469 5.59878C2.55469 5.42843 2.61904 5.25808 2.74775 5.12937C3.00516 4.87196 3.42536 4.87196 3.68656 5.12937L5.36354 6.80636V0.662465C5.36354 0.299056 5.6626 0 6.02601 0C6.20771 0 6.37428 0.0757103 6.49541 0.193061C6.61655 0.314198 6.68847 0.476975 6.68847 0.662465V6.80636L8.36546 5.12937C8.62287 4.87196 9.04306 4.87196 9.30427 5.12937C9.55032 5.39058 9.55032 5.81077 9.29291 6.06818Z" fill="#3A4080"/>
</svg>
