<svg width="35" height="34" viewBox="0 0 35 34" fill="none" xmlns="http://www.w3.org/2000/svg">
<path opacity="0.6" d="M17.5 34C26.8888 34 34.5 26.3888 34.5 17C34.5 7.61116 26.8888 0 17.5 0C8.11116 0 0.5 7.61116 0.5 17C0.5 26.3888 8.11116 34 17.5 34Z" fill="#9FD7FF"/>
<path d="M13.5322 17.8349V19.7349H15.4322L20.5112 14.6559L18.6112 12.7559L13.5322 17.8349Z" fill="#3A4080"/>
<path d="M22.0191 12.4411L20.8311 11.2561C20.7357 11.1609 20.6064 11.1074 20.4716 11.1074C20.3369 11.1074 20.2076 11.1609 20.1122 11.2561L19.1191 12.2481L21.0191 14.1481L22.0121 13.1551C22.1068 13.0608 22.1605 12.9331 22.1618 12.7995C22.1631 12.6659 22.1119 12.5372 22.0191 12.4411Z" fill="#3A4080"/>
<path d="M23.689 21.2637H11.5V23.2957H23.689V21.2637Z" fill="#3A4080"/>
</svg>
