<svg width="8" height="8" viewBox="0 0 8 8" fill="none" xmlns="http://www.w3.org/2000/svg">
<g clip-path="url(#clip0)">
<path d="M6.14288 4.57303H5.85714C5.8154 4.57303 5.78116 4.5864 5.75452 4.61326C5.72765 4.63997 5.71428 4.6742 5.71428 4.71588V6.14444C5.71428 6.34088 5.64439 6.509 5.50452 6.6489C5.36465 6.78877 5.19647 6.85865 5.00003 6.85865H1.28569C1.08926 6.85865 0.921095 6.78877 0.781196 6.6489C0.641328 6.50902 0.571402 6.3409 0.571402 6.14444V2.43016C0.571402 2.23373 0.641312 2.06562 0.781196 1.92574C0.921095 1.78584 1.08926 1.71593 1.28569 1.71593H4.42852C4.47025 1.71593 4.50449 1.7025 4.53125 1.67575C4.558 1.64896 4.57137 1.61476 4.57137 1.57306V1.28731C4.57137 1.24568 4.558 1.21142 4.53125 1.18469C4.50449 1.1579 4.47025 1.14453 4.42852 1.14453H1.28569C0.931555 1.14453 0.628709 1.27028 0.377182 1.52176C0.125748 1.77322 0 2.07607 0 2.4302V6.1445C0 6.49862 0.125748 6.80151 0.377197 7.0529C0.628725 7.30439 0.931571 7.4302 1.2857 7.4302H5.00003C5.35415 7.4302 5.65702 7.30439 5.90852 7.0529C6.16003 6.80151 6.28578 6.49864 6.28578 6.1445V4.71599C6.28578 4.67426 6.27239 4.64002 6.24553 4.61326C6.21875 4.5864 6.1845 4.57303 6.14288 4.57303Z" fill="#C4C4C4"/>
<path d="M7.91575 0.657077C7.85919 0.600521 7.79214 0.572266 7.71482 0.572266H5.42912C5.35175 0.572266 5.28475 0.600521 5.22824 0.657077C5.17168 0.713603 5.14336 0.780574 5.14336 0.857958C5.14336 0.935343 5.17168 1.00233 5.22824 1.05889L6.01392 1.84458L3.10325 4.75531C3.07345 4.78507 3.05859 4.81931 3.05859 4.85793C3.05859 4.8967 3.0735 4.93093 3.10325 4.96068L3.61219 5.46955C3.64194 5.49931 3.67618 5.51415 3.71487 5.51415C3.75355 5.51415 3.78781 5.49932 3.81755 5.46955L6.72824 2.55887L7.51398 3.34457C7.57049 3.40112 7.63748 3.42941 7.71486 3.42941C7.79225 3.42941 7.85924 3.40112 7.91581 3.34457C7.97237 3.28803 8.00062 3.22107 8.00062 3.14369V0.857958C8.00061 0.780527 7.97226 0.713603 7.91575 0.657077Z" fill="#C4C4C4"/>
</g>
<defs>
<clipPath id="clip0">
<rect width="8" height="8" fill="white"/>
</clipPath>
</defs>
</svg>
