<svg width="40" height="40" viewBox="0 0 40 40" fill="none" xmlns="http://www.w3.org/2000/svg">
<circle cx="20" cy="20" r="20" fill="#F5F5F5"/>
<path d="M24.6562 20.0313C23.6224 20.0313 22.7812 20.8724 22.7812 21.9063C22.7812 22.9402 23.6224 23.7813 24.6562 23.7813H27.3125C27.3231 23.7813 27.3334 23.7802 27.3439 23.7797C27.3543 23.7802 27.3645 23.7813 27.375 23.7813C27.7202 23.7813 28 23.5015 28 23.1563V18.25C28 17.418 27.591 16.68 26.9639 16.2253L24.8377 12.7372C24.751 12.595 24.6111 12.4932 24.449 12.4546C24.2869 12.4159 24.1162 12.4436 23.9746 12.5314L22.4066 13.5037L21.6994 12.3071C21.6144 12.1632 21.4753 12.0594 21.3132 12.0187C21.1512 11.9781 20.9795 12.0041 20.8368 12.0909L14.8159 15.75H13.875C13.5356 15.75 13.2585 15.4781 13.2502 15.1406C13.2585 14.8032 13.5356 14.5313 13.875 14.5313H15.0312C15.3764 14.5313 15.6562 14.2515 15.6562 13.9063C15.6562 13.5611 15.3764 13.2813 15.0312 13.2813H13.875C12.9907 13.2813 12.2475 13.8967 12.0509 14.7217C12.0182 14.7976 12 14.881 12 14.9688V15.125V15.1563V25.5C12 26.8785 13.1215 28 14.5 28H25.5C26.5778 28 27.531 27.3134 27.8719 26.2916C27.9812 25.9641 27.8042 25.6101 27.4768 25.5009C27.1494 25.3917 26.7954 25.5686 26.6862 25.896C26.5157 26.4068 26.0391 26.75 25.5 26.75H14.5C13.8108 26.75 13.25 26.1893 13.25 25.5V16.8928C13.4456 16.9622 13.6559 17 13.875 17H25.5C26.1892 17 26.75 17.5608 26.75 18.25V20.0313H24.6562ZM26.75 22.5313H24.6562C24.3116 22.5313 24.0312 22.2509 24.0312 21.9063C24.0312 21.5616 24.3116 21.2813 24.6562 21.2813H26.75V22.5313ZM17.2228 15.7501L20.9452 13.4878L21.6108 14.6141C21.6235 14.6448 21.6382 14.6752 21.6563 14.7044C21.6699 14.7263 21.685 14.7467 21.7007 14.7664L22.282 15.7501H17.2228ZM23.7339 15.75L23.0426 14.5801L24.0981 13.9256L25.2102 15.75H23.7339Z" fill="#2A2A2A"/>
</svg>
