<svg width="52" height="52" viewBox="0 0 52 52" fill="none" xmlns="http://www.w3.org/2000/svg">
<circle cx="26" cy="26" r="26" fill="#E7FFEC"/>
<path d="M19.6231 37.1441C19.7895 37.1441 19.9559 37.0809 20.0824 36.9535L24.1991 32.8368C24.3846 32.6513 24.4409 32.3714 24.3404 32.1287C24.2398 31.8861 24.0024 31.7275 23.7398 31.7275H21.7898V27.8275C21.7898 27.2303 21.3036 26.7441 20.7064 26.7441H18.5398C17.9426 26.7441 17.4564 27.2303 17.4564 27.8275V31.7275H15.5064C15.2438 31.7275 15.0064 31.8861 14.9058 32.1287C14.8053 32.3714 14.8608 32.6513 15.0471 32.8368L19.1638 36.9535C19.2903 37.0809 19.4567 37.1441 19.6231 37.1441Z" fill="#2EB36B"/>
<path d="M17.4563 18.9434H33.0563C34.4863 18.9434 35.6562 20.1134 35.6562 21.5434V31.9434C35.6562 33.3734 34.4863 34.5434 33.0563 34.5434H24.9356L25.4209 34.058C25.7762 33.7114 25.9929 33.278 26.0796 32.81H33.0563C33.5329 32.81 33.9229 32.42 33.9229 31.9434V21.5434C33.9229 21.0667 33.5329 20.6767 33.0563 20.6767H17.4563C16.9796 20.6767 16.5896 21.0667 16.5896 21.5434V25.79C16.0609 26.31 15.7229 27.0294 15.7229 27.8267V29.9934H15.5063C15.2809 29.9934 15.0643 30.028 14.8563 30.0887V21.5434C14.8563 20.1134 16.0263 18.9434 17.4563 18.9434Z" fill="#2EB36B"/>
<path d="M29.3736 23.2764H34.5736C34.9324 23.2764 35.2236 23.5676 35.2236 23.9264V29.5597C35.2236 29.9185 34.9324 30.2097 34.5736 30.2097H29.3736C28.0589 30.2097 26.9903 29.1411 26.9903 27.8264V25.6597C26.9903 24.345 28.0589 23.2764 29.3736 23.2764ZM30.457 28.4764C31.4146 28.4764 32.1903 27.7007 32.1903 26.743C32.1903 25.7854 31.4146 25.0097 30.457 25.0097C29.4993 25.0097 28.7236 25.7854 28.7236 26.743C28.7236 27.7007 29.4993 28.4764 30.457 28.4764Z" fill="#2EB36B"/>
</svg>
