<svg width="42" height="42" viewBox="0 0 42 42" fill="none" xmlns="http://www.w3.org/2000/svg">
<circle cx="21" cy="21" r="21" fill="#FFDEDE"/>
<g clip-path="url(#clip0_1_6905)">
<path d="M26.086 28.8748H24.4453C23.9932 28.8748 23.625 28.5067 23.625 28.0545V25.1014H22.1485C21.9496 25.1014 21.7698 24.9813 21.6937 24.7975C21.6176 24.6138 21.6596 24.4018 21.8007 24.2614L24.9178 21.1442C25.1101 20.9519 25.4218 20.9519 25.6141 21.1442L28.7313 24.2614C28.8717 24.4018 28.9144 24.6138 28.8383 24.7975C28.7621 24.9813 28.5823 25.1014 28.3835 25.1014H26.9063V28.0545C26.9063 28.5067 26.5381 28.8748 26.086 28.8748Z" fill="
#BC1F1F"/>
<path d="M26.9062 15.0938H15.0938C14.0109 15.0938 13.125 15.9797 13.125 17.0625V24.9375C13.125 26.0203 14.0109 26.9062 15.0938 26.9062H22.3125V26.4141H22.1484C21.525 26.4141 20.9672 26.0991 20.6456 25.5938H15.0938C14.7328 25.5938 14.4375 25.2984 14.4375 24.9375V17.0625C14.4375 16.7016 14.7328 16.4062 15.0938 16.4062H26.9062C27.2672 16.4062 27.5625 16.7016 27.5625 17.0625V21.2428L28.875 22.5553V17.0625C28.875 15.9797 27.9891 15.0938 26.9062 15.0938Z" fill="
#BC1F1F"/>
<path d="M17.8828 18.375H13.9453C13.6736 18.375 13.4531 18.5955 13.4531 18.8672V23.1328C13.4531 23.4045 13.6736 23.625 13.9453 23.625H17.8828C18.8783 23.625 19.6875 22.8158 19.6875 21.8203V20.1797C19.6875 19.1842 18.8783 18.375 17.8828 18.375ZM17.0625 22.3125C16.3373 22.3125 15.75 21.7251 15.75 21C15.75 20.2748 16.3373 19.6875 17.0625 19.6875C17.7877 19.6875 18.375 20.2748 18.375 21C18.375 21.7251 17.7877 22.3125 17.0625 22.3125Z" fill="
#BC1F1F"/>
</g>
<defs>
<clipPath id="clip0_1_6905">
<rect width="15.75" height="15.75" fill="
#BC1F1F" transform="translate(13.125 13.125)"/>
</clipPath>
</defs>
</svg>
