<svg width="24" height="24" viewBox="0 0 24 24" fill="none" xmlns="http://www.w3.org/2000/svg">
<path d="M18.9844 12.047C17.4336 12.047 16.1719 13.3086 16.1719 14.8595C16.1719 16.4103 17.4336 17.672 18.9844 17.672H22.9688C22.9846 17.672 23.0002 17.6704 23.0159 17.6696C23.0314 17.6703 23.0467 17.6719 23.0625 17.6719C23.5803 17.6719 24 17.2522 24 16.7344V9.37503C24 8.12694 23.3865 7.01999 22.4459 6.338L19.2565 1.10582C19.1265 0.89244 18.9166 0.739815 18.6735 0.681878C18.4304 0.623846 18.1743 0.665331 17.9619 0.79705L15.6098 2.25561L14.5492 0.460581C14.4216 0.244768 14.213 0.0890495 13.9699 0.028112C13.7268 -0.0328255 13.4693 0.00622137 13.2551 0.136346L4.22386 5.62503H2.8125C2.30339 5.62503 1.88775 5.21713 1.87528 4.71097C1.88775 4.20482 2.30339 3.79691 2.8125 3.79691H4.54688C5.06466 3.79691 5.48438 3.37719 5.48438 2.85941C5.48438 2.34163 5.06466 1.92191 4.54688 1.92191H2.8125C1.48603 1.92191 0.371203 2.84507 0.0764062 4.08261C0.027375 4.19633 0 4.32149 0 4.45316V4.68753V4.73441V20.25C0 22.3178 1.68225 24 3.75 24H20.25C21.8667 24 23.2965 22.9701 23.8079 21.4373C23.9717 20.9462 23.7064 20.4152 23.2152 20.2513C22.7241 20.0875 22.1931 20.3528 22.0292 20.844C21.7736 21.6102 21.0586 22.125 20.25 22.125H3.75C2.71613 22.125 1.875 21.2839 1.875 20.25V7.33921C2.16839 7.44327 2.48391 7.50003 2.8125 7.50003H20.25C21.2839 7.50003 22.125 8.34116 22.125 9.37503V12.047H18.9844ZM22.125 15.7969H18.9844C18.4674 15.797 18.0469 15.3764 18.0469 14.8594C18.0469 14.3425 18.4674 13.9219 18.9844 13.9219H22.125V15.7969ZM7.83413 5.62508L13.4178 2.23166L14.4161 3.92108C14.4353 3.96725 14.4573 4.01277 14.4845 4.05664C14.5049 4.0895 14.5275 4.12011 14.5511 4.14955L15.423 5.62508H7.83413ZM17.6009 5.62503L16.5639 3.87022L18.1472 2.88842L19.8154 5.62503H17.6009Z" fill="#7E7E7E"/>
</svg>
