<svg width="8" height="8" viewBox="0 0 8 8" fill="currentColor" xmlns="http://www.w3.org/2000/svg">
<path d="M0.480845 3.43849C0.513579 3.43318 0.546707 3.43073 0.579852 3.43115H6.22369L6.10063 3.37391C5.98033 3.31698 5.8709 3.23949 5.77722 3.14496L4.19455 1.56228C3.98611 1.3633 3.95108 1.04321 4.11155 0.803858C4.29831 0.548802 4.65647 0.493422 4.91155 0.680184C4.93215 0.695281 4.95174 0.711738 4.97014 0.729446L7.83212 3.59143C8.05579 3.81484 8.05598 4.17725 7.83257 4.40092C7.83243 4.40106 7.83227 4.40122 7.83212 4.40137L4.97014 7.26334C4.7463 7.48656 4.38389 7.48606 4.16065 7.26222C4.14309 7.2446 4.12668 7.22585 4.11155 7.2061C3.95108 6.96675 3.98611 6.64666 4.19455 6.44768L5.77436 4.86214C5.85834 4.77807 5.9549 4.70758 6.06056 4.65322L6.23228 4.57595H0.611351C0.318946 4.5868 0.0624056 4.38255 0.00747347 4.09513C-0.0431299 3.78309 0.1688 3.48911 0.480845 3.43849Z" fill="currentColor"/>
</svg>
