<svg width="18" height="18" viewBox="0 0 18 18" fill="none" xmlns="http://www.w3.org/2000/svg">
<path d="M17.2969 7.56836H0.703125C0.314789 7.56836 0 7.99207 0 8.51476C0 9.03746 0.314789 9.46117 0.703125 9.46117H17.2969C17.6852 9.46117 18 9.03746 18 8.51476C18 7.99207 17.6852 7.56836 17.2969 7.56836Z" fill="black"/>
<path d="M17.2969 0H0.703125C0.314789 0 0 0.423705 0 0.946404C0 1.4691 0.314789 1.89281 0.703125 1.89281H17.2969C17.6852 1.89281 18 1.4691 18 0.946404C18 0.423705 17.6852 0 17.2969 0Z" fill="black"/>
<path d="M17.2969 15.1367H0.703125C0.314789 15.1367 0 15.5604 0 16.0831C0 16.6058 0.314789 17.0295 0.703125 17.0295H17.2969C17.6852 17.0295 18 16.6058 18 16.0831C18 15.5604 17.6852 15.1367 17.2969 15.1367Z" fill="black"/>
</svg>
