<svg width="92" height="92" viewBox="0 0 92 92" fill="none" xmlns="http://www.w3.org/2000/svg">
<circle cx="46" cy="46" r="46" fill="#C4C4C4"/>
<path d="M56.3333 58V55.3333C56.3333 53.9188 55.7714 52.5623 54.7712 51.5621C53.7711 50.5619 52.4145 50 51 50H40.3333C38.9188 50 37.5623 50.5619 36.5621 51.5621C35.5619 52.5623 35 53.9188 35 55.3333V58" stroke="#7E7E7E" stroke-width="2"/>
<path d="M45.6659 44.6667C48.6114 44.6667 50.9992 42.2789 50.9992 39.3333C50.9992 36.3878 48.6114 34 45.6659 34C42.7203 34 40.3325 36.3878 40.3325 39.3333C40.3325 42.2789 42.7203 44.6667 45.6659 44.6667Z" stroke="#7E7E7E" stroke-width="2"/>
</svg>
