<svg width="24" height="24" viewBox="0 0 24 24" fill="none" xmlns="http://www.w3.org/2000/svg">
<path d="M12 0C5.36766 0 0 5.36705 0 12C0 18.6323 5.36705 24 12 24C18.6323 24 24 18.633 24 12C24 5.36766 18.633 0 12 0ZM12.7998 17.3818C12.7998 17.8236 12.4417 18.1818 11.9998 18.1818C11.558 18.1818 11.1998 17.8236 11.1998 17.3818V10.6333C11.1998 10.1915 11.558 9.83325 11.9998 9.83325C12.4417 9.83325 12.7998 10.1914 12.7998 10.6333V17.3818ZM12 9.01823C11.1178 9.01823 10.4 8.30048 10.4 7.41825C10.4 6.53602 11.1178 5.81827 12 5.81827C12.8822 5.81827 13.6 6.53602 13.6 7.41825C13.6 8.30048 12.8822 9.01823 12 9.01823Z" fill="#0F56AA"/>
</svg>
