<svg width="18" height="18" viewBox="0 0 18 18" fill="none" xmlns="http://www.w3.org/2000/svg">
<path d="M8.47059 0H0V2.64706H6.88235L8.47059 0Z" fill="currentcolor"/>
<path d="M11.1172 13.7651H14.8231V14.824H11.1172V13.7651Z" fill="currentcolor"/>
<path d="M3.17676 7.41162H6.88264V10.5881H3.17676V7.41162Z" fill="currentcolor"/>
<path d="M9.70535 0L7.48186 3.70588H0V18H18V0H9.70535ZM7.94118 15.8824H2.11765V14.8235H7.94118V15.8824ZM7.94118 13.7647H2.11765V12.7059H7.94118V13.7647ZM7.94118 11.6471H2.11765V6.35294H7.94118V11.6471ZM12.7059 2.64706H13.7647V3.70588H12.7059V2.64706ZM10.5882 2.64706H11.6471V3.70588H10.5882V2.64706ZM15.8824 15.8824H10.0588V12.7059H15.8824V15.8824ZM15.8824 11.6471H10.0588V10.5882H15.8824V11.6471ZM15.8824 9.52941H10.0588V8.47059H15.8824V9.52941ZM15.8824 7.41177H10.0588V6.35294H15.8824V7.41177ZM15.8824 3.70588H14.8235V2.64706H15.8824V3.70588Z" fill="currentcolor"/>
</svg>
