<svg width="67" height="66" viewBox="0 0 67 66" fill="none" xmlns="http://www.w3.org/2000/svg">
<path d="M60.8718 4.15155V15.7058L47.2168 2.05078H58.771C59.9265 2.05078 60.8718 2.99613 60.8718 4.15155Z" fill="#E6E9ED" stroke="#284268"/>
<path d="M60.8714 22.0081V27.4806C58.2034 24.7496 54.4851 23.0585 50.3675 23.0585C42.2481 23.0585 35.6621 29.6444 35.6621 37.7639C35.6621 38.4782 35.7147 39.1819 35.8092 39.8647H22.0071L2.0498 19.9073V4.15155C2.0498 2.99613 2.99515 2.05078 4.15058 2.05078H40.9141L60.8714 22.0081Z" fill="#E6E9ED" stroke="#284268"/>
<path d="M15.7058 39.865H4.15155C2.99613 39.865 2.05078 38.9196 2.05078 37.7642V26.21L15.7058 39.865Z" fill="#E6E9ED" stroke="#284268"/>
<path d="M10.4541 6.25195H39.8649V12.5543H10.4541V6.25195Z" fill="#9DC6FB" stroke="#284268"/>
<path d="M59.2337 49.4863L61.4605 62.133L56.6707 59.8221L53.0994 62.9733L51.2402 52.4379C54.2338 52.2699 56.9858 51.1985 59.2337 49.4863Z" fill="#FF826E" stroke="#284268"/>
<path d="M49.4957 52.4379C46.5021 52.2698 43.7501 51.1984 41.5023 49.4863C38.4876 47.207 36.3764 43.7827 35.8092 39.8648C35.7146 39.182 35.6621 38.4783 35.6621 37.764C35.6621 29.6445 42.248 23.0586 50.3675 23.0586C54.485 23.0586 58.2034 24.7497 60.8714 27.4807C63.4658 30.1382 65.0729 33.762 65.0729 37.764C65.0729 42.5538 62.7831 46.8078 59.2328 49.4863C56.9849 51.1984 54.2329 52.2698 51.2393 52.4379C50.9557 52.4589 50.6616 52.4694 50.3675 52.4694C50.0734 52.4694 49.7793 52.4589 49.4957 52.4379Z" fill="#3A4080" fill-opacity="0.96" stroke="#284268"/>
<path d="M60.8724 15.7058V22.0081L40.915 2.05078H47.2174L60.8724 15.7058Z" fill="#B4DD7F" stroke="#284268"/>
<path d="M60.8729 37.7636C60.8729 40.2845 59.9801 42.6059 58.4991 44.4231L57.0285 45.8936C55.2114 47.3747 52.89 48.2675 50.3691 48.2675C44.571 48.2675 39.8652 43.5618 39.8652 37.7636C39.8652 35.2427 40.7581 32.9213 42.2391 31.1042L43.7096 29.6336C45.5268 28.1526 47.8482 27.2598 50.3691 27.2598C56.1672 27.2598 60.8729 31.9655 60.8729 37.7636Z" fill="#9DC6FB" stroke="#284268"/>
<path d="M49.4976 52.4379L47.6384 62.9733L44.0671 59.8221L39.2773 62.133L41.5042 49.4863C43.752 51.1985 46.504 52.2699 49.4976 52.4379Z" fill="#FF826E" stroke="#284268"/>
<path d="M23.0586 25.1592H31.4617V35.663H23.0586V25.1592Z" fill="#FF826E" stroke="#284268"/>
<path d="M22.0081 39.8646H15.7058L2.05078 26.2095V19.9072L22.0081 39.8646Z" fill="#B4DD7F" stroke="#284268"/>
<path d="M51.4189 34.6127C51.9977 34.6127 52.4693 35.0843 52.4693 35.6631H54.5701C54.5701 33.9257 53.1563 32.5119 51.4189 32.5119V30.4111H49.3181V32.5119H46.167V35.6631C46.167 37.4004 47.5808 38.8142 49.3181 38.8142H51.4189C51.9977 38.8142 52.4693 39.2858 52.4693 39.8646V40.915H49.3181C48.7394 40.915 48.2678 40.4434 48.2678 39.8646H46.167C46.167 41.6019 47.5808 43.0158 49.3181 43.0158V45.1165H51.4189V43.0158H54.5701V39.8646C54.5701 38.1273 53.1563 36.7134 51.4189 36.7134H49.3181C48.7394 36.7134 48.2678 36.2418 48.2678 35.6631V34.6127H51.4189Z" fill="#284268" stroke="#284268"/>
<path d="M50.3697 49.3178C53.0324 49.3178 55.6321 48.3882 57.6909 46.7013L56.3579 45.0764C54.6752 46.4566 52.5482 47.217 50.3697 47.217C45.1577 47.217 40.9162 42.9756 40.9162 37.7636C40.9162 35.5851 41.6767 33.458 43.0569 31.7753L41.433 30.4424C39.745 32.5001 38.8154 35.0998 38.8154 37.7636C38.8154 44.1342 43.9991 49.3178 50.3697 49.3178Z" fill="#284268" stroke="#284268"/>
<path d="M50.3681 28.3098C55.5801 28.3098 59.8215 32.5512 59.8215 37.7632C59.8215 39.9417 59.0611 42.0688 57.6809 43.7515L59.3058 45.0844C60.9927 43.0257 61.9223 40.426 61.9223 37.7632C61.9223 31.3926 56.7387 26.209 50.3681 26.209C47.7053 26.209 45.1056 27.1386 43.0469 28.8255L44.3798 30.4504C46.0625 29.0702 48.1896 28.3098 50.3681 28.3098Z" fill="#284268" stroke="#284268"/>
<path d="M40.9149 5.20117H9.40332V13.6043H40.9149V5.20117ZM38.8141 11.5035H11.5041V7.30194H38.8141V11.5035Z" fill="#284268" stroke="#284268"/>
<path d="M9.40332 15.7051H40.9149V17.8058H9.40332V15.7051Z" fill="#284268" stroke="#284268"/>
<path d="M38.8154 19.9072H40.9162V22.008H38.8154V19.9072Z" fill="#284268" stroke="#284268"/>
<path d="M9.40332 19.9072H36.7133V22.008H9.40332V19.9072Z" fill="#284268" stroke="#284268"/>
<path d="M22.0078 36.713H32.5117V24.1084H22.0078V36.713ZM24.1086 26.2092H30.4109V34.6123H24.1086V26.2092Z" fill="#284268" stroke="#284268"/>
<path d="M66.1239 37.7635C66.1239 33.6428 64.521 29.8982 61.9224 27.0884V4.15116C61.9224 2.41382 60.5085 1 58.7712 1H4.15116C2.41382 1 1 2.41382 1 4.15116V37.7635C1 39.5008 2.41382 40.9147 4.15116 40.9147H34.9296C35.6627 44.5112 37.6238 47.6665 40.3558 49.9196L37.8895 63.9738L43.8946 61.0705L48.3514 64.999L50.365 53.5193H50.3681C50.3681 53.5193 50.3702 53.5193 50.3713 53.5193L52.3859 65L56.8427 61.0716L62.8478 63.9748L60.3815 49.9207C63.8855 47.0279 66.1239 42.652 66.1239 37.7635ZM59.8216 19.4721L43.4503 3.10077H46.7821L59.8216 16.1403V19.4721ZM59.8216 4.15116V13.1698L49.7526 3.10077H58.7712C59.35 3.10077 59.8216 3.57239 59.8216 4.15116ZM3.10077 22.4426L19.4721 38.8139H16.1403L3.10077 25.7744V22.4426ZM3.10077 37.7635V28.7449L13.1698 38.8139H4.15116C3.57239 38.8139 3.10077 38.3423 3.10077 37.7635ZM22.4426 38.8139L3.10077 19.4721V4.15116C3.10077 3.57239 3.57239 3.10077 4.15116 3.10077H40.4798L59.8216 22.4426V25.1893C57.1851 23.201 53.9174 22.0077 50.3681 22.0077C41.6804 22.0077 34.6123 29.0758 34.6123 37.7635C34.6123 38.1185 34.6428 38.4652 34.6659 38.8139H22.4426ZM36.7131 37.7635C36.7131 30.2343 42.839 24.1085 50.3681 24.1085C57.8973 24.1085 64.0231 30.2343 64.0231 37.7635C64.0231 45.2927 57.8973 51.4185 50.3681 51.4185C42.839 51.4185 36.7131 45.2927 36.7131 37.7635ZM46.9292 60.9455L44.237 58.5716L40.6678 60.2974L42.256 51.2441C44.0564 52.3323 46.0868 53.0676 48.26 53.3607L46.9292 60.9455ZM60.0684 60.2985L56.4992 58.5727L53.8071 60.9466L52.4762 53.3617C54.6505 53.0687 56.6799 52.3334 58.4803 51.2452L60.0684 60.2985Z" fill="#284268" stroke="#284268"/>
</svg>
