<svg width="52" height="52" viewBox="0 0 52 52" fill="none" xmlns="http://www.w3.org/2000/svg">
<circle cx="26" cy="26" r="26" fill="#EEF0FF"/>
<path d="M14 36.4051L14.3111 37.1054L25.475 32.4764L27.4199 32.7098L28.12 34.8492L27.1865 35.744C26.8365 36.0551 26.7198 36.5607 26.9143 37.0275L27.3033 38L33.7603 35.4716L33.4103 34.5381C33.2547 34.0712 32.8268 33.7991 32.3212 33.7991H31.0374L30.3373 32.1263L32.0488 31.2707C32.5934 30.9983 32.8268 30.3759 32.6323 29.8313L30.4152 23.88C30.1818 23.2576 29.5204 22.9852 28.898 23.1797C28.898 23.1797 28.8593 23.1797 28.8593 23.2186L27.2255 23.9187L26.992 23.3352L27.8868 22.2851C28.509 21.5848 28.898 20.7292 29.0148 19.7956L30.1428 18.4342C30.8819 17.5784 30.7263 16.2948 29.8705 15.5556C29.7149 15.4389 29.5594 15.3223 29.4038 15.2444C28.9759 15.05 28.548 15.011 28.0813 15.1278L27.9645 14.7776C27.77 14.1554 27.0699 13.8441 26.4864 14.0775L18.2788 17.0338C17.6564 17.2672 17.3453 17.9284 17.5787 18.5119V18.5508L17.7732 19.0564C16.7618 19.5233 16.295 20.6902 16.645 21.7016C16.9174 22.4796 17.6175 23.0241 18.4344 23.1407L20.2627 23.3352C21.0017 23.88 21.8963 24.23 22.7911 24.3077L24.0746 24.4245L24.3081 25.008C24.0357 25.1635 23.8412 25.4359 23.7635 25.7859L23.4912 27.1085L14 30.9594L14.2724 31.6984L19.7181 29.5202L21.0406 33.4878L14 36.4051ZM32.6323 34.7715L32.7102 35.0048L27.7311 36.9886L27.6144 36.7552C27.5755 36.5996 27.6144 36.4441 27.6923 36.3275L29.0148 35.0826L30.6874 34.5381H32.2433C32.4378 34.5381 32.5546 34.6158 32.6323 34.7715ZM30.1818 33.8378L28.7814 34.3047L28.2758 32.8266C28.509 32.8653 28.7035 32.8266 28.898 32.7098L29.5594 32.3987L30.1818 33.8378ZM29.1314 23.8021C29.3259 23.7242 29.5594 23.8021 29.6372 23.9966L29.9483 24.8135L28.0424 25.4359L28.2758 26.1749L30.1818 25.5525L30.6484 26.7973L28.8203 27.4196L29.0538 28.1588L30.9208 27.5364L31.3877 28.781L29.5983 29.3645L29.8317 30.1037L31.6598 29.4813L31.8543 29.9869C31.9322 30.1814 31.8543 30.3759 31.6598 30.4538L28.5869 31.9708C28.509 32.0097 28.4313 32.0097 28.3535 32.0097L25.7085 31.6984L24.2691 27.3808L24.5415 25.9415C24.5804 25.8249 24.6581 25.7081 24.7749 25.6691L29.1314 23.8021ZM29.0925 15.9445C29.7149 16.2169 30.0262 16.9559 29.7538 17.6173C29.7149 17.7339 29.6372 17.8118 29.5594 17.9284L29.0925 18.5119C29.0538 18.1229 28.9759 17.7728 28.8593 17.3839L28.3535 15.8669C28.6258 15.8279 28.8593 15.8669 29.0925 15.9445ZM17.423 21.5071C17.1897 20.8458 17.4619 20.1457 18.0843 19.8344L18.6289 21.1571C18.8234 21.6237 19.0957 22.0906 19.4068 22.4796L18.5899 22.4017C18.0454 22.3628 17.5787 22.0127 17.423 21.5071ZM22.9466 23.5687C21.3518 23.4131 19.9514 22.4017 19.3679 20.8847L18.3567 18.3174C18.2788 18.1229 18.3567 17.8895 18.5512 17.8118L26.7586 14.8555C26.8754 14.8165 26.9531 14.8165 27.0699 14.8555C27.1476 14.8944 27.2255 14.9721 27.2644 15.0889L28.12 17.6562C28.5869 19.0954 28.2758 20.6513 27.3033 21.7793L26.0974 23.1797L26.4475 24.1132L25.0471 24.6967L24.6581 23.7242L22.9466 23.5687ZM20.4572 29.2089L21.3518 28.8589L22.3242 31.8152L23.0632 31.5818L22.052 28.5478L23.608 27.9254L24.9305 31.8541L21.7797 33.1766L20.4572 29.2089Z" fill="#3A4080"/>
<path d="M33.2144 20.8068V21.1958H33.9924V20.8068C33.9924 19.7177 34.8482 18.8619 35.9373 18.8619V18.0839C34.8482 18.0839 33.9924 17.2283 33.9924 16.139V15.75H33.2144V16.139C33.2144 17.2283 32.3588 18.0839 31.2695 18.0839V18.8619C32.3588 18.8619 33.2144 19.7177 33.2144 20.8068ZM33.6034 17.5394C33.8369 17.9283 34.148 18.2396 34.5369 18.4729C34.148 18.7063 33.8369 19.0176 33.6034 19.4066C33.37 19.0176 33.0589 18.7063 32.6699 18.4729C33.0589 18.2396 33.37 17.9283 33.6034 17.5394Z" fill="#3A4080"/>
<path d="M16.1002 28.5881V28.9771H16.8782V28.5881C16.8782 27.499 17.734 26.6431 18.8231 26.6431V25.8652C17.734 25.8652 16.8782 25.0095 16.8782 23.9202V23.5312H16.1002V23.9202C16.1002 25.0095 15.2445 25.8652 14.1553 25.8652V26.6431C15.2445 26.6431 16.1002 27.499 16.1002 28.5881ZM16.4892 25.3206C16.7226 25.7096 17.0337 26.0209 17.4227 26.2542C17.0337 26.4876 16.7226 26.7989 16.4892 27.1879C16.2557 26.7989 15.9446 26.4876 15.5557 26.2542C15.9446 26.0209 16.2557 25.7096 16.4892 25.3206Z" fill="#3A4080"/>
<path d="M35.549 23.9202V23.5312H34.7711V23.9202C34.7711 25.0095 33.9154 25.8652 32.8262 25.8652V26.6431C33.9154 26.6431 34.7711 27.499 34.7711 28.5881V28.9771H35.549V28.5881C35.549 27.499 36.4049 26.6431 37.494 26.6431V25.8652C36.4049 25.8652 35.549 25.0095 35.549 23.9202ZM35.1601 27.1879C34.9266 26.7989 34.6155 26.4876 34.2265 26.2542C34.6155 26.0209 34.9266 25.7096 35.1601 25.3206C35.3935 25.7096 35.7046 26.0209 36.0936 26.2542C35.7046 26.4876 35.3935 26.7989 35.1601 27.1879Z" fill="#3A4080"/>
<path d="M25.5535 20.9244L26.098 21.469C28.2374 19.3296 26.2535 16.0621 26.1369 15.9453L25.4756 16.3732C25.5145 16.3732 27.2649 19.2129 25.5535 20.9244Z" fill="#3A4080"/>
</svg>
