<?xml version="1.0" encoding="UTF-8" standalone="no"?>
<svg
   xmlns:dc="http://purl.org/dc/elements/1.1/"
   xmlns:cc="http://creativecommons.org/ns#"
   xmlns:rdf="http://www.w3.org/1999/02/22-rdf-syntax-ns#"
   xmlns:svg="http://www.w3.org/2000/svg"
   xmlns="http://www.w3.org/2000/svg"
   id="svg20"
   version="1.1"
   fill="none"
   viewBox="0 0 52 52"
   height="52"
   width="52">
  <metadata
     id="metadata26">
    <rdf:RDF>
      <cc:Work
         rdf:about="">
        <dc:format>image/svg+xml</dc:format>
        <dc:type
           rdf:resource="http://purl.org/dc/dcmitype/StillImage" />
        <dc:title></dc:title>
      </cc:Work>
    </rdf:RDF>
  </metadata>
  <defs
     id="defs24" />
  <g
     transform="matrix(1.4857143,0,0,1.4857143,0.04825941,-0.04848452)"
     id="g886"
     style="fill:none">
    <circle
       cx="17.5"
       cy="17.5"
       r="17.5"
       fill="#e5f1ff"
       id="circle851" />
    <path
       d="m 21.5114,13.4883 v 1.6422 c 0.2748,-0.0393 0.554,-0.038 0.8203,0 v -2.0524 c 0,-0.2264 -0.1837,-0.4101 -0.4101,-0.4101 h -2.0525 c 0.0393,0.2747 0.0381,0.5541 0,0.8203 z"
       fill="#3a4080"
       id="path853" />
    <path
       d="m 19.0521,18.4102 c -0.0394,-0.2748 -0.038,-0.554 0,-0.8204 h -4.1048 c 0.0392,0.2748 0.038,0.5542 0,0.8204 z"
       fill="#3a4080"
       id="path855" />
    <path
       d="m 23.8222,22.584 -1.7593,-1.2127 c -0.2726,-0.1877 -0.6431,0.0088 -0.6431,0.3377 v 0.8026 h -1.5507 c 0.0393,0.2748 0.0381,0.5541 0,0.8203 h 1.5507 v 0.8025 c 0,0.3316 0.3732,0.5241 0.6431,0.3377 l 1.7593,-1.2127 c 0.2362,-0.1628 0.2366,-0.5122 0,-0.6754 z"
       fill="#3a4080"
       id="path857" />
    <path
       d="m 12.4883,22.5124 v -1.6423 c -0.2765,0.0394 -0.5556,0.0378 -0.8203,0 v 2.0524 c 0,0.2264 0.1837,0.4102 0.4101,0.4102 h 2.0524 c -0.0392,-0.2748 -0.038,-0.5541 0,-0.8203 z"
       fill="#3a4080"
       id="path859" />
    <path
       d="m 17,11 c -1.1086,0 -2.0171,0.8726 -2.0751,1.967 -0.0244,-0.0878 -0.0778,-0.1689 -0.1615,-0.2266 l -1.7595,-1.2126 c -0.2718,-0.1873 -0.6429,0.0078 -0.6429,0.3377 v 0.8025 h -1.1032 c -0.2265,0 -0.4101,0.1836 -0.4101,0.4101 0,0.2265 0.1836,0.4102 0.4101,0.4102 h 1.1033 v 0.8024 c 0,0.3325 0.3734,0.5235 0.6429,0.3378 l 1.7594,-1.2127 c 0.0836,-0.0575 0.1371,-0.1387 0.1615,-0.2267 0.0579,1.0945 0.9665,1.9671 2.0751,1.9671 1.1459,0 2.0781,-0.9322 2.0781,-2.0781 C 19.0781,11.9322 18.1459,11 17,11 Z"
       fill="#3a4080"
       id="path861" />
    <path
       d="m 17,25 c 1.1477,0 2.0781,-0.9304 2.0781,-2.0781 0,-1.1477 -0.9304,-2.0781 -2.0781,-2.0781 -1.1477,0 -2.0781,0.9304 -2.0781,2.0781 C 14.9219,24.0696 15.8523,25 17,25 Z"
       fill="#3a4080"
       id="path863" />
    <path
       d="M 21.9219,20.0781 C 23.0696,20.0781 24,19.1477 24,18 c 0,-1.1477 -0.9304,-2.0781 -2.0781,-2.0781 -1.1477,0 -2.0781,0.9304 -2.0781,2.0781 0,1.1477 0.9304,2.0781 2.0781,2.0781 z"
       fill="#3a4080"
       id="path865" />
    <path
       d="m 12.0781,20.0781 c 1.1477,0 2.0781,-0.9304 2.0781,-2.0781 0,-1.1477 -0.9304,-2.0781 -2.0781,-2.0781 C 10.9304,15.9219 10,16.8523 10,18 c 0,1.1477 0.9304,2.0781 2.0781,2.0781 z"
       fill="#3a4080"
       id="path867" />
  </g>
</svg>
