<svg width="62" height="64" viewBox="0 0 62 64" fill="none" xmlns="http://www.w3.org/2000/svg">
<path d="M29.3333 14C38.56 19.4133 46 34.8267 46 46C46 54 42 62 32.6667 62H33.3333H15.3333C6 62 2 54 2 46C2 34.8267 9.44 19.4133 18.6667 14L9.94667 6.74667C7.97333 5.17333 9.09333 2 11.6 2H36.4C38.9067 2 40.0267 5.17333 38.0533 6.74667L29.3333 14Z" fill="#4CAF50"/>
<path d="M28.9889 16C28.4022 16 27.8209 15.7413 27.4262 15.2507C26.7356 14.3893 26.8742 13.128 27.7382 12.4373L36.8049 5.184C37.1116 4.93867 37.0902 4.648 37.0182 4.44533C36.9462 4.24267 36.7809 4 36.3996 4H11.5996C11.2156 4 11.0502 4.24267 10.9809 4.44533C10.9089 4.648 10.8876 4.94133 11.1942 5.184L20.2609 12.4373C21.1249 13.128 21.2636 14.3867 20.5729 15.2507C19.8849 16.1093 18.6262 16.2533 17.7622 15.5627L8.69556 8.30933C7.12489 7.056 6.53823 5.02133 7.20223 3.12533C7.86889 1.22667 9.59423 0 11.5996 0H36.3996C38.4049 0 40.1302 1.22667 40.7942 3.12533C41.4582 5.02133 40.8716 7.05867 39.3009 8.30933L30.2369 15.5627C29.8662 15.856 29.4262 16 28.9889 16Z" fill="#284268"/>
<path d="M38 16H10C8.896 16 8 15.104 8 14C8 12.896 8.896 12 10 12H38C39.104 12 40 12.896 40 14C40 15.104 39.104 16 38 16Z" fill="#284268"/>
<path d="M37.335 23.6343C36.719 23.6343 36.1136 23.3516 35.7216 22.8156C33.4123 19.6583 30.8523 17.2076 28.3217 15.7223C27.3697 15.1649 27.0496 13.9383 27.607 12.9863C28.167 12.0369 29.3936 11.7143 30.343 12.2743C33.343 14.0316 36.3163 16.8609 38.9456 20.4503C39.599 21.3409 39.4043 22.5943 38.5136 23.2476C38.159 23.5089 37.7456 23.6343 37.335 23.6343Z" fill="#284268"/>
<path d="M33.3333 64.0003H15.3333C4.74133 64.0003 0 54.9576 0 46.0003C0 33.5523 8.25067 17.7949 17.656 12.2776C18.6053 11.7203 19.8347 12.0376 20.392 12.9896C20.9493 13.9416 20.632 15.1683 19.6773 15.7256C11.472 20.5389 4 34.9709 4 46.0003C4 52.4589 6.968 60.0003 15.3333 60.0003H33.3333C42.96 60.0003 44 50.2083 44 46.0003C44 43.5123 43.608 40.7683 42.8347 37.8429C42.552 36.7763 43.1893 35.6803 44.2587 35.3976C45.3227 35.1283 46.4213 35.7549 46.704 36.8216C47.5627 40.0803 48 43.1683 48 46.0003C48 57.1016 42.3813 64.0003 33.3333 64.0003Z" fill="#284268"/>
<path d="M39.3323 32C38.8203 32 38.3083 31.8053 37.919 31.4133C37.1377 30.632 37.1377 29.3653 37.919 28.584L44.5857 21.9173C45.223 21.28 46.207 21.144 46.991 21.5946L50.3857 23.536L57.975 16.5306C58.7857 15.7786 60.0523 15.8293 60.8017 16.6426C61.551 17.456 61.5003 18.72 60.6897 19.4693L52.023 27.4693C51.383 28.0666 50.4337 28.1733 49.6737 27.7386L46.335 25.8293L40.7457 31.4133C40.3563 31.8053 39.8443 32 39.3323 32Z" fill="#284268"/>
<path d="M59.3337 26.6667C58.2297 26.6667 57.3337 25.7707 57.3337 24.6667V20H52.667C51.563 20 50.667 19.104 50.667 18C50.667 16.896 51.563 16 52.667 16H59.3337C60.4377 16 61.3337 16.896 61.3337 18V24.6667C61.3337 25.7707 60.4377 26.6667 59.3337 26.6667Z" fill="#284268"/>
<path d="M25.013 49.3337H19.333C18.229 49.3337 17.333 48.4377 17.333 47.3337C17.333 46.2297 18.229 45.3337 19.333 45.3337H25.013C25.925 45.3337 26.6663 44.5923 26.6663 43.6803C26.6663 42.7417 25.925 42.0003 25.013 42.0003H22.9863C19.869 42.0003 17.333 39.4643 17.333 36.347C17.333 33.203 19.869 30.667 22.9863 30.667H28.6663C29.7703 30.667 30.6663 31.563 30.6663 32.667C30.6663 33.771 29.7703 34.667 28.6663 34.667H22.9863C22.0743 34.667 21.333 35.4083 21.333 36.3203C21.333 37.259 22.0743 38.0003 22.9863 38.0003H25.013C28.1303 38.0003 30.6663 40.5363 30.6663 43.6537C30.6663 46.7977 28.1303 49.3337 25.013 49.3337Z" fill="#284268"/>
<path d="M24 34.667C22.896 34.667 22 33.771 22 32.667V28.667C22 27.563 22.896 26.667 24 26.667C25.104 26.667 26 27.563 26 28.667V32.667C26 33.771 25.104 34.667 24 34.667Z" fill="#284268"/>
<path d="M24 53.333C22.896 53.333 22 52.437 22 51.333V47.333C22 46.229 22.896 45.333 24 45.333C25.104 45.333 26 46.229 26 47.333V51.333C26 52.437 25.104 53.333 24 53.333Z" fill="#284268"/>
</svg>
