<svg width="26" height="35" viewBox="0 0 26 35" fill="none" xmlns="http://www.w3.org/2000/svg">
<path d="M19.4092 25.8813H7.10438V29.3608H19.4092V25.8813Z" fill="#465A61"/>
<path d="M9.1552 30.1191V31.9237C9.1552 33.6258 10.5293 34.9999 12.2314 34.9999H14.2822C15.9845 34.9999 17.3584 33.6258 17.3584 31.9237V30.1191H9.1552Z" fill="#465A61"/>
<path d="M13.2559 30.1191H9.15426V31.9237C9.15426 33.6258 10.5284 34.9999 12.2305 34.9999H13.2559V30.1191Z" fill="#3B4A51"/>
<path d="M13.2559 25.8813H7.10346V29.3608H13.2559V25.8813Z" fill="#3B4A51"/>
<path d="M0.95122 12.3048C0.95122 16.4678 3.04314 20.3235 6.55007 22.6202C6.71403 22.7228 7.10362 23.0304 7.10362 23.5225V25.1837H19.4084V23.42C19.4084 23.0509 19.6752 22.8047 19.8803 22.6614C24.1253 19.9542 26.2583 14.9503 25.3355 9.94638C24.4332 5.16786 20.6595 1.2716 15.9018 0.266497C15.0198 0.0819786 14.138 0 13.2563 0C10.426 0 7.71913 0.943422 5.5041 2.74802C2.61242 5.10644 0.95122 8.5928 0.95122 12.3048Z" fill="#FFD400"/>
<path d="M0.951056 12.3048C0.951056 16.4678 3.04298 20.3235 6.5499 22.6202C6.71386 22.7228 7.10346 23.0304 7.10346 23.5225V25.1837H13.2559V0C10.4259 0 7.7187 0.943422 5.50394 2.74802C2.61226 5.10644 0.951056 8.5928 0.951056 12.3048Z" fill="#FDBF00"/>
<path d="M10.1793 14.3556C10.1793 15.6475 10.9999 16.796 12.2098 17.2472H12.2301V18.4572C12.2301 19.0313 12.6814 19.4826 13.2555 19.4826C13.8299 19.4826 14.2809 19.0313 14.2809 18.4572V17.2472C14.9578 17.0216 15.5936 16.5909 16.1472 15.9142C16.5165 15.4835 16.4548 14.8477 16.0241 14.4787C15.5936 14.1094 14.9373 14.171 14.5885 14.6018C14.1578 15.1145 13.6862 15.381 13.2555 15.381C13.1324 15.381 13.0299 15.3604 12.907 15.3193C12.4969 15.1759 12.2301 14.7863 12.2301 14.3556C12.2301 13.7812 12.6811 13.3302 13.2555 13.3302C14.9578 13.3302 16.3317 11.956 16.3317 10.254C16.3317 9.02347 15.5934 7.89553 14.4451 7.42396C14.404 7.4034 14.3426 7.4034 14.2809 7.38283V6.15235C14.2809 5.57797 13.8299 5.12695 13.2555 5.12695C12.6811 5.12695 12.2301 5.57797 12.2301 6.15235V7.38283C11.6969 7.56735 11.1842 7.83412 10.7126 8.28513C10.3024 8.67473 10.3024 9.3311 10.692 9.74126C11.0816 10.1514 11.738 10.1514 12.1481 9.76182C12.4966 9.41307 12.8865 9.22855 13.2555 9.22855C13.3989 9.22855 13.522 9.24912 13.6451 9.31053C14.0347 9.47476 14.2809 9.8438 14.2809 10.254C14.2809 10.8281 13.8299 11.2794 13.2555 11.2794C11.5535 11.2794 10.1793 12.6532 10.1793 14.3556Z" fill="#FF9F00"/>
<path d="M5.05258 25.6353C5.05258 26.2094 5.50386 26.6607 6.07798 26.6607H20.4336C21.008 26.6607 21.459 26.2094 21.459 25.6353C21.459 25.0609 21.008 24.6099 20.4336 24.6099H6.07798C5.50386 24.6099 5.05258 25.0609 5.05258 25.6353Z" fill="#697C86"/>
<path d="M5.05258 29.8731C5.05258 30.4472 5.50386 30.8985 6.07798 30.8985H20.4336C21.008 30.8985 21.459 30.4472 21.459 29.8731C21.459 29.2987 21.008 28.8477 20.4336 28.8477H6.07798C5.50386 28.8477 5.05258 29.2987 5.05258 29.8731Z" fill="#697C86"/>
<path d="M10.1797 14.3555C10.1797 15.6474 11.0002 16.7959 12.2102 17.2472H12.2305V18.4571C12.2305 19.0312 12.6817 19.4825 13.2559 19.4825V15.3809C13.133 15.3809 13.0305 15.3603 12.9074 15.3192C12.4972 15.1758 12.2305 14.7862 12.2305 14.3555C12.2305 13.7811 12.6815 13.3301 13.2559 13.3301V11.2793C11.5538 11.2793 10.1797 12.6532 10.1797 14.3555Z" fill="#FF7816"/>
<path d="M12.1485 9.76181C12.4972 9.41307 12.8868 9.22855 13.2559 9.22855V5.12695C12.6817 5.12695 12.2305 5.57797 12.2305 6.15235V7.38283C11.6975 7.56735 11.1848 7.83412 10.7129 8.28513C10.3028 8.67473 10.3028 9.33109 10.6924 9.74125C11.0822 10.1514 11.7383 10.1514 12.1485 9.76181Z" fill="#FF7816"/>
<path d="M5.05266 29.8735C5.05266 30.4477 5.50394 30.8989 6.07806 30.8989H13.2559V28.8481H6.07806C5.50394 28.8481 5.05266 29.2992 5.05266 29.8735Z" fill="#596C76"/>
<path d="M6.07806 26.6607H13.2559V24.6099H6.07806C5.50394 24.6099 5.05266 25.0609 5.05266 25.6353C5.05266 26.2094 5.50394 26.6607 6.07806 26.6607Z" fill="#596C76"/>
</svg>
