<svg width="14" height="14" viewBox="0 0 14 14" fill="none" xmlns="http://www.w3.org/2000/svg">
<path d="M2.91667 12.8333H0V5.83333H2.91667V12.8333ZM13.1921 7.92633C12.6922 7.85925 12.8549 7.49817 13.2102 7.3885C13.5141 7.29517 14 7.09683 14 6.50767C14 6.11567 13.7083 5.5965 12.6753 5.6385C11.9589 5.66767 10.5367 5.523 9.77083 5.12225C10.2993 2.98958 10.1722 0 8.78617 0C7.85633 0 7.68017 1.05408 7.40075 2.02358C6.6885 4.49808 5.46875 5.5335 4.08333 6.03983V12.3853C6.6395 12.7942 7.78458 14 10.2112 14C12.0767 14 13.0416 12.9879 13.0416 12.4448C13.0416 12.2494 12.8829 12.1106 12.4816 12.0797C12.0085 12.0435 12.0534 11.606 12.4997 11.5237C13.2393 11.3872 13.5648 10.9906 13.5648 10.6237C13.5648 10.3151 13.3338 10.0275 12.9243 9.93475C12.4361 9.8245 12.537 9.49317 12.9424 9.46108C13.6033 9.40858 13.9271 9.01542 13.9271 8.63858C13.9271 8.309 13.6797 7.99167 13.1921 7.92633Z" fill="#3A4080"/>
</svg>
