<svg width="14" height="14" viewBox="0 0 14 14" fill="none" xmlns="http://www.w3.org/2000/svg">
<g clip-path="url(#clip0)">
<path d="M12.4868 5.5755C11.781 5.54575 10.8127 5.41333 10.1669 5.1415C10.6388 3.22642 10.8978 0 8.88592 0C7.80033 0 7.5145 0.973 7.23333 1.94192C6.33033 5.05458 4.9315 5.91792 3.5 6.25917V5.83333H0V12.8333H3.5V12.306C4.88717 12.439 5.90275 12.81 7.09858 13.3245C7.83183 13.6401 8.8795 14 10.2112 14C11.6917 14 12.7167 13.4184 13.1332 11.8498C13.4248 10.7549 14 7.62067 14 7.03733C14 6.076 13.3187 5.6105 12.4868 5.5755ZM2.33333 11.6667H1.16667V7H2.33333V11.6667ZM11.606 8.40992C11.606 8.40992 11.7232 8.41575 12.2296 8.39417C12.8607 8.36733 12.8427 9.25108 12.2319 9.30592L11.2047 9.36367C10.7765 9.4185 10.822 10.0654 11.2869 10.0473C11.2869 10.0473 11.6871 10.0374 11.9537 10.0234C12.5767 9.99075 12.5463 10.857 11.977 10.9282C11.7297 10.9591 10.9591 10.9952 10.9591 10.9952C10.486 11.0373 10.5472 11.7157 11.0227 11.6608L11.4724 11.6427C11.9519 11.5996 12.0575 12.124 11.3021 12.6117C10.388 13.1256 8.56917 12.6881 7.55942 12.2535C6.25333 11.6906 4.97058 11.1253 3.5 11.0833V7.58333C5.404 7.14642 7.19133 6.2685 8.35392 2.26742C8.87775 0.46375 9.33333 1.141 9.33333 2.60225C9.33333 3.81033 9.0475 4.81075 8.79608 5.82983C9.415 6.14658 10.7625 6.64767 12.3661 6.7375C12.9815 6.77192 12.9634 7.58625 12.3363 7.6615L11.5232 7.75892C11.5232 7.75892 11.1685 8.407 11.606 8.40992Z" fill="#3A4080"/>
</g>
<defs>
<clipPath id="clip0">
<rect width="14" height="14" fill="white"/>
</clipPath>
</defs>
</svg>
