<svg width="34" height="34" viewBox="0 0 34 34" fill="none" xmlns="http://www.w3.org/2000/svg">
<path opacity="0.6" d="M17 34C26.3888 34 34 26.3888 34 17C34 7.61116 26.3888 0 17 0C7.61116 0 0 7.61116 0 17C0 26.3888 7.61116 34 17 34Z" fill="#E5F1FF"/>
<path d="M18.4062 17C19.1875 19.3853 18.68 21.4273 17.1562 22.2607C19.3825 22.3853 20.7794 19.698 18.4062 17ZM17 12.7067C18.7031 16.164 20.75 17.1853 20.75 19.7167C20.75 21.8947 19.0681 23.6667 17 23.6667C14.9319 23.6667 13.25 21.8947 13.25 19.7167C13.25 17.1853 15.2962 16.1653 17 12.7067ZM17 9C15.5419 14.972 12 15.792 12 19.7167C12 22.6353 14.2369 25 17 25C19.7631 25 22 22.6353 22 19.7167C22 15.792 18.4581 14.972 17 9Z" fill="#3A4080" fill-opacity="0.96"/>
</svg>
