<svg width="60" height="60" viewBox="0 0 60 60" fill="none" xmlns="http://www.w3.org/2000/svg">
<path d="M30.0029 56.6423L41.8891 53.6406C48.6737 48.007 52.9951 39.5095 52.9951 30.0017C52.9951 15.3364 42.7165 3.07189 28.9703 0.019043C12.8786 0.561738 0 13.7777 0 30.0016C0 38.335 3.39844 45.8741 8.88422 51.3105L30.0029 56.6423Z" fill="#CBE2FF"/>
<path d="M52.37 30C52.37 39.8338 47.6378 48.5614 40.3272 54.0327L51.1121 51.3091C56.5982 45.8728 59.9972 38.3337 59.9972 30C59.9972 13.4314 46.5658 0 29.9972 0C28.7054 0 27.4325 0.0817968 26.1836 0.240234C40.9514 2.11383 52.37 14.7234 52.37 30Z" fill="#BED8FB"/>
<path d="M37.454 11.3612C37.454 9.82898 36.2119 8.58691 34.6797 8.58691H25.1193C21.593 8.58691 18.7344 11.4456 18.7344 14.9719V22.0609H41.2589V15.0724C41.2589 13.5402 40.0168 12.2981 38.4846 12.2981H38.3911C37.8736 12.2981 37.454 11.8787 37.454 11.3612Z" fill="#365E7D"/>
<path d="M38.4781 12.2982H38.3846C37.8671 12.2982 37.4475 11.8787 37.4475 11.3612C37.4475 9.82898 36.2055 8.58691 34.6732 8.58691H33.625V22.0609H41.2523V15.0724C41.2524 13.5404 40.0102 12.2982 38.4781 12.2982Z" fill="#2B4D66"/>
<path d="M49.8062 43.6355C49.0727 42.911 48.1655 42.3507 47.1355 42.0247L38.9452 39.4316L29.9981 39.1172L21.0473 39.4316L12.857 42.0247C10.0862 42.902 8.20312 45.4733 8.20312 48.3797V50.6173C13.4518 56.1635 20.795 59.7073 28.9668 59.9829C38.1224 57.9493 45.7397 51.8294 49.8062 43.6355Z" fill="#4A80AA"/>
<path d="M51.7911 50.617V48.3795C51.7911 46.3245 50.8489 44.4379 49.3179 43.1982C44.9689 52.0607 36.3778 58.464 26.1914 59.7588C27.4209 59.9146 28.6732 59.9977 29.9445 59.9999C31.1659 59.998 32.3712 59.9272 33.5566 59.7911C40.7087 58.9459 47.09 55.5847 51.7911 50.617Z" fill="#407093"/>
<path d="M30.6753 59.5512C32.4904 55.9476 37.2169 45.7153 35.8691 39.3236L29.9979 37.0386L24.1212 39.3237C22.7318 45.9126 27.7974 56.5827 29.4744 59.8655C29.8778 59.7687 30.2782 59.6638 30.6753 59.5512Z" fill="#E4F6FF"/>
<path d="M33.767 56.6944L31.3864 47.3291H28.6012L26.2266 56.6688L29.163 59.938C29.9085 59.7673 30.6436 59.5693 31.3673 59.3454L33.767 56.6944Z" fill="#E28086"/>
<path d="M29.2116 59.9885C29.4548 59.9949 29.6984 59.9992 29.943 59.9997C30.226 59.9992 30.508 59.9943 30.7893 59.9864L32.3018 58.3154C31.1113 58.7331 29.8866 59.0779 28.6328 59.3442L29.2116 59.9885Z" fill="#DD636E"/>
<path d="M35.0094 38.4584V33.1772H24.9805V38.4584C24.9805 41.2278 29.9949 44.2529 29.9949 44.2529C29.9949 44.2529 35.0094 41.2278 35.0094 38.4584Z" fill="#FFDDCE"/>
<path d="M41.2589 21.1311H39.3418C38.2756 21.1311 37.4114 20.2669 37.4114 19.2007V18.1442C37.4114 16.7554 36.0526 15.7735 34.734 16.2094C31.6586 17.2258 28.338 17.2261 25.2625 16.2101L25.2589 16.2089C23.9403 15.7733 22.5818 16.7552 22.5818 18.1439V19.2008C22.5818 20.267 21.7175 21.1312 20.6513 21.1312H18.7344V24.288C18.7344 25.0946 19.3883 25.7486 20.195 25.7486C20.4495 25.7486 20.6566 25.948 20.6727 26.202C20.9806 31.085 25.0361 34.9506 29.9967 34.9506C34.9572 34.9506 39.0127 31.085 39.3207 26.202C39.3368 25.9481 39.5438 25.7486 39.7984 25.7486C40.605 25.7486 41.259 25.0947 41.259 24.288V21.1311H41.2589Z" fill="#FFDDCE"/>
<path d="M39.342 21.1307C38.2759 21.1307 37.4116 20.2665 37.4116 19.2003V18.1439C37.4116 16.7551 36.0528 15.7732 34.7342 16.209C34.37 16.3293 34.0021 16.4343 33.6318 16.5262V26.9526C33.5805 30.345 31.7217 33.2974 28.9766 34.893C29.3118 34.9294 29.6519 34.95 29.9968 34.95C34.9573 34.95 39.0128 31.0844 39.3208 26.2014C39.3369 25.9475 39.5439 25.748 39.7985 25.748C40.6051 25.748 41.2591 25.0941 41.2591 24.2874V21.1306H39.342V21.1307Z" fill="#FFCBBE"/>
<path d="M24.9794 37.0381L21.0469 40.2334L25.1709 45.3326C25.6726 45.821 26.4622 45.851 26.9996 45.4022L30.101 42.8116L24.9794 37.0381Z" fill="#F4FBFF"/>
<path d="M35.0108 37.0381L30.1016 42.8116L33.0165 45.3039C33.5505 45.7605 34.3439 45.7375 34.8506 45.2508L38.9451 40.2334L35.0108 37.0381Z" fill="#F4FBFF"/>
<path d="M24.9827 37.0386L19.2105 39.8744C18.771 40.0903 18.5945 40.6249 18.819 41.06L19.9498 43.2526C20.2429 43.8207 20.1347 44.513 19.6824 44.9647C19.4495 45.1971 19.1974 45.4488 18.9788 45.667C18.5876 46.0574 18.4471 46.6344 18.6194 47.1596C19.9847 51.3217 26.5559 57.6863 29.0427 59.989C29.21 59.9935 29.3776 59.9965 29.5455 59.9984C27.7421 56.4906 21.3515 43.1638 24.9827 37.0386Z" fill="#365E7D"/>
<path d="M40.3147 44.9646C39.8622 44.5129 39.7542 43.8206 40.0473 43.2524L41.1781 41.0599C41.4025 40.6247 41.2261 40.0901 40.7866 39.8743L35.0144 37.0386C38.6446 43.1622 32.2585 56.4834 30.4531 59.9956C30.6228 59.9927 30.7921 59.9885 30.9611 59.9828C33.4531 57.6748 40.0136 51.318 41.3777 47.1597C41.55 46.6345 41.4095 46.0576 41.0183 45.6671C40.7997 45.4488 40.5475 45.1969 40.3147 44.9646Z" fill="#365E7D"/>
<path d="M30.1008 42.8115L27.0469 45.362L28.6029 47.3285H31.3881L32.9442 45.246L30.1008 42.8115Z" fill="#DD636E"/>
</svg>
