<svg width="18" height="19" viewBox="0 0 18 19" fill="none" xmlns="http://www.w3.org/2000/svg">
<path d="M6.98806 14.3701C5.81113 14.3701 4.91113 15.2701 4.91113 16.447C4.91113 17.624 5.81113 18.524 6.98806 18.524C8.16498 18.524 9.06498 17.624 9.06498 16.447C9.06498 15.2701 8.16498 14.3701 6.98806 14.3701ZM6.98806 17.4163C6.43421 17.4163 6.01883 17.0009 6.01883 16.447C6.01883 15.8932 6.43421 15.4778 6.98806 15.4778C7.5419 15.4778 7.95729 15.8932 7.95729 16.447C7.95729 17.0009 7.5419 17.4163 6.98806 17.4163Z" fill="currentcolor"/>
<path d="M13.9109 14.3701C12.734 14.3701 11.834 15.2701 11.834 16.447C11.834 17.624 12.734 18.524 13.9109 18.524C15.0878 18.524 15.9878 17.624 15.9878 16.447C15.9878 15.2701 15.0878 14.3701 13.9109 14.3701ZM13.9109 17.4163C13.3571 17.4163 12.9417 17.0009 12.9417 16.447C12.9417 15.8932 13.3571 15.4778 13.9109 15.4778C14.4648 15.4778 14.8801 15.8932 14.8801 16.447C14.8801 17.0009 14.4648 17.4163 13.9109 17.4163Z" fill="currentcolor"/>
<path d="M16.5415 3.29316H4.70299L3.52607 0.523926H0.756836V1.90854H2.62607L5.53376 8.97008C4.70299 9.31623 4.14914 10.147 4.21837 11.1162C4.35684 12.2239 5.32607 12.9855 6.36453 12.9855H15.9876V11.6008H6.2953C5.87991 11.6008 5.60299 11.3239 5.60299 10.9085C5.60299 10.4932 5.87991 10.2162 6.2953 10.2162H15.4338C15.7799 10.2162 16.0568 10.0085 16.1261 9.66239L17.2338 4.12393C17.303 3.70854 16.9568 3.29316 16.5415 3.29316Z" fill="currentcolor"/>
</svg>
