<svg width="20" height="14" viewBox="0 0 20 14" fill="none" xmlns="http://www.w3.org/2000/svg">
<path d="M3.33333 3.66683V13.6668H20V3.66683H3.33333ZM11.6667 12.0002C9.82583 12.0002 8.33333 10.5077 8.33333 8.66683C8.33333 6.826 9.82583 5.3335 11.6667 5.3335C13.5075 5.3335 15 6.826 15 8.66683C15 10.5077 13.5075 12.0002 11.6667 12.0002ZM11.8333 10.316V10.6668H11.5V10.3335C11.155 10.3277 10.7975 10.246 10.5 10.091L10.6525 9.5435C10.9708 9.66683 11.395 9.79766 11.7275 9.72349C12.1108 9.63683 12.19 9.24266 11.7658 9.05183C11.455 8.90849 10.5058 8.78433 10.5058 7.97183C10.5058 7.51766 10.8517 7.11016 11.5 7.021V6.66683H11.8333V7.006C12.0742 7.01183 12.3458 7.05433 12.6483 7.146L12.5267 7.69433C12.2708 7.60516 11.9875 7.52266 11.7125 7.54016C11.2167 7.56933 11.1725 7.99933 11.5192 8.17933C12.09 8.44683 12.8342 8.64683 12.8342 9.361C12.8342 9.9335 12.3858 10.2393 11.8333 10.316ZM17.5 2.00016H1.66667V11.1668H0V0.333496H17.5V2.00016Z" fill="#F8FCFF"/>
</svg>
