<svg width="20" height="20" viewBox="0 0 20 20" fill="none" xmlns="http://www.w3.org/2000/svg">
<path d="M20 2.5V10.8333H15.9925L14.2142 9.16667H18.3333V4.16667H8.33333V3.84667L5.69167 6.32333L7.58333 8.33333H5.29417L3.33333 6.25L10 0V2.5H20ZM14.4067 7.85C13.9225 7.85 13.6267 7.50833 13.5125 7.08333H14.445L14.4908 6.805H13.4642L13.4625 6.52833H14.5383L14.5833 6.25H13.5067C13.6158 5.81833 13.9033 5.46833 14.3608 5.46833C14.5175 5.46833 14.6925 5.49583 14.8942 5.555L15 5.11583C14.7425 5.03917 14.4975 5 14.2725 5C13.4442 5 12.9467 5.57583 12.8008 6.25H12.5L12.4542 6.52833H12.76L12.7583 6.805H12.4067L12.3617 7.08333H12.7975C12.9417 7.7575 13.445 8.33333 14.3375 8.33333C14.5458 8.33333 14.755 8.29417 14.9592 8.21917L14.8367 7.77C14.6908 7.82333 14.5467 7.85 14.4067 7.85ZM16.6667 13.75L10 7.5V10H0V17.5H10V20L16.6667 13.75ZM5.55667 15.4683V15.8333H5.20833V15.4867C4.84917 15.48 4.47667 15.395 4.16667 15.2342L4.325 14.6625C4.65667 14.7917 5.09833 14.9283 5.44417 14.8508C5.84333 14.7608 5.925 14.35 5.48417 14.1525C5.16 14.0017 4.17333 13.8725 4.17333 13.0258C4.17333 12.5533 4.53333 12.13 5.20833 12.0358V11.6667H5.55667V12.02C5.8075 12.0267 6.09 12.0708 6.40417 12.1667L6.27917 12.7392C6.01333 12.6458 5.7175 12.56 5.43083 12.5783C4.91417 12.6083 4.8675 13.0558 5.22917 13.2433C5.82333 13.5225 6.59917 13.73 6.59917 14.475C6.59917 15.07 6.13083 15.3875 5.55667 15.4683Z" fill="white"/>
</svg>
