<svg width="58" height="56" viewBox="0 0 58 56" fill="none" xmlns="http://www.w3.org/2000/svg">
<ellipse cx="28.9982" cy="28" rx="28.1066" ry="28" fill="#871523"/>
<path d="M38.2572 29.0527H35.5271V26.4289H38.2572C38.6675 26.4289 39 26.0967 39 25.6864C39 25.276 38.6675 24.9436 38.2572 24.9436H35.5271V21.3029C35.5271 20.7714 35.4221 20.3814 35.2151 20.1437C35.0183 19.9177 34.7596 19.8125 34.4014 19.8125C34.0595 19.8125 33.8106 19.917 33.6176 20.1416C33.413 20.3795 33.3092 20.7703 33.3092 21.3031V24.9441H28.1737L25.9901 21.6398C25.8032 21.345 25.6275 21.0687 25.4569 20.8036C25.3032 20.5648 25.1534 20.3704 25.0119 20.2252C24.8866 20.0967 24.7438 19.9972 24.5768 19.9208C24.4192 19.8489 24.2189 19.8127 23.9818 19.8127C23.6795 19.8127 23.4051 19.8956 23.1424 20.0657C22.8823 20.234 22.7026 20.4421 22.5928 20.7019C22.4965 20.9488 22.4455 21.3271 22.4455 21.8154V24.9438H19.7425C19.3323 24.9439 19 25.2763 19 25.6866C19 26.0969 19.3323 26.4291 19.7425 26.4291H22.4455V29.0532H19.7425C19.3323 29.0532 19 29.3855 19 29.796C19 30.2062 19.3323 30.5382 19.7425 30.5382H22.4455V34.695C22.4455 35.2108 22.5539 35.5969 22.7685 35.8423C22.9727 36.0762 23.2315 36.1848 23.5829 36.1848C23.922 36.1848 24.1788 36.0757 24.3918 35.8413C24.6099 35.6012 24.7202 35.2153 24.7202 34.6951V30.5382H29.3672L31.882 34.3944C32.0569 34.6493 32.2374 34.9066 32.4175 35.1589C32.5799 35.3854 32.7572 35.585 32.9442 35.7517C33.1126 35.9025 33.2931 36.0131 33.4808 36.0805C33.674 36.15 33.8998 36.1853 34.1504 36.1853C34.8305 36.1853 35.527 35.9771 35.527 34.433V30.5382H38.2572C38.6674 30.5382 38.9999 30.2057 38.9999 29.7955C39 29.3853 38.6675 29.0527 38.2572 29.0527ZM33.3091 26.4288V29.0527H30.8894L29.1556 26.4288H33.3091ZM24.7202 23.4139L25.7181 24.9436H24.7202V23.4139ZM24.7202 29.0527V26.4289H26.687L28.3984 29.0527H24.7202ZM33.3091 32.715L31.8711 30.5382H33.3091V32.715Z" fill="white"/>
</svg>
