<svg width="16" height="17" viewBox="0 0 16 17" fill="none" xmlns="http://www.w3.org/2000/svg">
<path d="M6.32206 16.25C7.23873 16.25 7.98873 15.5 7.98873 14.5833H4.6554C4.6554 15.5 5.39706 16.25 6.32206 16.25ZM11.3221 11.25V7.08333C11.3221 4.525 9.9554 2.38333 7.57206 1.81667V1.25C7.57206 0.558333 7.01373 0 6.32206 0C5.6304 0 5.07206 0.558333 5.07206 1.25V1.81667C2.6804 2.38333 1.32206 4.51667 1.32206 7.08333V11.25L0.247064 12.325C-0.277936 12.85 0.0887309 13.75 0.830398 13.75H11.8054C12.5471 13.75 12.9221 12.85 12.3971 12.325L11.3221 11.25Z" fill="#3A4080"/>
<circle cx="11" cy="6" r="4.25" fill="#AD3336" stroke="white" stroke-width="1.5"/>
</svg>
