<svg width="24" height="24" viewBox="0 0 24 24" fill="none" xmlns="http://www.w3.org/2000/svg">
<path opacity="0.8" d="M23.5 12C23.5 18.3513 18.3513 23.5 12 23.5C5.64873 23.5 0.5 18.3513 0.5 12C0.5 5.64873 5.64873 0.5 12 0.5C18.3513 0.5 23.5 5.64873 23.5 12Z" fill="#3090FC" fill-opacity="0.37" stroke="#3F9ADA"/>
<path d="M15.4553 11.2726H12.7277V8.54523C12.7276 8.40057 12.67 8.26189 12.5676 8.15966C12.4653 8.05742 12.3265 8 12.1819 8H11.8188C11.6742 8.00016 11.5356 8.05766 11.4334 8.15987C11.3311 8.26209 11.2736 8.40068 11.2735 8.54523V11.2726H8.54527C8.4006 11.2728 8.26191 11.3304 8.15967 11.4327C8.05743 11.5351 8 11.6738 8 11.8185V12.1822C8.00016 12.3267 8.05766 12.4653 8.15989 12.5675C8.26211 12.6697 8.40071 12.7272 8.54527 12.7274H11.2729V15.4548C11.273 15.5993 11.3305 15.7379 11.4328 15.8401C11.535 15.9423 11.6736 15.9998 11.8181 16H12.1819C12.3264 15.9998 12.465 15.9423 12.5672 15.8401C12.6695 15.7379 12.727 15.5993 12.7271 15.4548V12.7274H15.4547C15.5993 12.7272 15.7379 12.6697 15.8401 12.5675C15.9423 12.4653 15.9998 12.3267 16 12.1822V11.8185C16 11.6739 15.9427 11.5353 15.8405 11.4329C15.7384 11.3306 15.5999 11.2729 15.4553 11.2726Z" fill="#3A4080"/>
</svg>
