<svg width="35" height="35" viewBox="0 0 35 35" fill="none" xmlns="http://www.w3.org/2000/svg">
<circle cx="17.5" cy="17.5" r="17.5" fill="#C95B10" fill-opacity="0.1"/>
<path d="M21.9167 13.8161V12.5877C22.2637 12.3854 22.5 12.0133 22.5 11.5833V11.2917C22.5 11.1305 22.3695 11 22.2083 11H12.2917C12.1305 11 12 11.1305 12 11.2917V11.5834C12 12.0133 12.2363 12.3854 12.5833 12.5878V13.8161C12.5833 14.972 13.0761 16.0783 13.9351 16.8513L15.2115 18L13.9351 19.1487C13.0761 19.9217 12.5833 21.028 12.5833 22.1839V23.4122C12.2363 23.6146 12 23.9867 12 24.4167V24.7084C12 24.8695 12.1305 25 12.2917 25H22.2084C22.3696 25 22.5 24.8695 22.5 24.7083V24.4166C22.5 23.9867 22.2637 23.6146 21.9167 23.4122V22.1839C21.9167 21.028 21.4239 19.9217 20.5649 19.1487L19.2885 18L20.5649 16.8513C21.4239 16.0783 21.9167 14.972 21.9167 13.8161ZM19.7844 15.9842L18.0265 17.5665C17.9034 17.677 17.8333 17.8345 17.8333 18C17.8333 18.1655 17.9034 18.323 18.0265 18.4335L19.7844 20.0158C20.3979 20.568 20.75 21.3584 20.75 22.1839V23.25H20.0207L17.4833 19.8668C17.3733 19.7198 17.1267 19.7198 17.0167 19.8668L14.4793 23.25H13.75V22.1839C13.75 21.3584 14.1021 20.568 14.7156 20.0157L16.4736 18.4335C16.5966 18.323 16.6667 18.1655 16.6667 18C16.6667 17.8345 16.5966 17.677 16.4736 17.5665L14.7156 15.9842C14.1021 15.432 13.75 14.6416 13.75 13.8161V12.75H20.75V13.8161C20.75 14.6416 20.3979 15.432 19.7844 15.9842Z" fill="#C95B10"/>
<path d="M19.2598 15.082H15.2389C15.1235 15.082 15.019 15.1501 14.9723 15.2555C14.9256 15.3612 14.9452 15.4842 15.023 15.5697L17.0538 17.4433C17.1094 17.4937 17.1795 17.5188 17.2495 17.5188C17.3196 17.5188 17.3896 17.4937 17.4452 17.4433L19.4757 15.5697C19.5535 15.4842 19.5732 15.3612 19.5264 15.2555C19.4797 15.1501 19.3752 15.082 19.2598 15.082Z" fill="#C95B10"/>
</svg>
