<svg width="18" height="19" viewBox="0 0 18 19" fill="none" xmlns="http://www.w3.org/2000/svg">
<path d="M9.00016 5.02393C9.95991 5.02393 10.8007 5.32393 11.5202 5.80366L14.4002 2.32419C12.9002 1.18393 11.0402 0.523926 9.00016 0.523926C5.10011 0.523926 1.80006 3.04419 0.540039 6.46393L4.8601 7.78393C5.51985 6.16393 7.1404 5.02393 9.00016 5.02393Z" fill="currentcolor"/>
<path d="M9.00013 14.0233C6.5401 14.0233 4.50007 11.9839 4.50007 9.5236C4.50007 9.22333 4.56007 8.9236 4.56007 8.68333L0.240004 7.36279C0.12027 8.0236 0 8.8036 0 9.52306C0 14.5031 4.02006 18.5233 9.00013 18.5233C9.24014 18.5233 9.30041 18.5233 9.54041 18.5233L9.12014 14.0233C9.0604 14.0233 9.0604 14.0233 9.00013 14.0233Z" fill="currentcolor"/>
<path d="M15.1203 2.92383L12.24 6.40436C13.02 7.24463 13.4998 8.32436 13.4998 9.5241C13.4998 11.6836 11.9997 13.4838 10.0205 13.9044L10.5605 18.4046C14.7603 17.6241 18.0001 13.9641 18.0001 9.5241C18.0001 6.88463 16.8601 4.5441 15.1203 2.92383Z" fill="currentcolor"/>
<path d="M7.62006 8.26367H6.54004V11.8634H7.62006V8.26367Z" fill="currentcolor"/>
<path d="M9.53971 9.58447H8.45996V11.9237H9.53971V9.58447Z" fill="currentcolor"/>
<path d="M11.4596 7.18408H10.3799V11.9235H11.4596V7.18408Z" fill="currentcolor"/>
</svg>
