<svg width="18" height="20" viewBox="0 0 18 20" fill="none" xmlns="http://www.w3.org/2000/svg">
<path d="M9.7212 4.64306C9.6968 4.18721 9.23092 4.26476 8.77637 4.26476C9.11214 4.35419 9.4298 4.47861 9.7212 4.64306Z" fill="currentcolor"/>
<path d="M4.86255 3.50049C3.09791 3.50049 2.28567 5.73406 3.69634 6.85742C4.17723 5.57336 5.13454 4.65136 6.38954 4.28744C6.04624 3.81283 5.49158 3.50049 4.86255 3.50049Z" fill="currentcolor"/>
<path d="M1.21687 6.50807C1.28878 6.73883 1.38195 6.96021 1.49264 7.16996L0.912981 7.74994C0.757314 7.90561 0.757314 8.15827 0.912981 8.31426L1.93472 9.33632C2.00913 9.41073 2.11108 9.45261 2.21734 9.45261C2.32244 9.45261 2.4237 9.41073 2.4994 9.33632L3.07842 8.75634C3.16531 8.80232 3.26163 8.83051 3.35162 8.87017C3.35162 8.86357 3.35098 8.85672 3.35098 8.85012C3.35098 8.37615 3.40542 7.92904 3.50234 7.50919C2.80325 7.05927 2.33677 6.27828 2.33677 5.38659C2.33677 3.99373 3.4698 2.86037 4.86235 2.86037C5.80528 2.86037 6.61941 3.38532 7.054 4.15225C7.51798 4.09471 7.95381 4.09471 8.47843 4.19385C8.41095 3.9897 8.33154 3.7899 8.23209 3.60263L8.81175 3.02236C8.88737 2.94763 8.92925 2.846 8.92925 2.74034C8.92925 2.63465 8.88737 2.53306 8.81175 2.45832L7.79058 1.43691C7.71246 1.35875 7.61051 1.31998 7.5086 1.31998C7.40665 1.31998 7.30473 1.35875 7.22718 1.43691L6.64567 2.01717C6.4356 1.90588 6.21487 1.81271 5.98354 1.74236V0.922555C5.98354 0.702463 5.80593 0.523926 5.58519 0.523926H4.14014C3.92066 0.523926 3.74115 0.702463 3.74115 0.922555V1.74232C3.51043 1.81266 3.28965 1.90584 3.07895 2.01713L2.4994 1.43751C2.42121 1.35936 2.3193 1.32058 2.21734 1.32058C2.11543 1.32058 2.01291 1.35936 1.93536 1.43719L0.912981 2.4586C0.83857 2.53366 0.796694 2.63493 0.796694 2.74095C0.796694 2.84693 0.83857 2.94823 0.912981 3.02297L1.49264 3.60291C1.38191 3.81302 1.28878 4.03408 1.21815 4.2648H0.398991C0.178256 4.2648 0 4.44362 0 4.66403V6.10912C0 6.32889 0.178256 6.50807 0.398991 6.50807H1.21687Z" fill="currentcolor"/>
<path d="M13.7351 14.2412C14.3742 13.8906 14.8131 13.2197 14.8131 12.4412C14.8131 11.305 13.8883 10.3809 12.7522 10.3809C12.3526 10.3809 11.9824 10.5003 11.666 10.6979C11.4765 11.452 11.1783 12.1733 10.7881 12.7998C11.8942 13.0077 12.9091 13.5114 13.7351 14.2412Z" fill="currentcolor"/>
<path d="M17.9992 11.6607C17.9992 11.4228 17.8059 11.2302 17.5689 11.2302H16.6848C16.6085 10.981 16.5072 10.7421 16.3871 10.5155L17.013 9.88959C17.0943 9.80889 17.1393 9.69949 17.1393 9.58538C17.1393 9.47123 17.0943 9.36179 17.013 9.28085L15.9112 8.17874C15.8275 8.09459 15.7168 8.05239 15.6068 8.05239C15.4967 8.05239 15.3866 8.09459 15.3029 8.17874L14.6757 8.80495C14.4493 8.68488 14.2111 8.58426 13.961 8.50824V7.62409C13.961 7.38648 13.769 7.19385 13.5314 7.19385H11.9725C11.8681 7.19385 11.7761 7.23572 11.7012 7.29765C11.8324 7.77661 11.9044 8.29596 11.9044 8.84997C11.9044 9.20169 11.8769 9.5588 11.8256 9.91391C12.1157 9.80696 12.4246 9.7398 12.7517 9.7398C14.2411 9.7398 15.4529 10.9513 15.4529 12.4404C15.4529 13.3922 14.9558 14.2263 14.2098 14.7075C14.7526 15.3028 15.1841 16.009 15.4648 16.8003C15.5111 16.8163 15.5592 16.8279 15.6074 16.8279C15.7174 16.8279 15.8275 16.786 15.9119 16.7018L17.0143 15.5997C17.095 15.519 17.1394 15.4096 17.1394 15.2955C17.1394 15.1814 17.095 15.072 17.0143 14.991L16.3872 14.3648C16.5072 14.1384 16.6085 13.8995 16.6848 13.6501H17.569C17.6827 13.6501 17.7934 13.6051 17.8735 13.5237C17.9542 13.4433 17.9998 13.3337 17.9998 13.2195L17.9992 11.6607Z" fill="currentcolor"/>
<path d="M14.5867 17.1904C13.9182 15.2235 12.1518 13.8707 10.1127 13.6865C9.42988 14.4096 8.58447 14.8684 7.62707 14.8684C6.6704 14.8684 5.82435 14.4097 5.14217 13.6865C3.10183 13.8707 1.33534 15.2235 0.666851 17.1907L0.297334 18.2784C0.191637 18.5914 0.242251 18.9362 0.434881 19.2048C0.627471 19.4734 0.937637 19.6328 1.26777 19.6328H13.9858C14.3166 19.6328 14.6267 19.4734 14.8193 19.2048C15.0113 18.9362 15.0626 18.5914 14.9563 18.2784L14.5867 17.1904Z" fill="currentcolor"/>
<path d="M4.31152 8.85031C4.31152 11.29 5.79664 13.9078 7.62747 13.9078C9.45903 13.9078 10.9441 11.29 10.9441 8.85031C10.9441 3.79319 4.31152 3.78317 4.31152 8.85031Z" fill="currentcolor"/>
</svg>
