<svg width="33" height="49" viewBox="0 0 33 49" fill="none" xmlns="http://www.w3.org/2000/svg">
<path d="M0.170898 3.378V6.756H6.9279V47.3L9.4619 48.989L11.9949 47.3L14.5289 48.989L17.0629 47.3L19.5969 48.989L22.1309 47.3L24.6649 48.989L27.1979 47.3L29.7319 48.989L32.2659 47.3V3.378C32.2659 2.4821 31.91 1.62289 31.2765 0.989393C30.643 0.355895 29.7838 0 28.8879 0H3.5489C2.653 0 1.79379 0.355895 1.16029 0.989393C0.526796 1.62289 0.170898 2.4821 0.170898 3.378Z" fill="#E5E9F0"/>
<path d="M0.171026 20.2715V3.3785C0.171026 2.48247 0.526967 1.62313 1.16056 0.98954C1.79415 0.355948 2.65347 0 3.5495 0C4.44554 0 5.30489 0.355948 5.93848 0.98954C6.57207 1.62313 6.92801 2.48247 6.92801 3.3785V32.1005C-1.69899 32.1005 0.171026 33.3735 0.171026 20.2715Z" fill="#C2CADC"/>
<path d="M11.1526 26.1836H28.0446C28.2687 26.1836 28.4837 26.2726 28.6421 26.4311C28.8006 26.5896 28.8896 26.8045 28.8896 27.0286V33.7836C28.8896 34.0077 28.8006 34.2226 28.6421 34.3811C28.4837 34.5396 28.2687 34.6286 28.0446 34.6286H11.1526C10.9285 34.6286 10.7136 34.5396 10.5551 34.3811C10.3966 34.2226 10.3076 34.0077 10.3076 33.7836V27.0266C10.3081 26.8028 10.3974 26.5884 10.5558 26.4304C10.7142 26.2724 10.9289 26.1836 11.1526 26.1836ZM20.4436 27.8726H18.7546V32.9406H20.4436V27.8726ZM22.1326 32.9406H23.8216V27.8726H22.1326V32.9406ZM17.0646 27.8726H15.3756V32.9406H17.0646V27.8726ZM27.1996 27.8726H25.5076V32.9406H27.1966L27.1996 27.8726ZM11.9996 32.9406H13.6886V27.8726H11.9996V32.9406Z" fill="white"/>
<path d="M23.8213 43.0743H25.5103C25.7293 43.0667 25.9367 42.9745 26.089 42.8169C26.2412 42.6594 26.3263 42.4489 26.3263 42.2298C26.3263 42.0107 26.2412 41.8002 26.089 41.6426C25.9367 41.4851 25.7293 41.3928 25.5103 41.3853H23.8213C23.708 41.3814 23.595 41.4003 23.4892 41.441C23.3833 41.4817 23.2867 41.5433 23.2051 41.6221C23.1236 41.7009 23.0587 41.7953 23.0144 41.8997C22.9701 42.0041 22.9473 42.1164 22.9473 42.2298C22.9473 42.3432 22.9701 42.4554 23.0144 42.5598C23.0587 42.6642 23.1236 42.7587 23.2051 42.8375C23.2867 42.9163 23.3833 42.9779 23.4892 43.0185C23.595 43.0592 23.708 43.0782 23.8213 43.0743Z" fill="white"/>
<path d="M18.7534 43.0743H20.4424C20.5558 43.0782 20.6687 43.0592 20.7746 43.0185C20.8805 42.9779 20.9771 42.9163 21.0586 42.8375C21.1402 42.7587 21.2051 42.6642 21.2494 42.5598C21.2937 42.4554 21.3165 42.3432 21.3165 42.2298C21.3165 42.1164 21.2937 42.0041 21.2494 41.8997C21.2051 41.7953 21.1402 41.7009 21.0586 41.6221C20.9771 41.5433 20.8805 41.4817 20.7746 41.441C20.6687 41.4003 20.5558 41.3814 20.4424 41.3853H18.7534C18.5345 41.3928 18.327 41.4851 18.1748 41.6426C18.0226 41.8002 17.9375 42.0107 17.9375 42.2298C17.9375 42.4489 18.0226 42.6594 18.1748 42.8169C18.327 42.9745 18.5345 43.0667 18.7534 43.0743Z" fill="white"/>
<path d="M13.6861 43.0743H15.375C15.4884 43.0782 15.6014 43.0592 15.7072 43.0185C15.8131 42.9779 15.9097 42.9163 15.9913 42.8375C16.0728 42.7587 16.1377 42.6642 16.182 42.5598C16.2263 42.4554 16.2491 42.3432 16.2491 42.2298C16.2491 42.1164 16.2263 42.0041 16.182 41.8997C16.1377 41.7953 16.0728 41.7009 15.9913 41.6221C15.9097 41.5433 15.8131 41.4817 15.7072 41.441C15.6014 41.4003 15.4884 41.3814 15.375 41.3853H13.6861C13.4671 41.3928 13.2596 41.4851 13.1074 41.6426C12.9552 41.8002 12.8701 42.0107 12.8701 42.2298C12.8701 42.4489 12.9552 42.6594 13.1074 42.8169C13.2596 42.9745 13.4671 43.0667 13.6861 43.0743Z" fill="white"/>
<path d="M8.61819 43.0743H10.3072C10.5261 43.0667 10.7336 42.9745 10.8858 42.8169C11.0381 42.6594 11.1231 42.4489 11.1231 42.2298C11.1231 42.0107 11.0381 41.8002 10.8858 41.6426C10.7336 41.4851 10.5261 41.3928 10.3072 41.3853H8.61819C8.50485 41.3814 8.39188 41.4003 8.28601 41.441C8.18015 41.4817 8.08355 41.5433 8.00198 41.6221C7.92042 41.7009 7.85555 41.7953 7.81125 41.8997C7.76695 42.0041 7.74414 42.1164 7.74414 42.2298C7.74414 42.3432 7.76695 42.4554 7.81125 42.5598C7.85555 42.6642 7.92042 42.7587 8.00198 42.8375C8.08355 42.9163 8.18015 42.9779 8.28601 43.0185C8.39188 43.0592 8.50485 43.0782 8.61819 43.0743Z" fill="white"/>
<path d="M11.1524 38.0059H28.0444C28.2633 37.9984 28.4708 37.9061 28.623 37.7485C28.7752 37.591 28.8603 37.3805 28.8603 37.1614C28.8603 36.9423 28.7752 36.7318 28.623 36.5743C28.4708 36.4167 28.2633 36.3244 28.0444 36.3169H11.1524C11.039 36.313 10.9261 36.3319 10.8202 36.3726C10.7143 36.4133 10.6177 36.4749 10.5362 36.5537C10.4546 36.6325 10.3898 36.7269 10.3455 36.8313C10.3012 36.9357 10.2783 37.048 10.2783 37.1614C10.2783 37.2748 10.3012 37.3871 10.3455 37.4915C10.3898 37.5959 10.4546 37.6903 10.5362 37.7691C10.6177 37.8479 10.7143 37.9095 10.8202 37.9502C10.9261 37.9909 11.039 38.0098 11.1524 38.0059Z" fill="white"/>
<path d="M18.7534 4.2227H28.8884C29.0018 4.2266 29.1148 4.20765 29.2206 4.16697C29.3265 4.12628 29.4231 4.0647 29.5046 3.9859C29.5862 3.90709 29.6511 3.81267 29.6954 3.70827C29.7397 3.60387 29.7625 3.49162 29.7625 3.3782C29.7625 3.26479 29.7397 3.15254 29.6954 3.04813C29.6511 2.94373 29.5862 2.84931 29.5046 2.77051C29.4231 2.6917 29.3265 2.63013 29.2206 2.58944C29.1148 2.54876 29.0018 2.5298 28.8884 2.5337H18.7534C18.5345 2.54124 18.327 2.63351 18.1748 2.79107C18.0226 2.94862 17.9375 3.15913 17.9375 3.3782C17.9375 3.59728 18.0226 3.80779 18.1748 3.96534C18.327 4.1229 18.5345 4.21517 18.7534 4.2227Z" fill="white"/>
<path d="M10.3072 4.2222H11.9962C12.2151 4.21467 12.4226 4.1224 12.5748 3.96484C12.727 3.80729 12.8121 3.59678 12.8121 3.3777C12.8121 3.15863 12.727 2.94812 12.5748 2.79057C12.4226 2.63301 12.2151 2.54074 11.9962 2.5332H10.3072C10.0882 2.54074 9.88074 2.63301 9.72852 2.79057C9.57629 2.94812 9.49121 3.15863 9.49121 3.3777C9.49121 3.59678 9.57629 3.80729 9.72852 3.96484C9.88074 4.1224 10.0882 4.21467 10.3072 4.2222Z" fill="white"/>
<path d="M18.7534 7.60161H28.8884C29.0018 7.60551 29.1148 7.58656 29.2206 7.54587C29.3265 7.50519 29.4231 7.44361 29.5046 7.3648C29.5862 7.286 29.6511 7.19158 29.6954 7.08718C29.7397 6.98277 29.7625 6.87052 29.7625 6.75711C29.7625 6.64369 29.7397 6.53144 29.6954 6.42704C29.6511 6.32263 29.5862 6.22822 29.5046 6.14942C29.4231 6.07061 29.3265 6.00903 29.2206 5.96835C29.1148 5.92767 29.0018 5.90871 28.8884 5.91261H18.7534C18.5345 5.92014 18.327 6.01242 18.1748 6.16997C18.0226 6.32752 17.9375 6.53803 17.9375 6.75711C17.9375 6.97618 18.0226 7.1867 18.1748 7.34425C18.327 7.5018 18.5345 7.59408 18.7534 7.60161Z" fill="white"/>
<path d="M10.3072 7.60111H11.9962C12.2151 7.59358 12.4226 7.5013 12.5748 7.34375C12.727 7.1862 12.8121 6.97568 12.8121 6.75661C12.8121 6.53753 12.727 6.32702 12.5748 6.16947C12.4226 6.01192 12.2151 5.91964 11.9962 5.91211H10.3072C10.0882 5.91964 9.88074 6.01192 9.72852 6.16947C9.57629 6.32702 9.49121 6.53753 9.49121 6.75661C9.49121 6.97568 9.57629 7.1862 9.72852 7.34375C9.88074 7.5013 10.0882 7.59358 10.3072 7.60111Z" fill="white"/>
<path d="M18.7534 10.9805H28.8884C29.0018 10.9844 29.1148 10.9655 29.2206 10.9248C29.3265 10.8841 29.4231 10.8225 29.5046 10.7437C29.5862 10.6649 29.6511 10.5705 29.6954 10.4661C29.7397 10.3617 29.7625 10.2494 29.7625 10.136C29.7625 10.0226 29.7397 9.91035 29.6954 9.80594C29.6511 9.70154 29.5862 9.60713 29.5046 9.52832C29.4231 9.44952 29.3265 9.38794 29.2206 9.34726C29.1148 9.30657 29.0018 9.28761 28.8884 9.29152H18.7534C18.5345 9.29905 18.327 9.39133 18.1748 9.54888C18.0226 9.70643 17.9375 9.91694 17.9375 10.136C17.9375 10.3551 18.0226 10.5656 18.1748 10.7232C18.327 10.8807 18.5345 10.973 18.7534 10.9805Z" fill="white"/>
<path d="M10.3072 10.98H11.9962C12.2151 10.9725 12.4226 10.8802 12.5748 10.7227C12.727 10.5651 12.8121 10.3546 12.8121 10.1355C12.8121 9.91644 12.727 9.70593 12.5748 9.54838C12.4226 9.39083 12.2151 9.29855 11.9962 9.29102H10.3072C10.0882 9.29855 9.88074 9.39083 9.72852 9.54838C9.57629 9.70593 9.49121 9.91644 9.49121 10.1355C9.49121 10.3546 9.57629 10.5651 9.72852 10.7227C9.88074 10.8802 10.0882 10.9725 10.3072 10.98Z" fill="white"/>
<path d="M18.7534 14.3575H28.8884C29.0018 14.3614 29.1148 14.3424 29.2206 14.3017C29.3265 14.261 29.4231 14.1995 29.5046 14.1207C29.5862 14.0419 29.6511 13.9474 29.6954 13.843C29.7397 13.7386 29.7625 13.6264 29.7625 13.513C29.7625 13.3996 29.7397 13.2873 29.6954 13.1829C29.6511 13.0785 29.5862 12.9841 29.5046 12.9053C29.4231 12.8265 29.3265 12.7649 29.2206 12.7242C29.1148 12.6835 29.0018 12.6646 28.8884 12.6685H18.7534C18.5345 12.676 18.327 12.7683 18.1748 12.9258C18.0226 13.0834 17.9375 13.2939 17.9375 13.513C17.9375 13.732 18.0226 13.9426 18.1748 14.1001C18.327 14.2577 18.5345 14.3499 18.7534 14.3575Z" fill="white"/>
<path d="M10.3072 14.357H11.9962C12.2151 14.3494 12.4226 14.2572 12.5748 14.0996C12.727 13.9421 12.8121 13.7315 12.8121 13.5125C12.8121 13.2934 12.727 13.0829 12.5748 12.9253C12.4226 12.7678 12.2151 12.6755 11.9962 12.668H10.3072C10.0882 12.6755 9.88074 12.7678 9.72852 12.9253C9.57629 13.0829 9.49121 13.2934 9.49121 13.5125C9.49121 13.7315 9.57629 13.9421 9.72852 14.0996C9.88074 14.2572 10.0882 14.3494 10.3072 14.357Z" fill="white"/>
<path d="M18.7534 17.7364H28.8884C29.0018 17.7403 29.1148 17.7213 29.2206 17.6806C29.3265 17.6399 29.4231 17.5784 29.5046 17.4996C29.5862 17.4208 29.6511 17.3264 29.6954 17.222C29.7397 17.1175 29.7625 17.0053 29.7625 16.8919C29.7625 16.7785 29.7397 16.6662 29.6954 16.5618C29.6511 16.4574 29.5862 16.363 29.5046 16.2842C29.4231 16.2054 29.3265 16.1438 29.2206 16.1031C29.1148 16.0624 29.0018 16.0435 28.8884 16.0474H18.7534C18.5345 16.0549 18.327 16.1472 18.1748 16.3047C18.0226 16.4623 17.9375 16.6728 17.9375 16.8919C17.9375 17.1109 18.0226 17.3215 18.1748 17.479C18.327 17.6366 18.5345 17.7288 18.7534 17.7364Z" fill="white"/>
<path d="M10.3072 17.7359H11.9962C12.2151 17.7283 12.4226 17.6361 12.5748 17.4785C12.727 17.321 12.8121 17.1104 12.8121 16.8914C12.8121 16.6723 12.727 16.4618 12.5748 16.3042C12.4226 16.1467 12.2151 16.0544 11.9962 16.0469H10.3072C10.0882 16.0544 9.88074 16.1467 9.72852 16.3042C9.57629 16.4618 9.49121 16.6723 9.49121 16.8914C9.49121 17.1104 9.57629 17.321 9.72852 17.4785C9.88074 17.6361 10.0882 17.7283 10.3072 17.7359Z" fill="white"/>
<path d="M18.7534 21.1153H28.8884C29.0018 21.1192 29.1148 21.1002 29.2206 21.0595C29.3265 21.0189 29.4231 20.9573 29.5046 20.8785C29.5862 20.7997 29.6511 20.7053 29.6954 20.6009C29.7397 20.4965 29.7625 20.3842 29.7625 20.2708C29.7625 20.1574 29.7397 20.0451 29.6954 19.9407C29.6511 19.8363 29.5862 19.7419 29.5046 19.6631C29.4231 19.5843 29.3265 19.5227 29.2206 19.482C29.1148 19.4413 29.0018 19.4224 28.8884 19.4263H18.7534C18.5345 19.4338 18.327 19.5261 18.1748 19.6836C18.0226 19.8412 17.9375 20.0517 17.9375 20.2708C17.9375 20.4899 18.0226 20.7004 18.1748 20.8579C18.327 21.0155 18.5345 21.1077 18.7534 21.1153Z" fill="white"/>
<path d="M15.375 24.4942H25.51C25.729 24.4866 25.9364 24.3944 26.0887 24.2368C26.2409 24.0793 26.326 23.8688 26.326 23.6497C26.326 23.4306 26.2409 23.2201 26.0887 23.0625C25.9364 22.905 25.729 22.8127 25.51 22.8052H15.375C15.2617 22.8013 15.1487 22.8202 15.0429 22.8609C14.937 22.9016 14.8404 22.9632 14.7588 23.042C14.6773 23.1208 14.6124 23.2152 14.5681 23.3196C14.5238 23.424 14.501 23.5363 14.501 23.6497C14.501 23.7631 14.5238 23.8754 14.5681 23.9798C14.6124 24.0842 14.6773 24.1786 14.7588 24.2574C14.8404 24.3362 14.937 24.3978 15.0429 24.4384C15.1487 24.4791 15.2617 24.4981 15.375 24.4942Z" fill="white"/>
<path d="M10.3072 21.1148H11.9962C12.2151 21.1072 12.4226 21.015 12.5748 20.8574C12.727 20.6999 12.8121 20.4894 12.8121 20.2703C12.8121 20.0512 12.727 19.8407 12.5748 19.6831C12.4226 19.5256 12.2151 19.4333 11.9962 19.4258H10.3072C10.0882 19.4333 9.88074 19.5256 9.72852 19.6831C9.57629 19.8407 9.49121 20.0512 9.49121 20.2703C9.49121 20.4894 9.57629 20.6999 9.72852 20.8574C9.88074 21.015 10.0882 21.1072 10.3072 21.1148Z" fill="white"/>
<path d="M28.8882 43.0743H30.5772C30.6905 43.0782 30.8035 43.0592 30.9094 43.0185C31.0152 42.9779 31.1118 42.9163 31.1934 42.8375C31.275 42.7587 31.3398 42.6642 31.3841 42.5598C31.4284 42.4554 31.4513 42.3432 31.4513 42.2298C31.4513 42.1164 31.4284 42.0041 31.3841 41.8997C31.3398 41.7953 31.275 41.7009 31.1934 41.6221C31.1118 41.5433 31.0152 41.4817 30.9094 41.441C30.8035 41.4003 30.6905 41.3814 30.5772 41.3853H28.8882C28.6693 41.3928 28.4618 41.4851 28.3096 41.6426C28.1573 41.8002 28.0723 42.0107 28.0723 42.2298C28.0723 42.4489 28.1573 42.6594 28.3096 42.8169C28.4618 42.9745 28.6693 43.0667 28.8882 43.0743Z" fill="white"/>
</svg>
