<svg width="24" height="24" viewBox="0 0 24 24" fill="none" xmlns="http://www.w3.org/2000/svg">
<path d="M23.1157 12.2357C23.1197 12.0482 23.0114 11.8764 22.8408 11.7989L8.06842 5.09397C7.8994 5.01726 7.70105 5.04751 7.56253 5.17111C7.42405 5.29471 7.37157 5.48838 7.42865 5.66499L9.45907 11.9463L7.16445 18.136C7.10186 18.3048 7.14159 18.4939 7.26548 18.6232C7.26933 18.6272 7.27327 18.6312 7.27729 18.6351C7.41039 18.7644 7.60732 18.8031 7.77942 18.7336L22.8225 12.6604C22.9964 12.5902 23.1117 12.4232 23.1157 12.2357ZM8.64704 6.38616L20.3738 11.7087L10.2985 11.4952L8.64704 6.38616ZM8.41227 17.4671L10.2787 12.4325L20.354 12.646L8.41227 17.4671Z" fill="white"/>
</svg>
