<svg width="72" height="72" viewBox="0 0 72 72" fill="none" xmlns="http://www.w3.org/2000/svg">
<circle cx="36" cy="36" r="36" fill="#9DC6FB"/>
<g clip-path="url(#clip0)">
<path d="M54.3728 44.0541C53.0827 47.5506 51.1315 50.5909 48.5728 53.0896C45.6603 55.9336 41.8466 58.1935 37.2374 59.8055C37.0862 59.8583 36.9284 59.9015 36.7698 59.9333C36.5603 59.9747 36.3472 59.9971 36.1359 60H36.0945C35.8693 60 35.643 59.9773 35.4185 59.9333C35.2599 59.9015 35.1043 59.8583 34.9537 59.8066C30.3391 58.1971 26.5206 55.9383 23.6052 53.0944C21.0454 50.5957 19.0946 47.5572 17.8063 44.0607C15.4636 37.7032 15.5969 30.6998 15.7042 25.0719L15.706 24.9855C15.7276 24.5207 15.7416 24.0326 15.7493 23.4935C15.7884 20.8469 17.8927 18.6573 20.5397 18.5097C26.0585 18.2018 30.3278 16.4018 33.9756 12.8463L34.0075 12.817C34.6132 12.2614 35.3764 11.989 36.1359 12.0003C36.8683 12.0099 37.5978 12.282 38.1819 12.817L38.213 12.8463C41.8616 16.4018 46.1309 18.2018 51.6497 18.5097C54.2967 18.6573 56.4009 20.8469 56.4401 23.4935C56.4478 24.0362 56.4617 24.5237 56.4833 24.9855L56.4844 25.0221C56.5913 30.6606 56.7239 37.678 54.3728 44.0541Z" fill="#3F9ADA"/>
<path d="M48.0566 35.9998C48.0566 42.5817 42.7124 47.9394 36.136 47.9628H36.0939C29.4981 47.9628 24.1309 42.596 24.1309 35.9998C24.1309 29.4039 29.4981 24.0371 36.0939 24.0371H36.136C42.7124 24.0605 48.0566 29.4182 48.0566 35.9998Z" fill="white"/>
<path d="M41.5235 34.2773L36.1358 39.6657L34.9716 40.8299C34.6966 41.105 34.3359 41.2423 33.9755 41.2423C33.6148 41.2423 33.2545 41.105 32.9791 40.8299L30.476 38.3258C29.926 37.7757 29.926 36.8847 30.476 36.3343C31.0253 35.7843 31.9174 35.7843 32.4675 36.3343L33.9755 37.8424L39.532 32.2859C40.0821 31.7354 40.9742 31.7354 41.5235 32.2859C42.0735 32.8359 42.0735 33.728 41.5235 34.2773Z" fill="#9DC6FB"/>
<path d="M41.5234 34.2773L36.1357 39.6658V35.6817L39.532 32.2859C40.082 31.7354 40.9741 31.7354 41.5234 32.2859C42.0735 32.8359 42.0735 33.728 41.5234 34.2773Z" fill="#9DC6FB"/>
</g>
<defs>
<clipPath id="clip0">
<rect width="48" height="48" fill="white" transform="translate(12 12)"/>
</clipPath>
</defs>
</svg>
