<svg width="40" height="40" viewBox="0 0 40 40" fill="none" xmlns="http://www.w3.org/2000/svg">
<path d="M18.3528 0C15.9426 -3.69312e-10 13.5561 0.474719 11.3294 1.39705C9.10271 2.31939 7.07951 3.67127 5.37529 5.37552C3.67107 7.07976 2.31922 9.10299 1.39693 11.3297C0.474635 13.5564 -4.21894e-05 15.9429 2.81248e-09 18.3531H18.3528V0Z" fill="#5D65AC"/>
<path d="M21.6475 3.29395V39.9998C26.5017 39.9795 31.1501 38.0369 34.5754 34.5973C38.0007 31.1577 39.9238 26.5011 39.9238 21.6469C39.9238 16.7926 38.0007 12.1361 34.5754 8.69646C31.1501 5.25682 26.5017 3.31426 21.6475 3.29395Z" fill="#53376C"/>
<path d="M3.29297 21.6465C3.29297 26.514 5.22659 31.1822 8.66846 34.6241C12.1103 38.066 16.7785 39.9996 21.6461 39.9996V21.6465H3.29297Z" fill="#C95B10"/>
<path d="M7.95943 14.4589C7.84827 14.4588 7.73962 14.4258 7.64721 14.364C7.5548 14.3022 7.48278 14.2144 7.44024 14.1117C7.39771 14.009 7.38658 13.896 7.40825 13.787C7.42992 13.678 7.48342 13.5778 7.562 13.4992L13.1524 7.90883C13.2046 7.85662 13.2666 7.8152 13.3348 7.78694C13.403 7.75868 13.4761 7.74414 13.55 7.74414C13.6238 7.74414 13.6969 7.75868 13.7651 7.78694C13.8333 7.8152 13.8953 7.85662 13.9475 7.90883C13.9998 7.96104 14.0412 8.02303 14.0694 8.09124C14.0977 8.15946 14.1122 8.23258 14.1122 8.30642C14.1122 8.38026 14.0977 8.45337 14.0694 8.52159C14.0412 8.58981 13.9998 8.6518 13.9475 8.70401L8.35718 14.2944C8.30501 14.3467 8.243 14.3881 8.17474 14.4164C8.10648 14.4446 8.0333 14.459 7.95943 14.4589Z" fill="#E5E5E5"/>
<path d="M8.31951 9.96227C9.03478 9.96227 9.61461 9.38243 9.61461 8.66717C9.61461 7.95191 9.03478 7.37207 8.31951 7.37207C7.60425 7.37207 7.02441 7.95191 7.02441 8.66717C7.02441 9.38243 7.60425 9.96227 8.31951 9.96227Z" fill="#E5E5E5"/>
<path d="M13.1896 14.8324C13.9049 14.8324 14.4847 14.2526 14.4847 13.5373C14.4847 12.822 13.9049 12.2422 13.1896 12.2422C12.4744 12.2422 11.8945 12.822 11.8945 13.5373C11.8945 14.2526 12.4744 14.8324 13.1896 14.8324Z" fill="#E5E5E5"/>
<path d="M34.3378 21.0846H31.3861V17.5109H34.3378C34.4869 17.5109 34.6299 17.4517 34.7353 17.3463C34.8408 17.2408 34.9 17.0978 34.9 16.9487C34.9 16.7996 34.8408 16.6566 34.7353 16.5511C34.6299 16.4457 34.4869 16.3864 34.3378 16.3864H31.3861V14.78C31.3861 14.6309 31.3269 14.4879 31.2214 14.3825C31.116 14.277 30.973 14.2178 30.8239 14.2178C30.6747 14.2178 30.5317 14.277 30.4263 14.3825C30.3208 14.4879 30.2616 14.6309 30.2616 14.78V16.3864H29.237C28.5769 16.3872 27.944 16.6498 27.4772 17.1166C27.0104 17.5834 26.7478 18.2163 26.7471 18.8764V21.6469C26.7471 21.796 26.8063 21.939 26.9118 22.0444C27.0172 22.1499 27.1602 22.2091 27.3093 22.2091H30.2616V25.784H27.3093C27.1602 25.784 27.0172 25.8433 26.9118 25.9487C26.8063 26.0542 26.7471 26.1972 26.7471 26.3463C26.7471 26.4954 26.8063 26.6384 26.9118 26.7439C27.0172 26.8493 27.1602 26.9085 27.3093 26.9085H30.2616V28.515C30.2616 28.6641 30.3208 28.8071 30.4263 28.9125C30.5317 29.018 30.6747 29.0772 30.8239 29.0772C30.973 29.0772 31.116 29.018 31.2214 28.9125C31.3269 28.8071 31.3861 28.6641 31.3861 28.515V26.9085H32.41C33.0702 26.9078 33.7031 26.6452 34.1699 26.1784C34.6367 25.7116 34.8992 25.0787 34.9 24.4186V21.6469C34.9 21.4977 34.8408 21.3547 34.7353 21.2493C34.6299 21.1438 34.4869 21.0846 34.3378 21.0846ZM27.8716 21.0846V18.8764C27.872 18.5144 28.016 18.1673 28.272 17.9114C28.528 17.6554 28.875 17.5114 29.237 17.5109H30.2616V21.0846H27.8716ZM33.7755 24.4176C33.7751 24.7796 33.6311 25.1267 33.3751 25.3827C33.1191 25.6387 32.7721 25.7827 32.41 25.7831H31.3861V22.2091H33.7755V24.4176Z" fill="#C95B10"/>
</svg>
