<svg width="35" height="35" viewBox="0 0 35 35" fill="none" xmlns="http://www.w3.org/2000/svg">
<path d="M18.8378 16.4834H16.6861C16.2144 16.4834 15.8306 16.0996 15.8306 15.6279C15.8306 15.1562 16.2144 14.7725 16.6861 14.7725H20.319V12.7202H18.5245V11.3896H16.4723V12.7289C14.9685 12.8388 13.7783 14.0966 13.7783 15.6279C13.7783 17.2313 15.0827 18.5357 16.6861 18.5357H18.8378C19.3516 18.5357 19.7695 18.9536 19.7695 19.4673C19.7695 19.9811 19.3516 20.399 18.8378 20.399H14.2011V22.4512H16.4723V23.7818H18.5245V22.4512H18.8378C20.4832 22.4512 21.8218 21.1127 21.8218 19.4673C21.8218 17.822 20.4832 16.4834 18.8378 16.4834Z" fill="#FFDE55"/>
<path d="M18.5229 22.4507H18.8362C20.4816 22.4507 21.8201 21.1122 21.8201 19.4668C21.8201 17.8215 20.4816 16.4829 18.8362 16.4829H17.499V18.5352H18.8362C19.35 18.5352 19.7679 18.9531 19.7679 19.4668C19.7679 19.9806 19.35 20.3985 18.8362 20.3985H17.499V23.7813H18.5229V22.4507Z" fill="#FFB655"/>
<path d="M20.3174 14.7725V12.7202H18.5229V11.3896H17.499V14.7725H20.3174Z" fill="#FFB655"/>
<path d="M17.5009 9.31323C19.767 9.31323 21.8209 10.2389 23.3047 11.732L29.8929 5.14378C29.8869 5.13777 29.8812 5.13168 29.8752 5.12566C26.5699 1.82029 22.1753 0 17.5009 0C12.8264 0 8.43179 1.82029 5.12656 5.12566C2.97209 7.27998 1.44918 9.89744 0.649414 12.7533L9.62005 15.2802C10.5901 11.8411 13.7558 9.31323 17.5009 9.31323Z" fill="#A5E887"/>
<path d="M29.8734 5.12566C26.5681 1.82029 22.1735 0 17.499 0V9.31323C19.7652 9.31323 21.8191 10.2389 23.3029 11.732L29.891 5.14378C29.8851 5.13777 29.8794 5.13161 29.8734 5.12566Z" fill="#00CC76"/>
<path d="M17.5 25.6869C12.9857 25.6869 9.31316 22.0143 9.31316 17.5002C9.31316 16.434 9.51825 15.415 9.89066 14.4799L0.89588 11.9463C0.306676 13.7134 0 15.5832 0 17.5002C0 22.1745 1.82029 26.5692 5.12566 29.8746C8.43089 33.1799 12.8256 35.0002 17.5 35.0002C20.8572 35.0002 24.0701 34.0612 26.8387 32.3074L22.2676 24.1514C20.924 25.1174 19.2774 25.6869 17.5 25.6869Z" fill="#FF8859"/>
<path d="M22.2676 24.1509C20.924 25.1167 19.2773 25.6864 17.5 25.6864V34.9997C20.8572 34.9997 24.0701 34.0606 26.8387 32.3069L22.2676 24.1509Z" fill="#FF5B5B"/>
<path d="M35 17.5002C35 12.8257 33.1797 8.43108 29.8743 5.12578C29.6513 4.9027 29.4228 4.68701 29.1901 4.47754L22.5816 11.0861C24.472 12.587 25.6867 14.9043 25.6867 17.5002C25.6867 20.5704 23.9875 23.2508 21.4805 24.6517L26.0382 32.784C27.427 32.0053 28.7175 31.0312 29.8743 29.8745C33.1796 26.5692 35 22.1746 35 17.5002Z" fill="#4895FF"/>
<path d="M35 17.5002C35 12.8257 33.1797 8.43108 29.8743 5.12578C29.6513 4.9027 29.4228 4.68701 29.1901 4.47754L22.5816 11.0861C24.472 12.587 25.6867 14.9043 25.6867 17.5002C25.6867 20.5704 23.9875 23.2508 21.4805 24.6517L26.0382 32.784C27.427 32.0053 28.7175 31.0312 29.8743 29.8745C33.1796 26.5692 35 22.1746 35 17.5002Z" fill="#515BE0"/>
</svg>
