<svg width="18" height="19" viewBox="0 0 18 19" fill="none" xmlns="http://www.w3.org/2000/svg">
<path d="M9 0.108887C4.02975 0.108887 0 4.13864 0 9.10889C0 14.0791 4.02975 18.1089 9 18.1089C13.9703 18.1089 18 14.0791 18 9.10889C18 4.13864 13.9703 0.108887 9 0.108887ZM9 13.7964C8.4825 13.7964 8.0625 13.3764 8.0625 12.8589C8.0625 12.3414 8.4825 11.9214 9 11.9214C9.51825 11.9214 9.9375 12.3414 9.9375 12.8589C9.9375 13.3764 9.51825 13.7964 9 13.7964ZM10.4708 9.35039C9.79275 10.0816 9.7605 10.4859 9.7695 10.9839H8.26575C8.2605 9.87764 8.28075 9.39014 9.339 8.38289C9.76875 7.97489 10.1077 7.65164 10.0605 7.01714C10.017 6.41339 9.513 6.09764 9.03675 6.09764C8.505 6.09764 7.88325 6.49289 7.88325 7.60739H6.37575C6.37575 5.80739 7.4325 4.64489 9.06825 4.64489C9.84525 4.64489 10.5247 4.89914 10.9808 5.36114C11.4082 5.79464 11.6295 6.39014 11.6213 7.08464C11.6093 8.12189 10.9785 8.80289 10.4708 9.35039Z" fill="currentcolor"/>
</svg>
