<svg width="35" height="34" viewBox="0 0 35 34" fill="none" xmlns="http://www.w3.org/2000/svg">
<path opacity="0.8" d="M17.5 34C26.8888 34 34.5 26.3888 34.5 17C34.5 7.61116 26.8888 0 17.5 0C8.11116 0 0.5 7.61116 0.5 17C0.5 26.3888 8.11116 34 17.5 34Z" fill="#9FD7FF"/>
<path d="M22.655 15.5079H18.208V11.0609C18.2077 10.825 18.1139 10.5989 17.947 10.4322C17.7801 10.2655 17.5539 10.1719 17.318 10.1719H16.726C16.4903 10.1721 16.2643 10.2659 16.0977 10.4325C15.931 10.5992 15.8373 10.8252 15.837 11.0609V15.5079H11.389C11.1531 15.5081 10.927 15.602 10.7603 15.7689C10.5936 15.9358 10.5 16.162 10.5 16.3979V16.9909C10.5003 17.2266 10.594 17.4525 10.7607 17.6192C10.9273 17.7859 11.1533 17.8796 11.389 17.8799H15.836V22.3269C15.8363 22.5626 15.93 22.7885 16.0967 22.9552C16.2633 23.1219 16.4893 23.2156 16.725 23.2159H17.318C17.5537 23.2156 17.7797 23.1219 17.9463 22.9552C18.113 22.7885 18.2067 22.5626 18.207 22.3269V17.8799H22.654C22.8897 17.8796 23.1157 17.7859 23.2823 17.6192C23.449 17.4525 23.5427 17.2266 23.543 16.9909V16.3979C23.543 16.1622 23.4495 15.9361 23.283 15.7693C23.1166 15.6024 22.8907 15.5084 22.655 15.5079Z" fill="#3A4080"/>
</svg>
