<svg width="25" height="24" viewBox="0 0 25 24" fill="none" xmlns="http://www.w3.org/2000/svg">
<path d="M12.0943 5.95226C12.6161 5.95226 13.0392 5.52923 13.0392 5.00738C13.0392 4.48554 12.6161 4.0625 12.0943 4.0625C11.5725 4.0625 11.1494 4.48554 11.1494 5.00738C11.1494 5.52923 11.5725 5.95226 12.0943 5.95226Z" fill="#7E7E7E"/>
<path d="M23.2441 22.1104H0.944882C0.423024 22.1104 0 22.5334 0 23.0552C0 23.5771 0.423024 24.0001 0.944882 24.0001H23.2441C23.766 24.0001 24.189 23.5771 24.189 23.0552C24.189 22.5334 23.766 22.1104 23.2441 22.1104Z" fill="#7E7E7E"/>
<path d="M24.189 5.90555C24.189 5.53199 23.9689 5.19353 23.6275 5.04193L12.4543 0.0812957C12.2096 -0.0273658 11.9305 -0.0270351 11.6861 0.0819098L0.560079 5.04254C0.219449 5.19443 0 5.53256 0 5.90555V8.40949C0 8.41747 0.000992126 8.42517 0.0011811 8.43311C0.000992126 8.44104 0 8.44875 0 8.45673C0 8.97859 0.423024 9.40161 0.944882 9.40161C1.49967 9.40161 1.74803 9.87618 1.74803 10.3465V19.1583C1.74803 19.1781 1.74983 19.1974 1.75101 19.217C1.74978 19.2365 1.74803 19.2558 1.74803 19.2756C1.74803 19.7975 2.17106 20.2205 2.69291 20.2205H21.5906C22.1124 20.2205 22.5354 19.7975 22.5354 19.2756C22.5354 18.7538 22.1124 18.3307 21.5906 18.3307H18.7559V10.3465C18.7559 9.82549 19.1798 9.40161 19.7008 9.40161C20.2218 9.40161 20.6457 9.82549 20.6457 10.3465V14.5284C20.6457 15.0503 21.0687 15.4733 21.5906 15.4733C22.1124 15.4733 22.5354 15.0503 22.5354 14.5284V10.3465C22.5354 10.1248 22.5866 9.40161 23.2441 9.40161C23.766 9.40161 24.189 8.97859 24.189 8.45673C24.189 8.44875 24.188 8.44104 24.1878 8.43311C24.188 8.42517 24.189 8.41747 24.189 8.40949V5.90555ZM5.52756 18.3307H3.6378V10.3465C3.6378 9.82549 4.06167 9.40161 4.58268 9.40161C5.10369 9.40161 5.52756 9.82549 5.52756 10.3465V18.3307ZM9.30709 18.3307H7.41732V10.3465C7.41732 9.82549 7.8412 9.40161 8.36221 9.40161C8.88321 9.40161 9.30709 9.82549 9.30709 10.3465V18.3307ZM13.0866 18.3307H11.1969V10.3465C11.1969 9.82549 11.6207 9.40161 12.1417 9.40161C12.6627 9.40161 13.0866 9.82549 13.0866 10.3465V18.3307ZM16.8661 18.3307H14.9764V10.3465C14.9764 9.82549 15.4003 9.40161 15.9213 9.40161C16.4423 9.40161 16.8661 9.82549 16.8661 10.3465V18.3307ZM22.2992 7.4646H1.88976V6.51882L12.0717 1.97909L22.2992 6.51986V7.4646Z" fill="#7E7E7E"/>
</svg>
