<svg width="52" height="52" viewBox="0 0 52 52" fill="none" xmlns="http://www.w3.org/2000/svg">
<circle cx="26" cy="26" r="26" fill="#EEF0FF"/>
<path d="M39.9259 20.0587C39.7522 19.7114 39.33 19.5706 38.9826 19.7443L36.1701 21.1506C35.8227 21.3242 35.682 21.7466 35.8556 22.0939C36.0293 22.4412 36.4516 22.582 36.799 22.4084L39.6114 21.0021C39.9588 20.8284 40.0996 20.4061 39.9259 20.0587Z" fill="#3A4080"/>
<path d="M39.6114 28.1837L36.799 26.7775C36.4518 26.6039 36.0294 26.7446 35.8556 27.0919C35.682 27.4393 35.8227 27.8616 36.1701 28.0353L38.9826 29.4415C39.3299 29.6152 39.7523 29.4744 39.9259 29.1271C40.0996 28.7797 39.9588 28.3574 39.6114 28.1837Z" fill="#3A4080"/>
<path d="M32.2187 25.2968H21.625V21.7343C21.625 19.7958 23.2231 18.2187 25.1875 18.2187C27.126 18.2187 28.7031 19.7958 28.7031 21.7343V23.1406C28.7031 23.5289 29.0179 23.8437 29.4062 23.8437H32.2187C32.607 23.8437 32.9218 23.5289 32.9218 23.1406V21.7343C32.9218 17.4696 29.4522 14 25.1875 14C20.8969 14 17.4062 17.4696 17.4062 21.7344V25.4178C16.5879 25.708 16 26.4896 16 27.4062V35.8905C16 37.0536 16.9463 37.9999 18.1094 37.9999H32.2187C33.3818 37.9999 34.328 37.0536 34.328 35.8905V27.4062C34.328 26.2431 33.3818 25.2968 32.2187 25.2968ZM18.8125 21.7344C18.8125 18.245 21.6723 15.4063 25.1875 15.4063C28.6768 15.4063 31.5155 18.2451 31.5155 21.7344V22.4375H30.1093V21.7344C30.1093 19.0205 27.9013 16.8125 25.1875 16.8125C22.4655 16.8125 20.2187 19.0213 20.2187 21.7344V25.2969H18.8125V21.7344ZM32.9218 35.8905C32.9218 36.2782 32.6064 36.5937 32.2187 36.5937H18.1094C17.7217 36.5937 17.4062 36.2782 17.4062 35.8905V27.4062C17.4062 27.0185 17.7217 26.7031 18.1094 26.7031C18.7651 26.7031 31.6508 26.7031 32.2187 26.7031C32.6064 26.7031 32.9218 27.0185 32.9218 27.4062V35.8905Z" fill="#3A4080"/>
<path d="M25.1875 28.1094C24.0244 28.1094 23.0781 29.0556 23.0781 30.2188C23.0781 31.1354 23.666 31.9169 24.4844 32.2072V34.4844C24.4844 34.8727 24.7992 35.1875 25.1875 35.1875C25.5758 35.1875 25.8906 34.8727 25.8906 34.4844V32.2072C26.709 31.9169 27.2969 31.1354 27.2969 30.2188C27.2969 29.0556 26.3506 28.1094 25.1875 28.1094ZM25.1875 30.9218C24.7998 30.9218 24.4844 30.6064 24.4844 30.2187C24.4844 29.831 24.7998 29.5156 25.1875 29.5156C25.5752 29.5156 25.8906 29.831 25.8906 30.2187C25.8906 30.6064 25.5752 30.9218 25.1875 30.9218Z" fill="#3A4080"/>
<path d="M39.2969 23.8906H36.4844C36.0961 23.8906 35.7812 24.2054 35.7812 24.5938C35.7812 24.9821 36.0961 25.2969 36.4844 25.2969H39.2969C39.6852 25.2969 40 24.9821 40 24.5938C40 24.2054 39.6852 23.8906 39.2969 23.8906Z" fill="#3A4080"/>
</svg>
