<svg width="28" height="35" viewBox="0 0 28 35" fill="none" xmlns="http://www.w3.org/2000/svg">
<path d="M2.73827 35.0004H0.6875V26.729L2.73827 25.7036V35.0004Z" fill="#4B5055"/>
<path d="M27.4834 35.0004H25.4326V25.7036L27.4834 26.729V35.0004Z" fill="#2D2D2D"/>
<path d="M27.4571 12.5563C27.0209 5.55929 21.191 0 14.0859 0L12.7188 16.9229H22.3574L27.4571 12.5563Z" fill="#D10050"/>
<path d="M0.713867 12.5563L5.81359 16.9229H14.085V0C6.98 0 1.15007 5.55929 0.713867 12.5563Z" fill="#FF415B"/>
<path d="M27.4843 13.3982C27.4843 13.1154 27.4744 12.8347 27.4571 12.5562C26.9161 12.0831 26.2086 11.7959 25.4335 11.7959C23.7346 11.7959 22.3574 13.1731 22.3574 14.8721H12.7188L14.0859 26.7282H27.4843V13.3982Z" fill="#FF415B"/>
<path d="M5.81442 14.8721C5.81442 13.1731 4.43719 11.7959 2.73827 11.7959C1.96321 11.7959 1.2557 12.0831 0.714707 12.5562C0.697344 12.8348 0.6875 13.1154 0.6875 13.3983V26.7283H14.0859V14.8721H5.81442Z" fill="#FF8859"/>
<path d="M12.7188 16.7886L14.0859 34.9999C19.2122 34.9999 23.3827 30.8294 23.3827 25.7031V18.1558L12.7188 16.7886Z" fill="#2D2D2D"/>
<path d="M4.78906 18.1558V25.7031C4.78906 30.8294 8.95964 34.9999 14.0859 34.9999V16.7886L4.78906 18.1558Z" fill="#4B5055"/>
<path d="M14.0859 24.6777L12.7188 27.7881L14.0859 30.8984C16.9506 30.8984 19.2812 28.5678 19.2812 25.7031V24.6777H14.0859Z" fill="#4B5055"/>
<path d="M8.8916 24.6777V25.7031C8.8916 28.5678 11.2222 30.8984 14.0869 30.8984V24.6777H8.8916Z" fill="#696E73"/>
<path d="M23.2791 12.6693C23.0131 10.3421 22.2364 8.09728 20.9929 6.09265C19.7536 4.0948 18.0946 2.4064 16.1367 1.13574H14.0859L12.7188 14.1101L23.2791 12.6693Z" fill="#2D2D2D"/>
<path d="M14.0858 14.11V1.13574H12.035C10.0771 2.4064 8.41805 4.0948 7.17877 6.09265C5.93526 8.09728 5.15856 10.3421 4.89258 12.6693L14.0858 14.11Z" fill="#4B5055"/>
<path d="M23.2791 12.6684C22.1731 11.8932 20.5833 11.0928 18.7343 11.0928C16.8267 11.0928 15.1952 11.9447 14.0859 12.7421L12.7188 16.9222L14.0859 22.6261H16.4785C16.4785 22.6261 16.4784 21.0921 15.9402 19.2082C16.7668 19.5587 17.7107 19.8042 18.7343 19.8042C20.642 19.8042 22.2735 18.9523 23.3827 18.1549V14.4779C23.3827 13.871 23.3475 13.2671 23.2791 12.6684Z" fill="#4B5055"/>
<path d="M9.43747 11.0938C7.58843 11.0938 5.99874 11.8942 4.89269 12.6694C4.82427 13.268 4.78906 13.8721 4.78906 14.4789V18.1559C5.89832 18.9533 7.52985 19.8052 9.43747 19.8052C10.4611 19.8052 11.405 19.5597 12.2316 19.2092C11.6934 21.093 11.6933 22.6271 11.6933 22.6271H14.0859V12.743C12.9766 11.9457 11.3451 11.0938 9.43747 11.0938Z" fill="#696E73"/>
<path d="M16.1367 7.24605V1.13558C15.6246 0.803218 15.0924 0.49902 14.5415 0.225858L14.0859 0L12.7188 4.64841L14.0859 9.29682C15.2186 9.29682 16.1367 8.37869 16.1367 7.24605Z" fill="#FF415B"/>
<path d="M13.6294 0.225858C13.0785 0.49902 12.5463 0.803218 12.0342 1.13558V7.24605C12.0342 8.37869 12.9524 9.29682 14.0849 9.29682V0L13.6294 0.225858Z" fill="#FF8859"/>
<path d="M14.0859 26.728L12.7188 27.7876L14.0859 28.8472C15.461 28.8472 16.6327 27.96 17.0588 26.728H14.0859Z" fill="#EFE2DD"/>
<path d="M11.1123 26.728C11.5384 27.96 12.7101 28.8472 14.0852 28.8472V26.728H11.1123Z" fill="#FFF5F5"/>
<path d="M14.0859 15.449C14.0859 15.449 12.0047 17.754 9.43747 17.754C6.87025 17.754 4.78906 15.449 4.78906 15.449C4.78906 15.449 6.87025 13.144 9.43747 13.144C12.0047 13.144 14.0859 15.449 14.0859 15.449Z" fill="#FFF5F5"/>
<path d="M23.3828 15.449C23.3828 15.449 21.3016 17.754 18.7343 17.754C16.1671 17.754 14.0859 15.449 14.0859 15.449C14.0859 15.449 16.1671 13.144 18.7343 13.144C21.3016 13.144 23.3828 15.449 23.3828 15.449Z" fill="#EFE2DD"/>
</svg>
