<svg width="40" height="40" viewBox="0 0 40 40" fill="none" xmlns="http://www.w3.org/2000/svg">
<path d="M20 36.5216C30.7437 36.5216 39.4531 29.1242 39.4531 19.9991C39.4531 10.8739 30.7437 3.47656 20 3.47656C9.25634 3.47656 0.546875 10.8739 0.546875 19.9991C0.546875 29.1242 9.25634 36.5216 20 36.5216Z" fill="#53376C"/>
<path d="M24.6875 31.8341C32.8423 31.8341 39.4531 26.5354 39.4531 19.9991C39.4531 13.4628 32.8423 8.16406 24.6875 8.16406C16.5327 8.16406 9.92188 13.4628 9.92188 19.9991C9.92188 26.5354 16.5327 31.8341 24.6875 31.8341Z" fill="#C95B10"/>
<path d="M29.375 27.1466C34.941 27.1466 39.4531 23.9465 39.4531 19.9991C39.4531 16.0516 34.941 12.8516 29.375 12.8516C23.809 12.8516 19.2969 16.0516 19.2969 19.9991C19.2969 23.9465 23.809 27.1466 29.375 27.1466Z" fill="#5D65AC"/>
</svg>
