<svg width="18" height="15" viewBox="0 0 18 15" fill="none" xmlns="http://www.w3.org/2000/svg">
<path d="M17.2888 10.4745C17.1373 10.6582 16.9582 10.8235 16.7607 10.9567V13.0138H17.0179C17.5597 13.0138 17.9959 12.5776 18.0005 12.0403V9.55615L17.2888 10.4745Z" fill="currentcolor"/>
<path d="M12.949 6.08019H15.5985C15.6765 6.08019 15.7592 6.071 15.8418 6.05264V3.42611C15.8418 2.88427 15.401 2.45264 14.8638 2.45264H0.982653C0.440816 2.45264 0.00459184 2.88886 0 3.42611V13.9552C0.00459184 14.497 0.440816 14.9378 0.982653 14.9424H14.8638C15.4056 14.9378 15.8418 14.497 15.8418 13.9552L15.8372 11.2873C15.7592 11.2965 15.6765 11.3057 15.5939 11.3103H12.949C11.5071 11.3057 10.3362 10.1348 10.3362 8.69294C10.3362 7.25111 11.5071 6.08019 12.949 6.08019Z" fill="currentcolor"/>
<path d="M17.0174 0.523926H3.13626C2.59443 0.528518 2.1582 0.969334 2.1582 1.51117V1.53413H14.8638C15.9107 1.53413 16.7602 2.37903 16.7602 3.42597V5.34535L18 3.74739V1.51117C17.9954 0.969334 17.5592 0.528518 17.0174 0.523926Z" fill="currentcolor"/>
<path d="M17.9957 5.24902L17.284 6.16739C17.0773 6.43372 16.811 6.64953 16.5079 6.79188C16.2232 6.92964 15.911 6.99851 15.5942 6.99851H12.9493C12.0125 7.00311 11.2549 7.76076 11.2549 8.69749C11.2549 9.63423 12.0125 10.3919 12.9493 10.3965H15.5988C15.9753 10.3919 16.3335 10.2174 16.563 9.91892L18.0003 8.05464L17.9957 5.24902ZM13.9778 9.15668H12.8758C12.6232 9.15668 12.4166 8.95004 12.4166 8.69749C12.4166 8.44494 12.6232 8.23831 12.8758 8.23831H13.9778C14.2304 8.23831 14.437 8.44494 14.437 8.69749C14.437 8.95004 14.2304 9.15668 13.9778 9.15668Z" fill="currentcolor"/>
</svg>
