<svg width="16" height="15" viewBox="0 0 16 15" fill="none" xmlns="http://www.w3.org/2000/svg">
<path d="M14 2.66667V2C14 0.896973 13.103 0 12 0H2C0.896973 0 0 0.896973 0 2V12.6667C0 13.7697 0.896973 14.6667 2 14.6667H14C15.103 14.6667 16 13.7697 16 12.6667V4.66667C16 3.56364 15.103 2.66667 14 2.66667ZM2 1.33333H12C12.3677 1.33333 12.6667 1.63232 12.6667 2V2.66667H2C1.63232 2.66667 1.33333 2.36768 1.33333 2C1.33333 1.63232 1.63232 1.33333 2 1.33333ZM14 13.3333H2C1.63232 13.3333 1.33333 13.0343 1.33333 12.6667V3.88574C1.54199 3.95964 1.76628 4 2 4H14C14.3677 4 14.6667 4.29899 14.6667 4.66667V6.33333H11C9.71338 6.33333 8.66667 7.38037 8.66667 8.66667C8.66667 9.95296 9.71338 11 11 11H14.6667V12.6667C14.6667 13.0343 14.3677 13.3333 14 13.3333ZM14.6667 9.66667H13.1066C13.2533 9.35693 13.3333 9.01807 13.3333 8.66667C13.3333 8.30859 13.2497 7.97038 13.105 7.66667H14.6667V9.66667ZM10 8.66667C10 8.1154 10.4487 7.66667 11 7.66667C11.5513 7.66667 12 8.1154 12 8.66667C12 8.93359 11.8957 9.18636 11.7109 9.37272C11.5197 9.56234 11.2669 9.66667 11 9.66667C10.4487 9.66667 10 9.21794 10 8.66667Z" fill="#7E7E7E"/>
</svg>
