<svg width="21" height="17" viewBox="0 0 21 17" fill="none" xmlns="http://www.w3.org/2000/svg">
<path d="M19.6863 11.3309C19.5137 11.5401 19.3098 11.7283 19.085 11.8799V14.2224H19.3778C19.9948 14.2224 20.4915 13.7257 20.4967 13.1139V10.2852L19.6863 11.3309Z" fill="white"/>
<path d="M14.7452 6.32702H17.7622C17.851 6.32702 17.9452 6.31657 18.0393 6.29565V3.30479C18.0393 2.68779 17.5373 2.19629 16.9256 2.19629H1.11896C0.501963 2.19629 0.00522878 2.69302 0 3.30479V15.2944C0.00522878 15.9114 0.501963 16.4133 1.11896 16.4186H16.9256C17.5426 16.4133 18.0393 15.9114 18.0393 15.2944L18.0341 12.2565C17.9452 12.2669 17.851 12.2774 17.7569 12.2826H14.7452C13.1033 12.2774 11.77 10.944 11.77 9.3022C11.77 7.66036 13.1033 6.32702 14.7452 6.32702Z" fill="white"/>
<path d="M19.3773 0H3.57076C2.95376 0.00522878 2.45703 0.507191 2.45703 1.12419V1.15033H16.9251C18.1172 1.15033 19.0845 2.11243 19.0845 3.30459V5.49021L20.4963 3.6706V1.12419C20.4911 0.507191 19.9943 0.00522878 19.3773 0Z" fill="white"/>
<path d="M20.4913 5.38037L19.6808 6.42613C19.4455 6.7294 19.1422 6.97515 18.7971 7.13724C18.473 7.2941 18.1174 7.37254 17.7566 7.37254H14.7448C13.6782 7.37776 12.8154 8.24051 12.8154 9.30718C12.8154 10.3739 13.6782 11.2366 14.7448 11.2418H17.7619C18.1906 11.2366 18.5985 11.0379 18.8599 10.698L20.4965 8.57516L20.4913 5.38037ZM15.9161 9.83006H14.6612C14.3736 9.83006 14.1383 9.59477 14.1383 9.30718C14.1383 9.0196 14.3736 8.78431 14.6612 8.78431H15.9161C16.2037 8.78431 16.439 9.0196 16.439 9.30718C16.439 9.59477 16.2037 9.83006 15.9161 9.83006Z" fill="white"/>
</svg>
