<svg width="35" height="34" viewBox="0 0 35 34" fill="none" xmlns="http://www.w3.org/2000/svg">
<path opacity="0.1" d="M17.5 34C26.8888 34 34.5 26.3888 34.5 17C34.5 7.61116 26.8888 0 17.5 0C8.11116 0 0.5 7.61116 0.5 17C0.5 26.3888 8.11116 34 17.5 34Z" fill="#B7B7B7"/>
<path d="M17.869 12.9629C17.2525 12.9629 16.6498 13.1457 16.1372 13.4882C15.6247 13.8307 15.2251 14.3175 14.9892 14.8871C14.7533 15.4566 14.6916 16.0833 14.8118 16.688C14.9321 17.2926 15.229 17.848 15.6649 18.2839C16.1008 18.7199 16.6562 19.0167 17.2609 19.137C17.8655 19.2573 18.4922 19.1955 19.0618 18.9596C19.6313 18.7237 20.1181 18.3242 20.4606 17.8116C20.8031 17.299 20.9859 16.6964 20.9859 16.0799C20.9852 15.2534 20.6565 14.4611 20.0721 13.8767C19.4878 13.2923 18.6954 12.9637 17.869 12.9629ZM17.869 18.2149C17.4465 18.2149 17.0335 18.0896 16.6823 17.8549C16.331 17.6202 16.0572 17.2866 15.8956 16.8963C15.7339 16.506 15.6916 16.0765 15.774 15.6622C15.8564 15.2478 16.0598 14.8672 16.3586 14.5685C16.6573 14.2698 17.0379 14.0664 17.4522 13.9839C17.8666 13.9015 18.2961 13.9438 18.6864 14.1055C19.0767 14.2672 19.4103 14.5409 19.645 14.8922C19.8797 15.2434 20.005 15.6564 20.005 16.0789C20.005 16.6456 19.78 17.1891 19.3795 17.59C18.9789 17.9909 18.4356 18.2164 17.869 18.2169V18.2149Z" fill="#BFBFBF"/>
<path d="M25.632 8.84329C25.4406 8.65083 25.2129 8.49825 24.9621 8.3944C24.7113 8.29055 24.4424 8.23749 24.171 8.23829H11.565C11.0172 8.23856 10.492 8.45634 10.1048 8.84376C9.71753 9.23118 9.5 9.75653 9.5 10.3043V12.4043C9.49987 12.6756 9.55318 12.9443 9.65688 13.195C9.76059 13.4457 9.91266 13.6735 10.1044 13.8655C10.2962 14.0574 10.5238 14.2097 10.7745 14.3136C11.0251 14.4176 11.2937 14.4712 11.565 14.4713H12.651V23.4383C12.651 23.6407 12.6909 23.841 12.7683 24.028C12.8457 24.215 12.9593 24.3848 13.1023 24.5279C13.2454 24.671 13.4153 24.7845 13.6023 24.862C13.7892 24.9394 13.9896 24.9793 14.192 24.9793H21.546C21.9545 24.979 22.3462 24.8166 22.635 24.5276C22.9238 24.2386 23.086 23.8468 23.086 23.4383V14.4713H24.171C24.7189 14.4713 25.2444 14.2536 25.6319 13.8662C26.0193 13.4787 26.237 12.9532 26.237 12.4053V10.3053C26.2379 10.0337 26.1849 9.7646 26.0811 9.51363C25.9772 9.26267 25.8246 9.03482 25.632 8.84329ZM22.105 23.4383C22.105 23.5868 22.046 23.7292 21.941 23.8343C21.836 23.9393 21.6935 23.9983 21.545 23.9983H14.192C14.0435 23.9983 13.901 23.9393 13.796 23.8343C13.691 23.7292 13.632 23.5868 13.632 23.4383V11.8453H22.106L22.105 23.4383ZM25.256 12.4083C25.2557 12.696 25.1413 12.9718 24.9379 13.1752C24.7345 13.3786 24.4587 13.493 24.171 13.4933H23.086V11.8453H23.646C23.7761 11.8453 23.9008 11.7936 23.9928 11.7016C24.0848 11.6096 24.1365 11.4849 24.1365 11.3548C24.1365 11.2247 24.0848 11.0999 23.9928 11.008C23.9008 10.916 23.7761 10.8643 23.646 10.8643H12.091C11.9609 10.8643 11.8362 10.916 11.7442 11.008C11.6522 11.0999 11.6005 11.2247 11.6005 11.3548C11.6005 11.4849 11.6522 11.6096 11.7442 11.7016C11.8362 11.7936 11.9609 11.8453 12.091 11.8453H12.651V13.4903H11.565C11.2772 13.4903 11.0013 13.376 10.7978 13.1725C10.5943 12.969 10.48 12.693 10.48 12.4053V10.3053C10.4799 10.1627 10.5078 10.0215 10.5623 9.88977C10.6168 9.75802 10.6967 9.63829 10.7974 9.53743C10.8982 9.43658 11.0179 9.35657 11.1496 9.30198C11.2813 9.24739 11.4224 9.21929 11.565 9.21929H24.171C24.4588 9.21929 24.7347 9.3336 24.9382 9.53708C25.1417 9.74056 25.256 10.0165 25.256 10.3043V12.4083Z" fill="#BFBFBF"/>
<path d="M20.4954 21.3691H15.2434C15.1133 21.3691 14.9886 21.4208 14.8966 21.5128C14.8046 21.6048 14.7529 21.7296 14.7529 21.8596C14.7529 21.9897 14.8046 22.1145 14.8966 22.2065C14.9886 22.2985 15.1133 22.3501 15.2434 22.3501H20.4954C20.6255 22.3501 20.7503 22.2985 20.8423 22.2065C20.9343 22.1145 20.9859 21.9897 20.9859 21.8596C20.9859 21.7296 20.9343 21.6048 20.8423 21.5128C20.7503 21.4208 20.6255 21.3691 20.4954 21.3691Z" fill="#BFBFBF"/>
</svg>
